<svg width="12" height="12" viewBox="0 0 12 12" fill="none" xmlns="http://www.w3.org/2000/svg">
<path d="M1.73072 7.28175C2.43807 7.28175 3.01149 6.70833 3.01149 6.00098C3.01149 5.29363 2.43807 4.72021 1.73072 4.72021C1.02337 4.72021 0.449951 5.29363 0.449951 6.00098C0.449951 6.70833 1.02337 7.28175 1.73072 7.28175Z" fill="#666687"/>
<path d="M5.99989 7.28175C6.70724 7.28175 7.28066 6.70833 7.28066 6.00098C7.28066 5.29363 6.70724 4.72021 5.99989 4.72021C5.29254 4.72021 4.71912 5.29363 4.71912 6.00098C4.71912 6.70833 5.29254 7.28175 5.99989 7.28175Z" fill="#666687"/>
<path d="M10.2693 7.28175C10.9766 7.28175 11.5501 6.70833 11.5501 6.00098C11.5501 5.29363 10.9766 4.72021 10.2693 4.72021C9.56194 4.72021 8.98853 5.29363 8.98853 6.00098C8.98853 6.70833 9.56194 7.28175 10.2693 7.28175Z" fill="#666687"/>
</svg>
