<svg width="16" height="16" viewBox="0 0 24 24" fill="none" xmlns="http://www.w3.org/2000/svg">
<circle cx="12" cy="12" r="12" fill="#212134"/>
<path d="M17 12.5685C17 12.6928 16.8993 12.7935 16.775 12.7935H12.7935V16.775C12.7935 16.8993 12.6928 17 12.5685 17H11.4315C11.3072 17 11.2065 16.8993 11.2065 16.775V12.7935H7.225C7.10074 12.7935 7 12.6928 7 12.5685V11.4315C7 11.3072 7.10074 11.2065 7.225 11.2065H11.2065V7.225C11.2065 7.10074 11.3072 7 11.4315 7H12.5685C12.6928 7 12.7935 7.10074 12.7935 7.225V11.2065H16.775C16.8993 11.2065 17 11.3072 17 11.4315V12.5685Z" fill="#F6F6F9"/>
</svg>
