<svg width="16" height="16" viewBox="0 0 16 16" fill="none" xmlns="http://www.w3.org/2000/svg">
<g clip-path="url(#clip0)">
<path d="M15.8577 13.601C15.9361 13.5225 15.9357 13.3952 15.8568 13.3173L10.4567 7.986L15.7833 2.60608C15.8608 2.52787 15.8604 2.40178 15.7826 2.32395L13.601 0.142331C13.5225 0.0638719 13.3952 0.0642802 13.3173 0.143241L7.984 5.54533L2.58542 0.216261C2.50717 0.139019 2.38124 0.139427 2.30349 0.217175L0.142115 2.37855C0.0637397 2.45693 0.0640506 2.58409 0.142808 2.66208L5.54733 8.014L0.216262 13.4146C0.13902 13.4928 0.139428 13.6188 0.217175 13.6965L2.37855 15.8579C2.45693 15.9363 2.58409 15.9359 2.66208 15.8572L8.012 10.4547L13.3939 15.7833C13.4721 15.8608 13.5982 15.8604 13.6761 15.7826L15.8577 13.601Z" fill="#32324D"/>
</g>
<defs>
<clipPath id="clip0">
<rect width="16" height="16" fill="white"/>
</clipPath>
</defs>
</svg>
