<svg width="32" height="24" viewBox="0 0 32 24" fill="none" xmlns="http://www.w3.org/2000/svg">
<rect x="0.5" y="0.5" width="31" height="23" rx="2.5" fill="#EAF5FF" stroke="#B8E1FF"/>
<path fill-rule="evenodd" clip-rule="evenodd" d="M19.2857 9.28571V8.42857C19.2857 8.3125 19.2398 8.21205 19.1479 8.12723C19.056 8.04241 18.9472 8 18.8214 8H10.4643C10.3385 8 10.2297 8.04241 10.1378 8.12723C10.0459 8.21205 10 8.3125 10 8.42857V9.28571C10 9.40179 10.0459 9.50223 10.1378 9.58705C10.2297 9.67188 10.3385 9.71429 10.4643 9.71429H18.8214C18.9472 9.71429 19.056 9.67188 19.1479 9.58705C19.2398 9.50223 19.2857 9.40179 19.2857 9.28571ZM22.0714 11.9989V12.856C22.0714 12.9721 22.0255 13.0725 21.9336 13.1574C21.8417 13.2422 21.7329 13.2846 21.6071 13.2846H10.4643C10.3385 13.2846 10.2297 13.2422 10.1378 13.1574C10.0459 13.0725 10 12.9721 10 12.856V11.9989C10 11.8828 10.0459 11.7824 10.1378 11.6975C10.2297 11.6127 10.3385 11.5703 10.4643 11.5703H21.6071C21.7329 11.5703 21.8417 11.6127 21.9336 11.6975C22.0255 11.7824 22.0714 11.8828 22.0714 11.9989ZM20.2143 15.5731V16.4302C20.2143 16.5463 20.1683 16.6468 20.0765 16.7316C19.9846 16.8164 19.8757 16.8588 19.75 16.8588H10.4643C10.3385 16.8588 10.2297 16.8164 10.1378 16.7316C10.0459 16.6468 10 16.5463 10 16.4302V15.5731C10 15.457 10.0459 15.3566 10.1378 15.2718C10.2297 15.1869 10.3385 15.1445 10.4643 15.1445H19.75C19.8757 15.1445 19.9846 15.1869 20.0765 15.2718C20.1683 15.3566 20.2143 15.457 20.2143 15.5731Z" fill="#0C75AF"/>
</svg>
