<svg width="24" height="24" viewBox="0 0 24 24" fill="none" xmlns="http://www.w3.org/2000/svg">
<path fill-rule="evenodd" clip-rule="evenodd" d="M7.12784 12.3212C6.79384 13.9639 5.34131 15.2001 3.60004 15.2001C1.61179 15.2001 0 13.5883 0 11.6C0 9.61179 1.61179 8 3.60004 8C5.34211 8 6.79518 9.23737 7.1283 10.8812H18.7201V8.48047L24.0001 11.6005L18.7201 14.7205V12.3212H7.12784ZM6.00007 11.6C6.00007 12.9255 4.92554 14.0001 3.60004 14.0001C2.27454 14.0001 1.20001 12.9255 1.20001 11.6C1.20001 10.2745 2.27454 9.20001 3.60004 9.20001C4.92554 9.20001 6.00007 10.2745 6.00007 11.6Z" fill="#212134"/>
</svg>
