<svg width="32" height="24" viewBox="0 0 32 24" fill="none" xmlns="http://www.w3.org/2000/svg">
<rect x="0.5" y="0.5" width="31" height="23" rx="2.5" fill="#F6ECFC" stroke="#E0C1F4"/>
<path fill-rule="evenodd" clip-rule="evenodd" d="M10.1667 7C9.52233 7 9 7.52233 9 8.16667C9 8.811 9.52233 9.33333 10.1667 9.33333C10.811 9.33333 11.3333 8.811 11.3333 8.16667C11.3333 7.52233 10.811 7 10.1667 7ZM10.1667 11.0303C9.52233 11.0303 9 11.5526 9 12.197C9 12.8413 9.52233 13.3636 10.1667 13.3636C10.811 13.3636 11.3333 12.8413 11.3333 12.197C11.3333 11.5526 10.811 11.0303 10.1667 11.0303ZM9 16.2292C9 15.5848 9.52233 15.0625 10.1667 15.0625C10.811 15.0625 11.3333 15.5848 11.3333 16.2292C11.3333 16.8735 10.811 17.3958 10.1667 17.3958C9.52233 17.3958 9 16.8735 9 16.2292ZM13.0055 7.21094C12.7846 7.21094 12.6055 7.39002 12.6055 7.61094V8.72003C12.6055 8.94094 12.7846 9.12003 13.0055 9.12003H22.5994C22.8203 9.12003 22.9994 8.94094 22.9994 8.72003V7.61094C22.9994 7.39002 22.8203 7.21094 22.5994 7.21094H13.0055ZM12.6061 11.6424C12.6061 11.4215 12.7851 11.2424 13.0061 11.2424H22.6C22.8209 11.2424 23 11.4215 23 11.6424V12.7515C23 12.9724 22.8209 13.1515 22.6 13.1515H13.0061C12.7851 13.1515 12.6061 12.9724 12.6061 12.7515V11.6424ZM13.0061 15.2727C12.7851 15.2727 12.6061 15.4518 12.6061 15.6727V16.7818C12.6061 17.0027 12.7851 17.1818 13.0061 17.1818H22.6C22.8209 17.1818 23 17.0027 23 16.7818V15.6727C23 15.4518 22.8209 15.2727 22.6 15.2727H13.0061Z" fill="#9736E8"/>
</svg>
