<svg width="32" height="24" viewBox="0 0 32 24" fill="none" xmlns="http://www.w3.org/2000/svg">
<rect x="0.5" y="0.5" width="31" height="23" rx="2.5" fill="#FCECEA" stroke="#F5C0B8"/>
<path d="M9.81543 16H11.29V8.9541H9.82031L7.99902 10.2188V11.5469L9.72754 10.3457H9.81543V16ZM13.209 16H18.292V14.8135H15.1865V14.7012L16.4902 13.4854C17.7744 12.2988 18.1895 11.6348 18.1895 10.834V10.8193C18.1895 9.60352 17.1738 8.77344 15.7236 8.77344C14.1807 8.77344 13.126 9.70117 13.126 11.0537L13.1309 11.0732H14.4932V11.0488C14.4932 10.3799 14.9668 9.9209 15.6553 9.9209C16.3291 9.9209 16.7393 10.3408 16.7393 10.9414V10.9561C16.7393 11.4492 16.4707 11.8057 15.4795 12.7676L13.209 15.0088V16ZM22.2764 16.1562C23.9219 16.1562 25.0205 15.292 25.0205 14.0127V14.0029C25.0205 13.0459 24.3369 12.4404 23.2871 12.3428V12.3135C24.1123 12.1426 24.7568 11.5713 24.7568 10.6924V10.6826C24.7568 9.55957 23.7803 8.79785 22.2666 8.79785C20.7871 8.79785 19.7959 9.61816 19.6934 10.8779L19.6885 10.9365H21.0459L21.0508 10.8926C21.1094 10.3066 21.5732 9.93066 22.2666 9.93066C22.96 9.93066 23.3652 10.292 23.3652 10.8779V10.8877C23.3652 11.459 22.8867 11.8496 22.1445 11.8496H21.3584V12.8994H22.1641C23.0186 12.8994 23.5215 13.2705 23.5215 13.9443V13.9541C23.5215 14.5498 23.0283 14.9697 22.2764 14.9697C21.5146 14.9697 21.0117 14.5791 20.9482 14.0322L20.9434 13.9785H19.5322L19.5371 14.042C19.6348 15.3018 20.6846 16.1562 22.2764 16.1562Z" fill="#D02B20"/>
</svg>
