<svg width="32" height="24" viewBox="0 0 32 24" fill="none" xmlns="http://www.w3.org/2000/svg">
<rect x="0.5" y="0.5" width="31" height="23" rx="2.5" fill="#F6F6F9" stroke="#DCDCE4"/>
<path d="M20.5726 8.00015C19.0894 8.00015 17.9067 8.74519 17.1758 9.37048L17.15 9.39261L16.7338 9.84515L17.6527 11.3552L18.3327 10.6733C19.0444 10.0723 19.8388 9.74209 20.5726 9.74209C22.0532 9.74209 23.2581 10.9143 23.2581 12.355C23.2581 13.7957 22.0532 14.9679 20.5726 14.9679C18.3226 14.9679 16.7933 11.9939 16.7781 11.9638C16.6895 11.7849 14.7502 8.00015 11.4274 8.00015C8.98617 8.00015 7 9.95366 7 12.355C7 14.7563 8.98617 16.7098 11.4274 16.7098C12.6232 16.7098 13.8001 16.2341 14.8311 15.3337L14.8532 15.3141L15.2662 14.8648L14.347 13.3548L13.6636 14.04C12.9516 14.6558 12.199 14.9679 11.4274 14.9679C9.94677 14.9679 8.74194 13.7957 8.74194 12.355C8.74194 10.9143 9.94677 9.74209 11.4274 9.74209C13.6774 9.74209 15.2067 12.7161 15.2219 12.7462C15.3105 12.9251 17.2498 16.7098 20.5726 16.7098C23.0138 16.7098 25 14.7563 25 12.355C25 9.95366 23.0138 8.00015 20.5726 8.00015Z" fill="#666687"/>
</svg>
