<svg width="32" height="24" viewBox="0 0 32 24" fill="none" xmlns="http://www.w3.org/2000/svg">
<path d="M0.5 3C0.5 1.61929 1.61929 0.5 3 0.5H29C30.3807 0.5 31.5 1.61929 31.5 3V21C31.5 22.3807 30.3807 23.5 29 23.5H3C1.61929 23.5 0.5 22.3807 0.5 21V3Z" fill="#F0F0FF" stroke="#D9D8FF"/>
<path d="M14.9067 9.4376C14.9067 9.8126 14.9067 10.1761 15.025 10.5164C13.7817 11.9761 10.499 15.8328 10.1933 16.127C10.1325 16.1815 10.0839 16.2483 10.0506 16.3228C10.0173 16.3973 10.0001 16.4781 10 16.5597C10 16.8049 10.15 17.0414 10.2769 17.1741C10.4673 17.3732 11.2808 18.1261 11.4308 17.9818C11.875 17.5491 11.9644 17.4338 12.1462 17.2549C12.4202 16.9866 12.1173 16.4386 12.2125 16.2164C12.3077 15.9943 12.4087 15.9511 12.5731 15.9164C12.7375 15.8818 13.0288 16.0001 13.2567 16.003C13.4962 16.0059 13.626 15.9049 13.8048 15.7376C13.949 15.6049 14.0529 15.4809 14.0558 15.2876C14.0615 15.028 13.6865 14.6847 13.9663 14.4107C14.2462 14.1366 14.65 14.5895 14.9471 14.5549C15.2442 14.5203 15.6048 14.1078 15.6423 13.9318C15.6798 13.7559 15.3048 13.303 15.3625 13.0462C15.3827 12.9597 15.5587 12.7578 15.6913 12.7289C15.824 12.7001 16.4125 12.928 16.5452 12.8991C16.7067 12.8645 16.8942 12.6943 17.0471 12.5991C17.4942 12.7924 17.901 12.8703 18.4231 12.8703C20.399 12.8703 22 11.3299 22 9.43183C22 7.53375 20.399 6 18.4231 6C16.4471 6 14.9067 7.53952 14.9067 9.4376ZM20.1538 8.76923C20.1538 8.9518 20.0997 9.13027 19.9983 9.28206C19.8969 9.43386 19.7527 9.55218 19.584 9.62204C19.4153 9.69191 19.2297 9.71019 19.0507 9.67457C18.8716 9.63895 18.7072 9.55104 18.5781 9.42194C18.449 9.29285 18.361 9.12837 18.3254 8.94931C18.2898 8.77025 18.3081 8.58466 18.378 8.41598C18.4478 8.24731 18.5661 8.10315 18.7179 8.00172C18.8697 7.90029 19.0482 7.84615 19.2308 7.84615C19.4756 7.84615 19.7104 7.94341 19.8835 8.11652C20.0566 8.28963 20.1538 8.52442 20.1538 8.76923Z" fill="#4945FF"/>
</svg>
