<svg width="32" height="24" viewBox="0 0 32 24" fill="none" xmlns="http://www.w3.org/2000/svg">
<path d="M0.5 3C0.5 1.61929 1.61929 0.5 3 0.5H29C30.3807 0.5 31.5 1.61929 31.5 3V21C31.5 22.3807 30.3807 23.5 29 23.5H3C1.61929 23.5 0.5 22.3807 0.5 21V3Z" fill="#F0F0FF" stroke="#D9D8FF"/>
<path fill-rule="evenodd" clip-rule="evenodd" d="M21.375 16.3162C21.7917 15.9093 22 15.4118 22 14.8235C22 14.2353 21.7941 13.7353 21.3824 13.3235L19.8529 11.7941C19.4412 11.3824 18.9412 11.1765 18.3529 11.1765C17.7549 11.1765 17.2451 11.3922 16.8235 11.8235L16.1765 11.1765C16.6078 10.7549 16.8235 10.2426 16.8235 9.63971C16.8235 9.05147 16.6201 8.55392 16.2132 8.14706L14.6985 6.625C14.2917 6.20833 13.7917 6 13.1985 6C12.6103 6 12.1127 6.20343 11.7059 6.61029L10.625 7.68382C10.2083 8.09069 10 8.58824 10 9.17647C10 9.76471 10.2059 10.2647 10.6176 10.6765L12.1471 12.2059C12.5588 12.6176 13.0588 12.8235 13.6471 12.8235C14.2451 12.8235 14.7549 12.6078 15.1765 12.1765L15.8235 12.8235C15.3922 13.2451 15.1765 13.7574 15.1765 14.3603C15.1765 14.9485 15.3799 15.4461 15.7868 15.8529L17.3015 17.375C17.7083 17.7917 18.2083 18 18.8015 18C19.3897 18 19.8873 17.7966 20.2941 17.3897L21.375 16.3162ZM15.4195 9.6381C15.4195 9.44202 15.3508 9.27535 15.2136 9.1381L13.6989 7.61604C13.5616 7.47878 13.395 7.41016 13.1989 7.41016C13.0077 7.41016 12.841 7.47633 12.6989 7.60869L11.618 8.68222C11.4807 8.81947 11.4121 8.98369 11.4121 9.17486C11.4121 9.37094 11.4807 9.53761 11.618 9.67486L13.1474 11.2043C13.2798 11.3366 13.4464 11.4028 13.6474 11.4028C13.8533 11.4028 14.0298 11.3268 14.1768 11.1749C14.1621 11.1602 14.1155 11.1148 14.0371 11.0388C13.9587 10.9629 13.906 10.9102 13.879 10.8807C13.8521 10.8513 13.8153 10.8048 13.7687 10.741C13.7222 10.6773 13.6903 10.6148 13.6731 10.5535C13.656 10.4923 13.6474 10.4249 13.6474 10.3513C13.6474 10.1553 13.716 9.98859 13.8533 9.85133C13.9905 9.71408 14.1572 9.64545 14.3533 9.64545C14.4268 9.64545 14.4942 9.65403 14.5555 9.67119C14.6168 9.68834 14.6793 9.72021 14.743 9.76677C14.8067 9.81334 14.8533 9.85011 14.8827 9.87707C14.9121 9.90403 14.9648 9.95672 15.0408 10.0352C15.1168 10.1136 15.1621 10.1602 15.1768 10.1749C15.3386 10.0229 15.4195 9.84398 15.4195 9.6381ZM20.5874 14.8251C20.5874 14.6291 20.5188 14.4624 20.3815 14.3251L18.8521 12.7957C18.7149 12.6585 18.5482 12.5898 18.3521 12.5898C18.1463 12.5898 17.9698 12.6683 17.8227 12.8251C17.8374 12.8398 17.884 12.8852 17.9624 12.9612C18.0409 13.0371 18.0936 13.0898 18.1205 13.1193C18.1475 13.1487 18.1842 13.1952 18.2308 13.259C18.2774 13.3227 18.3092 13.3852 18.3264 13.4465C18.3436 13.5077 18.3521 13.5751 18.3521 13.6487C18.3521 13.8447 18.2835 14.0114 18.1463 14.1487C18.009 14.2859 17.8423 14.3545 17.6463 14.3545C17.5727 14.3545 17.5053 14.346 17.444 14.3288C17.3828 14.3117 17.3203 14.2798 17.2565 14.2332C17.1928 14.1867 17.1463 14.1499 17.1168 14.1229C17.0874 14.096 17.0347 14.0433 16.9588 13.9648C16.8828 13.8864 16.8374 13.8398 16.8227 13.8251C16.661 13.9771 16.5801 14.156 16.5801 14.3619C16.5801 14.558 16.6487 14.7246 16.786 14.8619L18.3007 16.384C18.433 16.5163 18.5997 16.5825 18.8007 16.5825C18.9967 16.5825 19.1634 16.5188 19.3007 16.3913L20.3815 15.3178C20.5188 15.1805 20.5874 15.0163 20.5874 14.8251Z" fill="#4945FF"/>
</svg>
