<svg width="16" height="16" viewBox="0 0 24 24" fill="none" xmlns="http://www.w3.org/2000/svg">
<path d="M3.23642 6.14876C3.11272 6.14876 3.01868 6.25992 3.03918 6.38191L6 24H18L20.9608 6.38191C20.9813 6.25992 20.8873 6.14876 20.7636 6.14876H3.23642ZM21.8 1.98347C21.9105 1.98347 22 2.07301 22 2.18347V3.76694C22 3.8774 21.9105 3.96694 21.8 3.96694H2.2C2.08954 3.96694 2 3.8774 2 3.76694V2.18347C2 2.07301 2.08954 1.98347 2.2 1.98347H7.711C8.611 1.98347 9.342 0.893554 9.342 0H14.658C14.658 0.893554 15.388 1.98347 16.289 1.98347H21.8Z" fill="#32324D"/>
</svg>
