<svg width="16" height="16" viewBox="0 0 24 24" fill="none" xmlns="http://www.w3.org/2000/svg">
<path d="M20 22H6.5C5.57174 22 4.6815 21.6313 4.02513 20.9749C3.36875 20.3185 3 19.4283 3 18.5V5C3 4.20435 3.31607 3.44129 3.87868 2.87868C4.44129 2.31607 5.20435 2 6 2H20C20.2652 2 20.5196 2.10536 20.7071 2.29289C20.8946 2.48043 21 2.73478 21 3V21C21 21.2652 20.8946 21.5196 20.7071 21.7071C20.5196 21.8946 20.2652 22 20 22ZM19 20V17H6.5C6.10218 17 5.72064 17.158 5.43934 17.4393C5.15804 17.7206 5 18.1022 5 18.5C5 18.8978 5.15804 19.2794 5.43934 19.5607C5.72064 19.842 6.10218 20 6.5 20H19Z" fill="#8E8EA9"/>
</svg>
