<svg width="16" height="16" viewBox="0 0 24 24" fill="none" xmlns="http://www.w3.org/2000/svg">
<path d="M13.2999 0C13.4104 0 13.4999 0.0895431 13.4999 0.2V18.26L21.7385 10.0214C21.8166 9.94332 21.9432 9.94332 22.0213 10.0214L23.8585 11.8586C23.9366 11.9367 23.9366 12.0633 23.8585 12.1414L12.1413 23.8586C12.0632 23.9367 11.9366 23.9367 11.8585 23.8586L0.141343 12.1414C0.0632377 12.0633 0.0632373 11.9367 0.141342 11.8586L1.9785 10.0214C2.0566 9.94332 2.18324 9.94332 2.26134 10.0214L10.4999 18.26V0.200001C10.4999 0.0895439 10.5894 0 10.6999 0H13.2999Z" fill="#212134"/>
</svg>
