<svg width="16" height="16" viewBox="0 0 24 25" fill="none" xmlns="http://www.w3.org/2000/svg">
<path fill-rule="evenodd" clip-rule="evenodd" d="M13.5714 5.85007H10.4286V14.3207H2.48691C2.30816 14.3207 2.21919 14.5373 2.34633 14.6629L11.8594 24.0641C11.9373 24.1411 12.0627 24.1411 12.1406 24.0641L21.6537 14.6629C21.7808 14.5373 21.6918 14.3207 21.5131 14.3207H13.5714V5.85007ZM2.2 3.0265C2.08954 3.0265 2 2.93696 2 2.8265V0.402973C2 0.292517 2.08954 0.202972 2.2 0.202972H21.8C21.9105 0.202972 22 0.292517 22 0.402973V2.8265C22 2.93696 21.9105 3.0265 21.8 3.0265H2.2Z" fill="#212134"/>
</svg>
