<svg width="16" height="16" viewBox="0 0 24 24" fill="none" xmlns="http://www.w3.org/2000/svg">
<path d="M16.5628 5.58667C17.9452 5.58667 19.0659 4.46595 19.0659 3.08348C19.0659 1.70101 17.9452 0.580292 16.5628 0.580292C15.1803 0.580292 14.0596 1.70101 14.0596 3.08348C14.0596 4.46595 15.1803 5.58667 16.5628 5.58667Z" fill="#212134"/>
<path d="M18.4866 3.08344C18.475 3.87148 17.9999 4.59578 17.2582 4.87971C16.4875 5.17522 15.601 4.93765 15.0737 4.30606C14.5638 3.69185 14.5 2.79951 14.8998 2.10998C15.2997 1.42624 16.0993 1.0438 16.8815 1.18287C17.8086 1.34511 18.4692 2.15054 18.4866 3.08344C18.4982 3.83092 19.6571 3.83092 19.6455 3.08344C19.6223 1.76811 18.8053 0.615018 17.5653 0.168847C16.389 -0.254145 14.9983 0.139875 14.2045 1.10175C13.3759 2.10418 13.2368 3.55279 13.9206 4.6769C14.5985 5.80102 15.9139 6.35149 17.1944 6.10813C18.6257 5.83579 19.6223 4.51466 19.6455 3.08923C19.6571 2.33596 18.4982 2.33596 18.4866 3.08344Z" fill="#212134"/>
<path d="M16.5628 14.3716C17.9452 14.3716 19.0659 13.2509 19.0659 11.8685C19.0659 10.486 17.9452 9.36526 16.5628 9.36526C15.1803 9.36526 14.0596 10.486 14.0596 11.8685C14.0596 13.2509 15.1803 14.3716 16.5628 14.3716Z" fill="#212134"/>
<path d="M18.4866 11.8675C18.475 12.6556 17.9999 13.3799 17.2582 13.6638C16.4875 13.9593 15.601 13.7217 15.0737 13.0901C14.5638 12.4759 14.5 11.5836 14.8998 10.8941C15.2997 10.2103 16.0993 9.82789 16.8815 9.96696C17.8086 10.1234 18.4692 10.9346 18.4866 11.8675C18.4982 12.615 19.6571 12.615 19.6455 11.8675C19.6223 10.5522 18.8053 9.39911 17.5653 8.95294C16.389 8.52994 14.9983 8.92396 14.2045 9.88584C13.3759 10.8883 13.2368 12.3369 13.9206 13.461C14.5985 14.5851 15.9139 15.1356 17.1944 14.8922C18.6257 14.6199 19.6223 13.2987 19.6455 11.8733C19.6571 11.12 18.4982 11.12 18.4866 11.8675Z" fill="#212134"/>
<path d="M16.5628 23.3921C17.9452 23.3921 19.0659 22.2713 19.0659 20.8889C19.0659 19.5064 17.9452 18.3857 16.5628 18.3857C15.1803 18.3857 14.0596 19.5064 14.0596 20.8889C14.0596 22.2713 15.1803 23.3921 16.5628 23.3921Z" fill="#212134"/>
<path d="M18.4866 20.8895C18.475 21.6775 17.9999 22.4018 17.2582 22.6857C16.4875 22.9813 15.601 22.7437 15.0737 22.1121C14.5638 21.4979 14.5 20.6055 14.8998 19.916C15.2997 19.2323 16.0993 18.8498 16.8815 18.9889C17.8086 19.1453 18.4692 19.9566 18.4866 20.8895C18.4982 21.6369 19.6571 21.6369 19.6455 20.8895C19.6223 19.5741 18.8053 18.421 17.5653 17.9749C16.389 17.5519 14.9983 17.9459 14.2045 18.9078C13.3759 19.9102 13.2368 21.3588 13.9206 22.4829C14.5985 23.6071 15.9139 24.1575 17.1944 23.9142C18.6257 23.6418 19.6223 22.3207 19.6455 20.8953C19.6571 20.142 18.4982 20.142 18.4866 20.8895Z" fill="#212134"/>
<path d="M7.37843 5.62155C8.7609 5.62155 9.88162 4.50083 9.88162 3.11836C9.88162 1.73589 8.7609 0.615173 7.37843 0.615173C5.99596 0.615173 4.87524 1.73589 4.87524 3.11836C4.87524 4.50083 5.99596 5.62155 7.37843 5.62155Z" fill="#212134"/>
<path d="M9.30226 3.1186C9.29067 3.90664 8.81553 4.63094 8.07384 4.91486C7.30319 5.21038 6.41664 4.97281 5.88935 4.34122C5.37944 3.72701 5.3157 2.83467 5.71552 2.14513C6.11533 1.46139 6.91496 1.07896 7.69721 1.21803C8.63011 1.38027 9.29067 2.18569 9.30226 3.1186C9.31385 3.86608 10.4727 3.86608 10.4611 3.1186C10.438 1.80326 9.62095 0.650174 8.38095 0.204004C7.20468 -0.218989 5.81402 0.175032 5.02019 1.1369C4.19159 2.13934 4.05252 3.58794 4.73626 4.71206C5.41421 5.83618 6.72954 6.38665 8.01011 6.14328C9.44133 5.87094 10.438 4.54982 10.4611 3.12439C10.4727 2.37112 9.31385 2.37112 9.30226 3.1186Z" fill="#212134"/>
<path d="M7.37843 14.4062C8.7609 14.4062 9.88162 13.2855 9.88162 11.9031C9.88162 10.5206 8.7609 9.39987 7.37843 9.39987C5.99596 9.39987 4.87524 10.5206 4.87524 11.9031C4.87524 13.2855 5.99596 14.4062 7.37843 14.4062Z" fill="#212134"/>
<path d="M9.30226 11.9024C9.29067 12.6904 8.81553 13.4148 8.07384 13.6987C7.30319 13.9942 6.41664 13.7566 5.88935 13.125C5.37944 12.5108 5.3157 11.6185 5.71552 10.9289C6.11533 10.2452 6.91496 9.86277 7.69721 10.0018C8.63011 10.1641 9.29067 10.9695 9.30226 11.9024C9.31385 12.6499 10.4727 12.6499 10.4611 11.9024C10.438 10.5871 9.62095 9.43399 8.38095 8.98782C7.20468 8.56482 5.81402 8.95885 5.02019 9.92072C4.19159 10.9232 4.05252 12.3718 4.73626 13.4959C5.41421 14.62 6.72954 15.1705 8.01011 14.9271C9.44133 14.6548 10.438 13.3336 10.4611 11.9082C10.4727 11.1549 9.31385 11.1549 9.30226 11.9024Z" fill="#212134"/>
<path d="M7.37843 23.4267C8.7609 23.4267 9.88162 22.3059 9.88162 20.9235C9.88162 19.541 8.7609 18.4203 7.37843 18.4203C5.99596 18.4203 4.87524 19.541 4.87524 20.9235C4.87524 22.3059 5.99596 23.4267 7.37843 23.4267Z" fill="#212134"/>
<path d="M9.30226 20.9244C9.29067 21.7124 8.81553 22.4367 8.07384 22.7206C7.30319 23.0161 6.41664 22.7786 5.88935 22.147C5.37944 21.5328 5.3157 20.6404 5.71552 19.9509C6.11533 19.2671 6.91496 18.8847 7.69721 19.0238C8.63011 19.1802 9.29067 19.9915 9.30226 20.9244C9.31385 21.6718 10.4727 21.6718 10.4611 20.9244C10.438 19.609 9.62095 18.4559 8.38095 18.0098C7.20468 17.5868 5.81402 17.9808 5.02019 18.9427C4.19159 19.9451 4.05252 21.3937 4.73626 22.512C5.41421 23.6361 6.72954 24.1866 8.01011 23.9432C9.44133 23.6709 10.438 22.3498 10.4611 20.9244C10.4727 20.1769 9.31385 20.1769 9.30226 20.9244Z" fill="#212134"/>
</svg>
