<svg width="1em" height="1em" viewBox="0 0 12 12" fill="none" xmlns="http://www.w3.org/2000/svg" aria-hidden="true" focusable="false">
<path d="M.67 5.33h4a.67.67 0 00.66-.66v-4A.67.67 0 004.67 0h-4A.67.67 0 000 .67v4a.67.67 0 00.67.66zm6.66 0h4a.67.67 0 00.67-.66v-4a.67.67 0 00-.67-.67h-4a.67.67 0 00-.66.67v4a.67.67 0 00.66.66zM.67 12h4a.67.67 0 00.66-.67v-4a.67.67 0 00-.66-.66h-4a.67.67 0 00-.67.66v4a.67.67 0 00.67.67zm6.66 0h4a.67.67 0 00.67-.67v-4a.67.67 0 00-.67-.66h-4a.67.67 0 00-.66.66v4a.67.67 0 00.66.67z" fill="#32324D"></path>
</svg>
