<svg width="16" height="16" viewBox="0 0 24 24" fill="none" xmlns="http://www.w3.org/2000/svg">
<path d="M21.4151 1.34429L21.4151 1.34403C20.1653 0.344591 18.5746 -0.127122 16.982 0.029467C15.3895 0.186056 13.9211 0.958557 12.8899 2.18227L11.0955 4.32991C10.8352 4.64147 10.7093 5.04369 10.7456 5.44806C10.7818 5.85244 10.9772 6.22586 11.2888 6.48618C11.6003 6.74649 12.0026 6.87237 12.4069 6.83613C12.8113 6.79989 13.1847 6.6045 13.445 6.29294L15.2395 4.14503C15.5016 3.83234 15.8237 3.57535 16.1867 3.38926C16.5498 3.20317 16.9465 3.09175 17.3534 3.06158C17.7603 3.03141 18.169 3.08311 18.5556 3.21362C18.9421 3.34413 19.2986 3.5508 19.6039 3.82142C20.1918 4.3677 20.5463 5.11961 20.5938 5.92068C20.6413 6.72176 20.378 7.51029 19.8589 8.12218L16.1281 12.5889L16.0937 12.6269C15.8945 12.858 15.6609 13.0573 15.4013 13.2177C14.8012 13.59 14.0904 13.7424 13.3903 13.6488C12.6903 13.5552 12.0445 13.2215 11.5632 12.7046C11.2862 12.4084 10.9031 12.2342 10.4978 12.2202C10.0926 12.2062 9.69832 12.3536 9.40159 12.63C9.10485 12.9063 8.92989 13.2891 8.91508 13.6944C8.90028 14.0996 9.04685 14.4941 9.32263 14.7914C10.0149 15.5343 10.8813 16.093 11.8436 16.4172C12.8059 16.7415 13.8337 16.8209 14.8344 16.6485C15.1474 16.5935 15.4557 16.5147 15.7568 16.4128C16.82 16.0541 17.7632 15.4079 18.4817 14.546L22.2032 10.0918C22.7325 9.45322 23.1303 8.71629 23.3736 7.92339C23.617 7.1305 23.7012 6.2973 23.6214 5.47175C23.5484 4.67117 23.3155 3.89338 22.9365 3.18441C22.5576 2.47545 22.0402 1.84973 21.4151 1.34429Z" fill="#212134"/>
<path d="M10.3987 17.8838L8.79502 19.8032C8.28513 20.4229 7.5559 20.8221 6.75911 20.9178C5.96231 21.0134 5.15933 20.7981 4.51726 20.3167C4.19666 20.0644 3.92989 19.7504 3.73273 19.3932C3.53557 19.036 3.41202 18.6429 3.36937 18.2372C3.32673 17.8315 3.36587 17.4213 3.48447 17.0309C3.60307 16.6406 3.79873 16.2779 4.05987 15.9645L7.85487 11.4221L7.8828 11.3909C8.08209 11.1598 8.31563 10.9606 8.57528 10.8003C9.11941 10.461 9.75687 10.3023 10.3966 10.347C11.0363 10.3917 11.6455 10.6375 12.1371 11.0492C12.2549 11.1475 12.3651 11.2545 12.4669 11.3692C12.6127 11.5342 12.7924 11.6657 12.9937 11.7548C13.195 11.8439 13.4131 11.8885 13.6332 11.8855C13.8507 11.8824 14.065 11.8324 14.2614 11.7389C14.4578 11.6454 14.6317 11.5106 14.7712 11.3438L14.7895 11.3217C15.0237 11.0442 15.15 10.6917 15.1453 10.3286C15.1406 9.96553 15.0051 9.61634 14.7638 9.34503C14.1811 8.6852 13.4627 8.15905 12.6578 7.80261C11.8529 7.44618 10.9805 7.26786 10.1003 7.27987C9.22005 7.29187 8.35282 7.49393 7.55793 7.87219C6.76304 8.25045 6.05927 8.796 5.49478 9.47149L1.71038 14.0015C0.68964 15.2339 0.190673 16.8163 0.319844 18.4113C0.449015 20.0063 1.19611 21.4878 2.40185 22.54C3.01041 23.0652 3.71816 23.463 4.48321 23.7098C5.24827 23.9566 6.05506 24.0474 6.85583 23.9768C7.04671 23.9614 7.23613 23.9371 7.42408 23.904C8.8793 23.6491 10.1983 22.8901 11.1499 21.7599L12.7482 19.8468C13.0085 19.5352 13.1344 19.133 13.0981 18.7286C13.0619 18.3243 12.8665 17.9508 12.5549 17.6905C12.2434 17.4302 11.8411 17.3043 11.4368 17.3406C11.0324 17.3768 10.659 17.5722 10.3987 17.8838H10.3987Z" fill="#212134"/>
</svg>
