<svg width="16" height="16" viewBox="0 0 24 24" fill="none" xmlns="http://www.w3.org/2000/svg">
<path fill-rule="evenodd" clip-rule="evenodd" d="M23.1194 3.90718C23.0951 3.90718 23.0655 3.90174 23.0328 3.89574C22.9928 3.8884 22.9483 3.88024 22.9038 3.88024H5.92804L5.65859 2.07488C5.49691 0.889268 4.47298 6.10352e-05 3.26042 6.10352e-05H1.07783C0.485022 6.10352e-05 0 0.485083 0 1.07789C0 1.67069 0.485022 2.15571 1.07783 2.15571H3.26042C3.39515 2.15571 3.50294 2.2635 3.52988 2.39822L5.20051 13.7693C5.41608 15.1974 6.65558 16.2752 8.11064 16.2752H19.32C20.7212 16.2752 21.9338 15.2782 22.2302 13.904L23.9816 5.14668C24.0894 4.58082 23.7122 4.01496 23.1194 3.90718ZM18.1883 17.8337C16.6524 17.8337 15.386 19.0732 15.386 20.6361C15.386 22.172 16.6255 23.4384 18.1883 23.4384C19.7242 23.4384 20.9907 22.1989 20.9907 20.6361C20.9637 19.1002 19.7242 17.8337 18.1883 17.8337ZM8.54179 17.8337C10.0238 17.8337 11.2633 19.0193 11.3172 20.5014C11.398 22.0373 10.1855 23.3307 8.64957 23.4115H8.59568C7.11367 23.4115 5.90112 22.2259 5.84723 20.7439C5.79333 19.208 6.97894 17.9146 8.54179 17.8337Z" fill="#212134"/>
</svg>
