<svg width="16" height="16" viewBox="0 0 24 24" fill="none" xmlns="http://www.w3.org/2000/svg">
<path fill-rule="evenodd" clip-rule="evenodd" d="M23.8125 20.1635L18.5125 14.7961C19.375 13.2903 19.825 11.6157 19.825 9.92866C19.825 4.45509 15.375 0 9.9125 0C4.45 0 0 4.45509 0 9.92866C0 15.4022 4.45 19.8573 9.9125 19.8573C11.6562 19.8573 13.3812 19.3762 14.9187 18.4577L20.1937 23.8063C20.3125 23.925 20.4812 24 20.65 24C20.8188 24 20.9875 23.9313 21.1063 23.8063L23.8125 21.0695C24.0625 20.8133 24.0625 20.4134 23.8125 20.1635ZM9.91133 3.86719C13.2488 3.86719 15.9613 6.58523 15.9613 9.92811C15.9613 13.271 13.2488 15.989 9.91133 15.989C6.57383 15.989 3.86133 13.271 3.86133 9.92811C3.86133 6.58523 6.57383 3.86719 9.91133 3.86719Z" fill="#32324D"/>
</svg>
