<svg width="16" height="16" viewBox="0 0 24 24" fill="none" xmlns="http://www.w3.org/2000/svg">
<path d="M10.6999 24C10.5894 24 10.4999 23.9105 10.4999 23.8V5.73998L2.26134 13.9786C2.18324 14.0567 2.0566 14.0567 1.9785 13.9786L0.141343 12.1414C0.0632375 12.0633 0.0632373 11.9367 0.141342 11.8586L11.8585 0.141404C11.9366 0.0632987 12.0632 0.0632983 12.1413 0.141403L23.8585 11.8586C23.9366 11.9367 23.9366 12.0633 23.8585 12.1414L22.0213 13.9786C21.9432 14.0567 21.8166 14.0567 21.7385 13.9786L13.4999 5.73998V23.8C13.4999 23.9105 13.4104 24 13.2999 24H10.6999Z" fill="#212134"/>
</svg>
