<svg width="16" height="16" viewBox="0 0 24 24" fill="none" xmlns="http://www.w3.org/2000/svg">
<path d="M17.654 1.70001L14.872 4.23301C16.167 4.6242 17.359 5.29809 18.362 6.20601C21.874 9.40601 21.874 14.594 18.362 17.794C15.77 20.154 11.764 21.656 6.34597 22.3L9.12797 19.767C7.83292 19.3758 6.6409 18.7019 5.63797 17.794C2.12597 14.594 2.10497 9.42501 5.63797 6.20601C8.22997 3.84601 12.237 2.34401 17.655 1.70001H17.654ZM12 8.00001C9.51497 8.00001 7.49997 9.79001 7.49997 12C7.49997 14.21 9.51497 16 12 16C14.485 16 16.5 14.21 16.5 12C16.5 9.79001 14.485 8.00001 12 8.00001Z" fill="#8E8EA9"/>
</svg>
