<svg width="16" height="16" viewBox="0 0 24 24" fill="none" xmlns="http://www.w3.org/2000/svg">
<path d="M12.5892 23.6786L12.5464 23.6717C12.5524 23.6763 12.5594 23.6794 12.5669 23.6806C12.5744 23.6818 12.5821 23.6811 12.5892 23.6786Z" fill="#32324D"/>
<path d="M22.334 8.34546C22.3218 8.28082 22.2884 8.22212 22.239 8.17867C22.1896 8.13522 22.1271 8.10952 22.0614 8.10564C21.9957 8.10176 21.9307 8.11993 21.8765 8.15727C21.8223 8.1946 21.7822 8.24896 21.7624 8.31171C21.7435 8.37129 21.7062 8.42334 21.6559 8.4604C21.6055 8.49745 21.5448 8.5176 21.4823 8.51796H20.6535C20.5999 8.51801 20.5473 8.50338 20.5014 8.47564L19.3024 7.75671C19.2565 7.72897 19.2039 7.71433 19.1503 7.71439H17.2324C17.1741 7.71432 17.117 7.73167 17.0685 7.76421L14.7033 9.34082C14.6624 9.36805 14.629 9.40503 14.606 9.44843C14.583 9.49182 14.5711 9.54027 14.5715 9.58939V11.8255C14.5715 11.8791 14.586 11.9317 14.6136 11.9776C14.6411 12.0236 14.6807 12.0612 14.728 12.0864L17.8292 13.7417C17.8758 13.7668 17.9149 13.8038 17.9424 13.849C17.9699 13.8942 17.9848 13.946 17.9857 13.9989L18.0001 15.2573C18.0009 15.3094 18.0155 15.3603 18.0423 15.405C18.0691 15.4497 18.1072 15.4865 18.1528 15.5117L19.3989 16.2012C19.445 16.2268 19.4835 16.2643 19.5104 16.3098C19.5372 16.3553 19.5514 16.4071 19.5515 16.4599V19.0635C19.5516 19.1204 19.568 19.1761 19.5988 19.2239C19.6297 19.2717 19.6737 19.3096 19.7256 19.333C19.7774 19.3564 19.8349 19.3643 19.8912 19.3559C19.9475 19.3474 20.0001 19.3229 20.0428 19.2853C20.5453 18.8428 21.2658 18.1967 21.3617 18.0489C21.5203 17.8035 21.669 17.5523 21.808 17.2951C22.0957 16.7623 22.3393 16.2069 22.5365 15.6344C23.2158 13.6678 22.679 10.1326 22.334 8.34546Z" fill="#32324D"/>
<path d="M13.6285 14.5072L10.343 12.043C10.3059 12.0151 10.2608 12.0001 10.2144 12.0001H8.6555C8.62884 12.0001 8.60243 11.9949 8.57779 11.9847C8.55315 11.9745 8.53077 11.9595 8.51193 11.9406L7.77693 11.2056C7.75702 11.1858 7.73338 11.17 7.70736 11.1592C7.68135 11.1485 7.65347 11.1429 7.62532 11.143H4.77586C4.7357 11.143 4.69645 11.1311 4.66306 11.1087C4.62967 11.0864 4.60364 11.0547 4.58827 11.0176C4.57291 10.9805 4.56889 10.9397 4.57672 10.9003C4.58455 10.8609 4.60389 10.8248 4.63229 10.7964L5.08336 10.3453C5.1022 10.3264 5.12458 10.3114 5.14922 10.3012C5.17385 10.291 5.20027 10.2858 5.22693 10.2858H6.96104C7.05444 10.2858 7.14528 10.2553 7.21974 10.1989C7.2942 10.1426 7.34821 10.0634 7.37354 9.9735L7.74265 8.661C7.75052 8.63279 7.76408 8.6065 7.78251 8.58374C7.80094 8.56098 7.82384 8.54224 7.84979 8.52868L9.3214 7.77118C9.35451 7.75407 9.38227 7.72817 9.40164 7.69632C9.42102 7.66448 9.43125 7.62792 9.43122 7.59064V6.921C9.43128 6.87945 9.44398 6.8389 9.46765 6.80475L10.2498 5.67868C10.2732 5.64485 10.3065 5.61904 10.3451 5.60475L11.4396 5.19386C11.4783 5.17935 11.5117 5.15336 11.5352 5.11938C11.5588 5.08539 11.5714 5.04503 11.5714 5.00368V4.39296C11.5714 4.35948 11.5631 4.32651 11.5473 4.29698C11.5315 4.26745 11.5087 4.24227 11.4809 4.22368L10.3837 3.49404C10.3536 3.4742 10.3187 3.46267 10.2827 3.4606C10.2467 3.45853 10.2108 3.466 10.1785 3.48225L8.68497 4.22904C8.6508 4.24591 8.61257 4.2528 8.57466 4.24891C8.53676 4.24503 8.50072 4.23052 8.47068 4.20707L7.76247 3.64725C7.7383 3.62781 7.71889 3.60311 7.70573 3.57503C7.69256 3.54695 7.68599 3.51623 7.68651 3.48523C7.68702 3.45422 7.69462 3.42374 7.70871 3.39611C7.7228 3.36848 7.74302 3.34444 7.76783 3.32582L8.34318 2.90207C8.36923 2.88297 8.39033 2.85791 8.40472 2.82899C8.4191 2.80007 8.42637 2.76813 8.42589 2.73583C8.42542 2.70353 8.41723 2.67181 8.402 2.64333C8.38678 2.61484 8.36495 2.59041 8.33836 2.57207L7.44211 1.94689C7.41108 1.92505 7.37454 1.91236 7.33666 1.91028C7.29877 1.90819 7.26106 1.9168 7.22783 1.93511C6.90372 2.11243 5.95283 2.63743 5.61533 2.87368C4.05377 3.96875 2.79707 5.44374 1.9639 7.15939C1.8664 7.36082 1.74586 7.566 1.73408 7.78725C1.72229 8.0085 1.54872 8.50243 1.4764 8.70225C1.46664 8.72926 1.46274 8.75804 1.46496 8.78667C1.46718 8.8153 1.47546 8.84313 1.48925 8.86832L3.40122 12.3815C3.41842 12.4135 3.44398 12.4401 3.47515 12.4587L5.48675 13.6662C5.51285 13.6817 5.53512 13.7029 5.5519 13.7283C5.56869 13.7536 5.57956 13.7823 5.58372 13.8124L5.98658 16.7342C5.99051 16.7622 6.00021 16.7891 6.01505 16.8132C6.0299 16.8372 6.04957 16.858 6.07283 16.874L7.64247 17.953C7.68794 17.9842 7.7196 18.0318 7.73086 18.0858L8.56336 22.0394C8.56803 22.0626 8.57692 22.0848 8.58961 22.1048C8.66782 22.2312 8.97961 22.694 9.35568 22.7626C9.32086 22.7723 9.28979 22.7942 9.25497 22.8044C9.3453 22.8203 9.43472 22.841 9.52282 22.8665C9.62997 22.8955 9.73711 22.9201 9.84425 22.9431C10.0119 22.9764 10.0285 23.0021 10.1089 22.8531C10.216 22.6539 10.3387 22.5853 10.4303 22.5606C10.4681 22.5519 10.5027 22.5327 10.5301 22.5053C10.5575 22.4778 10.5766 22.4431 10.5851 22.4053L11.1246 19.9046C11.136 19.8522 11.1665 19.8059 11.2103 19.7749L13.621 18.066C13.6491 18.0462 13.6719 18.0199 13.6877 17.9894C13.7034 17.959 13.7116 17.9251 13.7116 17.8908V14.6787C13.7119 14.6456 13.7046 14.613 13.6902 14.5832C13.6757 14.5535 13.6547 14.5275 13.6285 14.5072Z" fill="#32324D"/>
<path d="M12.3214 0.857086C12.3214 0.857086 12.1259 0.868336 12.0862 0.869408C11.7959 0.877979 11.5062 0.897979 11.2173 0.929408C10.164 1.04367 9.1325 1.30795 8.15405 1.71423C8.28423 1.80423 8.0603 1.88673 8.0603 1.88673L8.41066 2.57137H10.2857L11.5714 3.21423L12.6964 2.57137L12.3214 0.857086Z" fill="#32324D"/>
<path d="M17.2623 4.71758L18.1254 3.96758C18.1524 3.94414 18.1731 3.9143 18.1856 3.88079C18.1981 3.84729 18.2021 3.81118 18.1971 3.77576C18.1921 3.74034 18.1783 3.70674 18.157 3.67802C18.1356 3.6493 18.1075 3.62638 18.075 3.61133L17.0673 3.14366C17.0161 3.11978 16.9576 3.11707 16.9044 3.13614C16.8512 3.1552 16.8078 3.19448 16.7834 3.24544L16.3682 4.11383C16.3456 4.16131 16.3413 4.21543 16.356 4.26591C16.3707 4.31639 16.4035 4.35969 16.448 4.38758L17.0084 4.73794C17.0473 4.76216 17.093 4.77325 17.1387 4.76959C17.1844 4.76592 17.2277 4.7477 17.2623 4.71758Z" fill="#32324D"/>
<path d="M21.3021 5.8215L20.9898 5.33936C20.985 5.33186 20.9807 5.32436 20.9764 5.31632C20.9202 5.20115 20.4546 4.26097 20.0657 3.89615C19.7737 3.62026 19.6907 3.69954 19.6677 3.76061C19.6545 3.79439 19.6325 3.824 19.6039 3.84633L18.0589 5.09507C18.0209 5.12586 17.9734 5.14268 17.9245 5.14275H17.1246C17.0965 5.14273 17.0686 5.14825 17.0426 5.15901C17.0166 5.16976 16.9929 5.18554 16.973 5.20543L16.3302 5.84829C16.3103 5.86819 16.2945 5.89182 16.2837 5.91783C16.2729 5.94385 16.2673 5.97173 16.2673 5.99989C16.2673 6.02805 16.2729 6.05594 16.2837 6.08195C16.2945 6.10796 16.3103 6.1316 16.3302 6.1515L16.973 6.79435C16.9929 6.81425 17.0166 6.83002 17.0426 6.84078C17.0686 6.85153 17.0965 6.85705 17.1246 6.85703H21.1516C21.1805 6.85706 21.2091 6.85123 21.2358 6.8399C21.2624 6.82856 21.2864 6.81196 21.3064 6.79109C21.3264 6.77021 21.342 6.7455 21.3523 6.71844C21.3625 6.69138 21.3671 6.66254 21.3659 6.63364L21.3364 5.92918C21.3348 5.89086 21.323 5.85368 21.3021 5.8215Z" fill="#32324D"/>
<path d="M12 2.14286C14.2805 2.14267 16.4905 2.93322 18.2535 4.37982C20.0165 5.82643 21.2233 7.83956 21.6684 10.0762C22.1135 12.3129 21.7693 14.6347 20.6944 16.646C19.6195 18.6573 17.8805 20.2337 15.7736 21.1065C13.6668 21.9794 11.3224 22.0947 9.14008 21.4329C6.95772 20.771 5.07237 19.373 3.80526 17.4769C2.53815 15.5808 1.96769 13.304 2.19108 11.0344C2.41447 8.76489 3.41789 6.64302 5.03036 5.03036C5.94342 4.11208 7.02957 3.38405 8.22591 2.8884C9.42226 2.39276 10.705 2.13935 12 2.14286ZM12 0C5.37321 0 0 5.37321 0 12C0 18.6268 5.37321 24 12 24C18.6268 24 24 18.6268 24 12C24 5.37321 18.6268 0 12 0Z" fill="#32324D"/>
</svg>
