<svg width="16" height="19" viewBox="0 0 21 24" fill="none" xmlns="http://www.w3.org/2000/svg">
<path d="M18.5392 8.7459C18.5336 8.69383 18.5086 8.64589 18.4692 8.61195C18.4302 8.5779 18.3808 8.55844 18.3293 8.5568C18.3046 8.55355 18.2795 8.55536 18.2555 8.56213C18.2314 8.5689 18.209 8.58048 18.1895 8.59619C18.146 8.6237 18.1131 8.66539 18.0962 8.71438C18.0844 8.76164 18.057 8.80336 18.0185 8.83257C17.9787 8.86435 17.9293 8.88107 17.8786 8.87984H17.2336C17.1955 8.89059 17.1552 8.89059 17.1171 8.87984L16.1846 8.31254C16.1465 8.30093 16.106 8.30093 16.068 8.31254H14.576C14.5357 8.29812 14.4919 8.29812 14.4516 8.31254L12.6099 9.54957C12.5803 9.57258 12.5564 9.60225 12.54 9.63625C12.5287 9.67212 12.5287 9.71068 12.54 9.74655V11.5115C12.533 11.5506 12.533 11.5906 12.54 11.6297C12.5632 11.6662 12.5953 11.6961 12.6332 11.7164L15.0422 13.0164C15.078 13.0369 15.1075 13.0668 15.1277 13.1031C15.1508 13.1383 15.1643 13.1791 15.1666 13.2213V14.1825C15.1596 14.2216 15.1596 14.2616 15.1666 14.3007C15.1892 14.3329 15.2183 14.3598 15.252 14.3795L16.2234 14.9232C16.2575 14.9458 16.2866 14.9753 16.3089 15.0099C16.3195 15.0485 16.3195 15.0894 16.3089 15.128V17.1845C16.3109 17.2292 16.3243 17.2726 16.3477 17.3106C16.3741 17.3472 16.4087 17.377 16.4488 17.3972C16.4894 17.4087 16.5324 17.4087 16.5731 17.3972C16.6168 17.3922 16.6578 17.3729 16.6897 17.3421C17.0757 17.0497 17.4418 16.7312 17.7854 16.3887C17.9097 16.1996 18.0263 15.9947 18.1351 15.7978C18.3575 15.3774 18.5471 14.9401 18.7023 14.4898C19.2308 12.9376 18.8111 10.1484 18.5392 8.7459Z" fill="#32324D"/>
<path d="M8.50674 11.6218L6.17545 15.6717L5.87239 15.459C5.86761 15.4436 5.86761 15.4271 5.87239 15.4117C5.86458 15.3914 5.86458 15.3689 5.87239 15.3487L5.55378 13.0479C5.56158 13.0277 5.56158 13.0052 5.55378 12.9849C5.54443 12.9639 5.52785 12.9471 5.50715 12.9376L3.95296 11.9842C3.92669 11.9697 3.9051 11.9479 3.89079 11.9212L3.02822 10.3454L2.40654 9.18714V9.1241C2.4029 9.10061 2.4029 9.07669 2.40654 9.05319C2.481 8.80949 2.53048 8.55866 2.55419 8.30467C2.58689 8.13049 2.64725 7.96285 2.73292 7.80828C3.37605 6.45774 4.34661 5.29474 5.55378 4.42811C5.81022 4.24689 6.54846 3.82929 6.8049 3.69535C6.83284 3.68724 6.86245 3.68724 6.89038 3.69535C6.91591 3.689 6.94257 3.689 6.96809 3.69535L7.66748 4.18386C7.66748 4.18386 7.70633 4.18386 7.71411 4.23901C7.7219 4.26468 7.7219 4.29213 7.71411 4.3178C7.72064 4.33829 7.72064 4.36035 7.71411 4.38083V4.38083C7.70573 4.40438 7.68914 4.424 7.66748 4.43599L7.21676 4.79055C7.21084 4.80845 7.21084 4.82781 7.21676 4.84571C7.21676 4.84571 7.21676 4.84571 7.21676 4.91662C7.2096 4.9397 7.2096 4.96445 7.21676 4.98753V5.04269L7.7685 5.51544C7.79403 5.52178 7.82069 5.52178 7.84621 5.51544C7.87414 5.52354 7.90376 5.52354 7.93169 5.51544L9.09734 4.9245H9.17505C9.20036 4.9166 9.22744 4.9166 9.25275 4.9245L10.1076 5.49968C10.1296 5.51683 10.1481 5.53825 10.162 5.56271C10.1656 5.58621 10.1656 5.61013 10.162 5.63363V6.11426C10.171 6.1451 10.171 6.17796 10.162 6.20881C10.1414 6.23395 10.1146 6.25301 10.0842 6.26396L9.23721 6.58701C9.2052 6.59881 9.17789 6.62096 9.1595 6.65004L8.5456 7.52463C8.53552 7.55532 8.53552 7.58849 8.5456 7.61918V8.14709C8.55251 8.17555 8.55251 8.20529 8.5456 8.23376C8.52868 8.25614 8.50755 8.27489 8.48343 8.28891L7.3411 8.88773C7.32009 8.89621 7.30143 8.90973 7.2867 8.92713C7.28393 8.94804 7.28393 8.96924 7.2867 8.99016L6.99918 10.0223C6.98038 10.0938 6.93954 10.1573 6.88261 10.2036C6.84118 10.2327 6.79352 10.2515 6.74353 10.2584C6.69354 10.2652 6.64267 10.2599 6.59509 10.2429H5.18854C5.17058 10.2393 5.1521 10.2393 5.13415 10.2429L4.78445 10.5975C4.77886 10.6099 4.77597 10.6233 4.77597 10.6369C4.77597 10.6505 4.77886 10.6639 4.78445 10.6763C4.77312 10.7068 4.77312 10.7404 4.78445 10.7709C4.79541 10.7993 4.81431 10.824 4.83885 10.8418C4.86954 10.8489 4.90141 10.8489 4.9321 10.8418H7.11574H7.17791L7.21676 11.0309L7.78404 11.606H7.83844H7.90061L8.50674 11.6218Z" fill="#32324D"/>
<path d="M11.8792 13.7334V16.2626C11.8835 16.2887 11.8835 16.3153 11.8792 16.3414C11.8653 16.3659 11.8468 16.3873 11.8248 16.4045L9.95196 17.7439C9.92182 17.7727 9.89799 17.8076 9.88202 17.8463L9.54787 19.3198L9.43907 19.824C9.42938 19.8534 9.41346 19.8803 9.39245 19.9028C9.36671 19.9071 9.34047 19.9071 9.31474 19.9028C9.26023 19.9219 9.21009 19.952 9.16736 19.9913C9.12462 20.0306 9.09017 20.0782 9.06607 20.1313C9.0039 20.2495 8.98836 20.2337 8.85625 20.2022L8.60758 20.1471L8.39776 20.0919H8.48324C8.18795 20.0368 7.94705 19.6743 7.88488 19.5719V19.5246L7.745 18.8312L7.44971 17.6494L10.3638 12.52L11.7781 13.5995C11.7781 13.5995 11.817 13.5995 11.8248 13.6546C11.8472 13.6776 11.8656 13.7042 11.8792 13.7334V13.7334Z" fill="#32324D"/>
<path d="M10.7601 2.84439H10.5814C10.3535 2.84439 10.1281 2.86015 9.90533 2.89167C9.085 2.98331 8.28171 3.1929 7.51965 3.51412C7.62067 3.58503 7.44971 3.64807 7.44971 3.64807L7.72169 4.18385H9.18263L10.1773 4.72752L11.0554 4.21537L10.7601 2.84439Z" fill="#32324D"/>
<path d="M15.3297 5.14512C15.3335 5.17124 15.3335 5.19779 15.3297 5.22391L15.2831 5.29482L14.607 5.88576C14.5768 5.89658 14.5439 5.89658 14.5138 5.88576C14.4805 5.8938 14.4459 5.8938 14.4127 5.88576L14.1641 5.72818L14.7236 4.75116L15.2442 4.99541C15.2683 5.00944 15.2895 5.02819 15.3064 5.05057C15.3206 5.0801 15.3285 5.1123 15.3297 5.14512V5.14512Z" fill="#32324D"/>
<path d="M17.7388 6.75247L17.4979 6.37427C17.3102 5.97227 17.0725 5.59628 16.7907 5.25542C16.5576 5.03481 16.4955 5.09784 16.4799 5.14511C16.4682 5.17319 16.4495 5.19765 16.4255 5.21603L15.221 6.18517C15.1856 6.19663 15.1476 6.19663 15.1122 6.18517H14.4905H14.4284H14.374L13.8766 6.68943C13.8595 6.70436 13.8461 6.72329 13.8378 6.74459C13.834 6.76542 13.834 6.78679 13.8378 6.80762C13.8334 6.8284 13.8334 6.84988 13.8378 6.87066C13.8461 6.89195 13.8595 6.91088 13.8766 6.92581L14.374 7.43796H14.4284H14.4905H17.5989H17.6689L17.7233 7.39856C17.7273 7.3804 17.7273 7.36157 17.7233 7.34341C17.7259 7.32248 17.7259 7.3013 17.7233 7.28037V6.72095C17.7275 6.73191 17.7327 6.74245 17.7388 6.75247Z" fill="#32324D"/>
<path d="M10.5117 2.16677C8.60699 2.16555 6.74757 2.75576 5.18354 3.85801C3.61951 4.96027 2.42589 6.52171 1.76322 8.33232C1.10055 10.1429 1.00061 12.1159 1.47684 13.9858C1.95307 15.8557 2.98264 17.5329 4.42706 18.7919L5.28187 17.2869C4.85094 16.8864 4.46993 16.4339 4.14731 15.9396C3.16168 14.4437 2.71689 12.6481 2.88841 10.8575C2.90286 10.6748 2.92882 10.4932 2.96612 10.3139C3.22752 8.728 3.9721 7.26493 5.09536 6.13C5.80375 5.40382 6.64959 4.83029 7.58207 4.44386L7.71418 4.3887C8.60519 4.03339 9.55428 3.85162 10.5117 3.85292C11.266 3.84875 12.0161 3.96577 12.7342 4.1996L13.589 2.69468C12.6005 2.3417 11.5597 2.16315 10.5117 2.16677V2.16677ZM15.4463 3.5929L14.607 5.06631C14.879 5.23064 15.1387 5.41499 15.3841 5.61786C16.6714 6.68612 17.5804 8.15048 17.9735 9.78932C18.3667 11.4282 18.2226 13.1522 17.5631 14.7006C16.9036 16.249 15.7646 17.5375 14.3184 18.3709C12.8723 19.2044 11.1977 19.5374 9.54812 19.3198C9.12952 19.2661 8.71617 19.1765 8.31254 19.0519C8.1105 18.9888 7.91622 18.9179 7.72195 18.8391C7.46896 18.7423 7.22237 18.6292 6.98371 18.5003L6.1289 19.9737C8.2713 21.2275 10.8172 21.5671 13.2065 20.9177C15.5958 20.2683 17.6328 18.6831 18.8694 16.5108C20.106 14.3386 20.4409 11.7573 19.8004 9.33468C19.1599 6.9121 17.5965 4.84672 15.4541 3.5929H15.4463Z" fill="#32324D"/>
<path d="M18.6997 0.794302L17.4143 0.0418396L4.2503 23.1601L5.5357 23.9126L18.6997 0.794302Z" fill="#32324D"/>
</svg>
