<svg width="16" height="16" viewBox="0 0 24 24" fill="none" xmlns="http://www.w3.org/2000/svg">
<path fill-rule="evenodd" clip-rule="evenodd" d="M23.7078 0.296806C23.5203 0.10927 23.2659 0.00391189 23.0007 0.00391189L21.0007 0.00391189C19.1536 0.00224868 17.3247 0.368544 15.6207 1.08142C15.4386 1.15737 15.2831 1.28548 15.1737 1.44963C15.0642 1.61378 15.0058 1.80664 15.0057 2.00392V4.92142C15.0068 4.9293 15.0051 4.93731 15.001 4.94412C14.997 4.95094 14.9907 4.95616 14.9832 4.95893L12.9832 3.48892C12.7987 3.35037 12.5719 3.27991 12.3413 3.28948C12.1108 3.29905 11.8906 3.38806 11.7182 3.54142C10.2373 4.85307 9.05121 6.46366 8.23807 8.26706C7.42492 10.0705 7.0032 12.0257 7.00069 14.0039V15.589L4.29319 18.2965C4.10554 18.4841 4.00013 18.7386 4.00013 19.004C4.00013 19.2693 4.10554 19.5238 4.29319 19.7115C4.48083 19.8991 4.73532 20.0045 5.00069 20.0045C5.26605 20.0045 5.52055 19.8991 5.70819 19.7115L8.4157 17.004H10.0007C13.7125 17 17.2712 15.5237 19.8958 12.8991C22.5205 10.2744 23.9968 6.71574 24.0007 3.00392V1.00392C24.0007 0.738699 23.8954 0.484343 23.7078 0.296806ZM18 24.0001H3.00001C2.20436 24.0001 1.44129 23.684 0.878682 23.1214C0.316071 22.5588 0 21.7958 0 21.0001V6.00007C0 5.20442 0.316071 4.44135 0.878682 3.87874C1.44129 3.31613 2.20436 3.00006 3.00001 3.00006H6.00001C6.26523 3.00006 6.51958 3.10542 6.70712 3.29296C6.89466 3.48049 7.00002 3.73485 7.00002 4.00006C7.00002 4.26528 6.89466 4.51964 6.70712 4.70717C6.51958 4.89471 6.26523 5.00007 6.00001 5.00007H3.00001C2.73479 5.00007 2.48043 5.10542 2.2929 5.29296C2.10536 5.4805 2 5.73485 2 6.00007V21.0001C2 21.2653 2.10536 21.5197 2.2929 21.7072C2.48043 21.8947 2.73479 22.0001 3.00001 22.0001H18C18.2653 22.0001 18.5196 21.8947 18.7071 21.7072C18.8947 21.5197 19 21.2653 19 21.0001V18.0001C19 17.7349 19.1054 17.4805 19.2929 17.293C19.4805 17.1054 19.7348 17.0001 20 17.0001C20.2653 17.0001 20.5196 17.1054 20.7072 17.293C20.8947 17.4805 21 17.7349 21 18.0001V21.0001C21 21.7958 20.684 22.5588 20.1214 23.1214C19.5588 23.684 18.7957 24.0001 18 24.0001Z" fill="#212134"/>
</svg>
