<svg viewBox="0 0 32 32"
    xmlns="http://www.w3.org/2000/svg">
    <path d="M30.5 6.99998V13C30.5 13.3978 30.342 13.7793 30.0607 14.0606C29.7794 14.3419 29.3978 14.5 29 14.5H23C22.6022 14.5 22.2207 14.3419 21.9394 14.0606C21.6581 13.7793 21.5 13.3978 21.5 13C21.5 12.6022 21.6581 12.2206 21.9394 11.9393C22.2207 11.658 22.6022 11.5 23 11.5H25.1375L22.7625 9.32748C22.7463 9.31248 22.73 9.29748 22.715 9.28123C21.6138 8.18068 20.259 7.36764 18.7697 6.91365C17.2805 6.45967 15.7025 6.37865 14.1746 6.67773C12.6467 6.97681 11.2157 7.64682 10.0076 8.6288C8.79944 9.61079 7.85115 10.8747 7.24616 12.3092C6.64117 13.7437 6.39801 15.305 6.53809 16.8555C6.67817 18.4061 7.19719 19.8985 8.04949 21.2014C8.90178 22.5043 10.0612 23.5777 11.4258 24.3273C12.7904 25.0769 14.3183 25.4796 15.875 25.5H16C18.4249 25.5058 20.7591 24.5784 22.5188 22.91C22.808 22.6366 23.194 22.4894 23.5918 22.5007C23.9896 22.5119 24.3667 22.6807 24.64 22.97C24.9134 23.2592 25.0606 23.6452 25.0493 24.043C25.0381 24.4408 24.8693 24.8179 24.58 25.0912C22.2636 27.2867 19.1916 28.5073 16 28.5H15.8288C13.7826 28.4711 11.7748 27.9404 9.98163 26.9543C8.18848 25.9682 6.66486 24.557 5.54454 22.8445C4.42423 21.132 3.74148 19.1706 3.55626 17.1326C3.37103 15.0946 3.68899 13.0423 4.48222 11.1559C5.27545 9.26953 6.51969 7.60673 8.10567 6.31352C9.69166 5.02032 11.5709 4.13628 13.5784 3.73902C15.5858 3.34176 17.6601 3.44343 19.6191 4.03511C21.5781 4.62679 23.3619 5.69037 24.8138 7.13248L27.5 9.58998V6.99998C27.5 6.60216 27.6581 6.22062 27.9394 5.93932C28.2207 5.65802 28.6022 5.49998 29 5.49998C29.3978 5.49998 29.7794 5.65802 30.0607 5.93932C30.342 6.22062 30.5 6.60216 30.5 6.99998Z" />
</svg>
