<svg viewBox="0 0 32 32"
    xmlns="http://www.w3.org/2000/svg">
    <path d="M26.9237 20.3825C26.8481 20.5652 26.72 20.7214 26.5555 20.8314C26.3911 20.9413 26.1978 21 26 21H5.99999C5.8021 21.0001 5.60861 20.9416 5.44401 20.8317C5.27942 20.7218 5.15112 20.5656 5.07537 20.3828C4.99962 20.2 4.97981 19.9988 5.01846 19.8047C5.05712 19.6106 5.15248 19.4323 5.29249 19.2925L15.2925 9.29249C15.3854 9.19952 15.4957 9.12576 15.6171 9.07543C15.7385 9.02511 15.8686 8.99921 16 8.99921C16.1314 8.99921 16.2615 9.02511 16.3829 9.07543C16.5043 9.12576 16.6146 9.19952 16.7075 9.29249L26.7075 19.2925C26.8473 19.4324 26.9425 19.6107 26.981 19.8047C27.0195 19.9987 26.9995 20.1998 26.9237 20.3825Z" />
</svg>
