<svg viewBox="0 0 32 32"
    xmlns="http://www.w3.org/2000/svg">
    <path d="M29.0613 10.0613L13.0613 26.0613C12.9219 26.2011 12.7563 26.3121 12.574 26.3878C12.3917 26.4635 12.1962 26.5024 11.9988 26.5024C11.8013 26.5024 11.6059 26.4635 11.4235 26.3878C11.2412 26.3121 11.0756 26.2011 10.9363 26.0613L3.93626 19.0613C3.79673 18.9217 3.68605 18.7561 3.61053 18.5738C3.53502 18.3915 3.49615 18.1961 3.49615 17.9988C3.49615 17.8014 3.53502 17.606 3.61053 17.4237C3.68605 17.2414 3.79673 17.0758 3.93626 16.9363C4.07579 16.7967 4.24143 16.686 4.42374 16.6105C4.60604 16.535 4.80143 16.4962 4.99876 16.4962C5.19608 16.4962 5.39147 16.535 5.57378 16.6105C5.75608 16.686 5.92173 16.7967 6.06126 16.9363L12 22.875L26.9388 7.93876C27.2205 7.65697 27.6027 7.49866 28.0013 7.49866C28.3998 7.49866 28.782 7.65697 29.0638 7.93876C29.3455 8.22055 29.5039 8.60274 29.5039 9.00126C29.5039 9.39977 29.3455 9.78197 29.0638 10.0638L29.0613 10.0613Z" />
</svg>
