<svg viewBox="0 0 32 32"
    xmlns="http://www.w3.org/2000/svg">
    <path d="M28 16C28.0001 18.3439 27.3137 20.6364 26.0257 22.5946C24.7377 24.5529 22.9044 26.091 20.7522 27.0192C18.6 27.9474 16.2231 28.225 13.9149 27.8178C11.6067 27.4105 9.46835 26.3362 7.76375 24.7275C7.66821 24.6372 7.5914 24.529 7.53768 24.4091C7.48397 24.2891 7.45441 24.1597 7.45069 24.0283C7.44698 23.8969 7.46918 23.7661 7.51603 23.6433C7.56288 23.5204 7.63347 23.4081 7.72375 23.3125C7.90609 23.1196 8.1576 23.007 8.42297 22.9995C8.55436 22.9958 8.6852 23.018 8.80802 23.0648C8.93083 23.1117 9.04321 23.1822 9.13875 23.2725C10.5684 24.6213 12.3639 25.5189 14.3007 25.853C16.2376 26.1872 18.23 25.9432 20.029 25.1515C21.828 24.3598 23.3538 23.0555 24.4158 21.4016C25.4777 19.7477 26.0287 17.8175 25.9999 15.8523C25.9712 13.887 25.3639 11.9738 24.254 10.3516C23.1441 8.72953 21.5807 7.47046 19.7593 6.73177C17.9379 5.99307 15.9392 5.80751 14.013 6.19825C12.0867 6.589 10.3183 7.53873 8.92875 8.92878C8.4875 9.37503 8.0725 9.81378 7.66875 10.25L9.7075 12.2925C9.84751 12.4324 9.94288 12.6106 9.98153 12.8047C10.0202 12.9988 10.0004 13.2 9.92462 13.3828C9.84887 13.5656 9.72058 13.7219 9.55598 13.8317C9.39139 13.9416 9.1979 14.0002 9 14H4C3.73478 14 3.48043 13.8947 3.29289 13.7071C3.10536 13.5196 3 13.2652 3 13V8.00003C2.99984 7.80213 3.05841 7.60864 3.16828 7.44404C3.27815 7.27945 3.43439 7.15116 3.61721 7.0754C3.80003 6.99965 4.00122 6.97985 4.19531 7.0185C4.38939 7.05715 4.56764 7.15251 4.7075 7.29253L6.25 8.83752C6.6525 8.40127 7.0675 7.96253 7.5075 7.51878C9.18511 5.83831 11.3236 4.69333 13.6522 4.22875C15.9808 3.76417 18.3949 4.00089 20.589 4.90893C22.783 5.81698 24.6583 7.35554 25.9775 9.32986C27.2968 11.3042 28.0006 13.6255 28 16ZM16 9.00003C15.7348 9.00003 15.4804 9.10538 15.2929 9.29292C15.1054 9.48045 15 9.73481 15 10V16C14.9999 16.1727 15.0446 16.3424 15.1296 16.4926C15.2146 16.6429 15.337 16.7686 15.485 16.8575L20.485 19.8575C20.5976 19.9252 20.7224 19.9699 20.8524 19.9893C20.9823 20.0087 21.1147 20.0023 21.2422 19.9705C21.3696 19.9387 21.4896 19.8821 21.5951 19.804C21.7007 19.7258 21.7899 19.6276 21.8575 19.515C21.9251 19.4024 21.9699 19.2776 21.9893 19.1477C22.0087 19.0178 22.0023 18.8853 21.9705 18.7578C21.9387 18.6304 21.8821 18.5105 21.8039 18.4049C21.7258 18.2993 21.6276 18.2102 21.515 18.1425L17 15.4338V10C17 9.73481 16.8946 9.48045 16.7071 9.29292C16.5196 9.10538 16.2652 9.00003 16 9.00003Z" fill="black"/>
</svg>
