<svg viewBox="0 0 32 32"
    xmlns="http://www.w3.org/2000/svg">
    <path d="M20.0075 5C17.9634 5.00032 15.9597 5.56958 14.2207 6.64404C12.4817 7.71851 11.0761 9.25577 10.1613 11.0837C9.40087 12.5992 9.00332 14.2707 9 15.9663C9.00392 16.2239 8.91043 16.4735 8.73823 16.6652C8.56603 16.8568 8.32782 16.9764 8.07125 17C7.93406 17.0098 7.79632 16.9912 7.66665 16.9453C7.53698 16.8995 7.41816 16.8274 7.31762 16.7335C7.21708 16.6397 7.13698 16.5261 7.08233 16.3999C7.02768 16.2737 6.99965 16.1375 7 16C6.99894 14.6013 7.22436 13.2116 7.6675 11.885C7.6967 11.7999 7.70241 11.7086 7.68404 11.6205C7.66566 11.5325 7.62388 11.451 7.5631 11.3848C7.50232 11.3185 7.42478 11.2698 7.33866 11.2439C7.25254 11.218 7.16102 11.2158 7.07375 11.2375C5.34103 11.6694 3.80227 12.6678 2.70185 14.0742C1.60143 15.4805 1.00244 17.2143 1 19C1 23.3988 4.71875 27 9.125 27H20C21.4807 26.9984 22.9459 26.6982 24.3079 26.1173C25.6699 25.5364 26.9007 24.6868 27.9268 23.6193C28.9529 22.5518 29.7531 21.2883 30.2797 19.9044C30.8062 18.5205 31.0482 17.0446 30.9912 15.565C30.7637 9.6925 25.8837 5 20.0075 5Z" />
</svg>
