<svg viewBox="0 0 32 32"
    xmlns="http://www.w3.org/2000/svg">
    <path d="M29.7425 13.4012C29.7146 13.2604 29.6568 13.1272 29.5729 13.0108C29.489 12.8943 29.381 12.7973 29.2562 12.7262L25.5275 10.6012L25.5125 6.39874C25.512 6.254 25.4802 6.11109 25.4191 5.97988C25.358 5.84866 25.2692 5.73227 25.1587 5.63874C23.8062 4.49461 22.2485 3.61782 20.5687 3.05499C20.4365 3.01021 20.2963 2.99364 20.1572 3.00634C20.0181 3.01905 19.8832 3.06074 19.7612 3.12874L16 5.23124L12.235 3.12499C12.1129 3.05661 11.9779 3.0146 11.8386 3.00168C11.6993 2.98876 11.5588 3.00522 11.4262 3.04999C9.74746 3.61643 8.19154 4.49662 6.84124 5.64374C6.73095 5.73713 6.64222 5.85333 6.58115 5.98431C6.52008 6.1153 6.48813 6.25796 6.48749 6.40249L6.46874 10.6087L2.73999 12.7337C2.61525 12.8048 2.50725 12.9018 2.42335 13.0183C2.33944 13.1347 2.2816 13.2679 2.25374 13.4087C1.91249 15.1236 1.91249 16.8889 2.25374 18.6037C2.2816 18.7446 2.33944 18.8777 2.42335 18.9942C2.50725 19.1107 2.61525 19.2077 2.73999 19.2787L6.46874 21.4037L6.48374 25.6075C6.4842 25.7522 6.51606 25.8951 6.57714 26.0263C6.63821 26.1576 6.72704 26.274 6.83749 26.3675C8.19008 27.5116 9.74769 28.3884 11.4275 28.9512C11.5598 28.996 11.7 29.0126 11.8391 28.9999C11.9781 28.9872 12.113 28.9455 12.235 28.8775L16 26.7687L19.765 28.875C19.914 28.958 20.0819 29.0011 20.2525 29C20.3617 28.9999 20.4702 28.9822 20.5737 28.9475C22.2521 28.3813 23.8079 27.502 25.1587 26.3562C25.269 26.2628 25.3578 26.1466 25.4188 26.0157C25.4799 25.8847 25.5119 25.742 25.5125 25.5975L25.5312 21.3912L29.26 19.2662C29.3847 19.1952 29.4927 19.0982 29.5766 18.9817C29.6605 18.8652 29.7184 18.7321 29.7462 18.5912C30.0856 16.8778 30.0843 15.1142 29.7425 13.4012ZM16 21C15.0111 21 14.0444 20.7067 13.2221 20.1573C12.3999 19.6079 11.759 18.827 11.3806 17.9134C11.0022 16.9998 10.9031 15.9944 11.0961 15.0245C11.289 14.0546 11.7652 13.1637 12.4645 12.4645C13.1637 11.7652 14.0546 11.289 15.0245 11.0961C15.9944 10.9031 16.9998 11.0022 17.9134 11.3806C18.827 11.759 19.6079 12.3999 20.1573 13.2221C20.7068 14.0444 21 15.0111 21 16C21 17.3261 20.4732 18.5978 19.5355 19.5355C18.5978 20.4732 17.3261 21 16 21Z" />
</svg>
