<svg viewBox="0 0 32 32"
    xmlns="http://www.w3.org/2000/svg">
    <path d="M30.5 24C30.5 24.3978 30.342 24.7794 30.0607 25.0607C29.7794 25.342 29.3978 25.5 29 25.5H25.5V29C25.5 29.3978 25.342 29.7794 25.0607 30.0607C24.7794 30.342 24.3978 30.5 24 30.5C23.6022 30.5 23.2206 30.342 22.9393 30.0607C22.658 29.7794 22.5 29.3978 22.5 29V25.5H8C7.60218 25.5 7.22064 25.342 6.93934 25.0607C6.65804 24.7794 6.5 24.3978 6.5 24V9.5H3C2.60218 9.5 2.22064 9.34196 1.93934 9.06066C1.65804 8.77936 1.5 8.39782 1.5 8C1.5 7.60218 1.65804 7.22064 1.93934 6.93934C2.22064 6.65804 2.60218 6.5 3 6.5H6.5V3C6.5 2.60218 6.65804 2.22064 6.93934 1.93934C7.22064 1.65804 7.60218 1.5 8 1.5C8.39782 1.5 8.77936 1.65804 9.06066 1.93934C9.34196 2.22064 9.5 2.60218 9.5 3V22.5H29C29.3978 22.5 29.7794 22.658 30.0607 22.9393C30.342 23.2206 30.5 23.6022 30.5 24ZM13 9.5H22.5V19C22.5 19.3978 22.658 19.7794 22.9393 20.0607C23.2206 20.342 23.6022 20.5 24 20.5C24.3978 20.5 24.7794 20.342 25.0607 20.0607C25.342 19.7794 25.5 19.3978 25.5 19V8C25.5 7.60218 25.342 7.22064 25.0607 6.93934C24.7794 6.65804 24.3978 6.5 24 6.5H13C12.6022 6.5 12.2206 6.65804 11.9393 6.93934C11.658 7.22064 11.5 7.60218 11.5 8C11.5 8.39782 11.658 8.77936 11.9393 9.06066C12.2206 9.34196 12.6022 9.5 13 9.5Z" />
</svg>
