<svg viewBox="0 0 32 32"
    xmlns="http://www.w3.org/2000/svg">
    <path d="M26.0613 23.9387C26.343 24.2205 26.5014 24.6027 26.5014 25.0012C26.5014 25.3997 26.343 25.7819 26.0613 26.0637C25.7795 26.3455 25.3973 26.5038 24.9988 26.5038C24.6002 26.5038 24.218 26.3455 23.9363 26.0637L16 18.125L8.06126 26.0612C7.77946 26.343 7.39727 26.5013 6.99876 26.5013C6.60024 26.5013 6.21805 26.343 5.93626 26.0612C5.65446 25.7794 5.49615 25.3972 5.49615 24.9987C5.49615 24.6002 5.65446 24.218 5.93626 23.9362L13.875 16L5.93876 8.06122C5.65696 7.77943 5.49865 7.39724 5.49865 6.99872C5.49865 6.60021 5.65696 6.21802 5.93876 5.93622C6.22055 5.65443 6.60274 5.49612 7.00126 5.49612C7.39977 5.49612 7.78196 5.65443 8.06376 5.93622L16 13.875L23.9388 5.93497C24.2205 5.65318 24.6027 5.49487 25.0013 5.49487C25.3998 5.49487 25.782 5.65318 26.0638 5.93497C26.3455 6.21677 26.5039 6.59896 26.5039 6.99747C26.5039 7.39599 26.3455 7.77818 26.0638 8.05998L18.125 16L26.0613 23.9387Z" />
</svg>
