<svg viewBox="0 0 32 32"
    xmlns="http://www.w3.org/2000/svg">
    <path d="M16 3C13.4288 3 10.9154 3.76244 8.77759 5.1909C6.63975 6.61935 4.97351 8.64968 3.98957 11.0251C3.00563 13.4006 2.74819 16.0144 3.2498 18.5362C3.75141 21.0579 4.98953 23.3743 6.80762 25.1924C8.6257 27.0105 10.9421 28.2486 13.4638 28.7502C15.9856 29.2518 18.5995 28.9944 20.9749 28.0104C23.3503 27.0265 25.3807 25.3603 26.8091 23.2224C28.2376 21.0846 29 18.5712 29 16C28.9964 12.5533 27.6256 9.24882 25.1884 6.81163C22.7512 4.37445 19.4467 3.00364 16 3ZM20.7075 19.2925C20.8004 19.3854 20.8741 19.4957 20.9244 19.6171C20.9747 19.7385 21.0006 19.8686 21.0006 20C21.0006 20.1314 20.9747 20.2615 20.9244 20.3829C20.8741 20.5043 20.8004 20.6146 20.7075 20.7075C20.6146 20.8004 20.5043 20.8741 20.3829 20.9244C20.2615 20.9747 20.1314 21.0006 20 21.0006C19.8686 21.0006 19.7385 20.9747 19.6171 20.9244C19.4957 20.8741 19.3854 20.8004 19.2925 20.7075L16 17.4137L12.7075 20.7075C12.6146 20.8004 12.5043 20.8741 12.3829 20.9244C12.2615 20.9747 12.1314 21.0006 12 21.0006C11.8686 21.0006 11.7385 20.9747 11.6171 20.9244C11.4957 20.8741 11.3854 20.8004 11.2925 20.7075C11.1996 20.6146 11.1259 20.5043 11.0756 20.3829C11.0253 20.2615 10.9994 20.1314 10.9994 20C10.9994 19.8686 11.0253 19.7385 11.0756 19.6171C11.1259 19.4957 11.1996 19.3854 11.2925 19.2925L14.5863 16L11.2925 12.7075C11.1049 12.5199 10.9994 12.2654 10.9994 12C10.9994 11.7346 11.1049 11.4801 11.2925 11.2925C11.4801 11.1049 11.7346 10.9994 12 10.9994C12.2654 10.9994 12.5199 11.1049 12.7075 11.2925L16 14.5863L19.2925 11.2925C19.3854 11.1996 19.4957 11.1259 19.6171 11.0756C19.7385 11.0253 19.8686 10.9994 20 10.9994C20.1314 10.9994 20.2615 11.0253 20.3829 11.0756C20.5043 11.1259 20.6146 11.1996 20.7075 11.2925C20.8004 11.3854 20.8741 11.4957 20.9244 11.6171C20.9747 11.7385 21.0006 11.8686 21.0006 12C21.0006 12.1314 20.9747 12.2615 20.9244 12.3829C20.8741 12.5043 20.8004 12.6146 20.7075 12.7075L17.4138 16L20.7075 19.2925Z" />
</svg>
