<svg width="32" height="32" viewBox="0 0 32 32" fill="none" xmlns="http://www.w3.org/2000/svg">
<rect x="0.5" y="4.5" width="31" height="23" rx="3.5" fill="#EAF5FF"/>
<rect x="0.5" y="4.5" width="31" height="23" rx="3.5" stroke="#B8E1FF"/>
<path d="M14.75 11.75C14.75 11.9478 14.6914 12.1411 14.5815 12.3056C14.4716 12.47 14.3154 12.5982 14.1327 12.6739C13.95 12.7496 13.7489 12.7694 13.5549 12.7308C13.3609 12.6922 13.1827 12.597 13.0429 12.4571C12.903 12.3173 12.8078 12.1391 12.7692 11.9451C12.7306 11.7511 12.7504 11.55 12.8261 11.3673C12.9018 11.1846 13.03 11.0284 13.1944 10.9185C13.3589 10.8086 13.5522 10.75 13.75 10.75C14.0152 10.75 14.2696 10.8554 14.4571 11.0429C14.6446 11.2304 14.75 11.4848 14.75 11.75ZM18.25 12.75C18.4478 12.75 18.6411 12.6914 18.8056 12.5815C18.97 12.4716 19.0982 12.3154 19.1739 12.1327C19.2496 11.95 19.2694 11.7489 19.2308 11.5549C19.1922 11.3609 19.097 11.1827 18.9571 11.0429C18.8173 10.903 18.6391 10.8078 18.4451 10.7692C18.2511 10.7306 18.05 10.7504 17.8673 10.8261C17.6846 10.9018 17.5284 11.03 17.4185 11.1944C17.3086 11.3589 17.25 11.5522 17.25 11.75C17.25 12.0152 17.3554 12.2696 17.5429 12.4571C17.7304 12.6446 17.9848 12.75 18.25 12.75ZM13.75 15C13.5522 15 13.3589 15.0586 13.1944 15.1685C13.03 15.2784 12.9018 15.4346 12.8261 15.6173C12.7504 15.8 12.7306 16.0011 12.7692 16.1951C12.8078 16.3891 12.903 16.5673 13.0429 16.7071C13.1827 16.847 13.3609 16.9422 13.5549 16.9808C13.7489 17.0194 13.95 16.9996 14.1327 16.9239C14.3154 16.8482 14.4716 16.72 14.5815 16.5556C14.6914 16.3911 14.75 16.1978 14.75 16C14.75 15.7348 14.6446 15.4804 14.4571 15.2929C14.2696 15.1054 14.0152 15 13.75 15ZM18.25 15C18.0522 15 17.8589 15.0586 17.6944 15.1685C17.53 15.2784 17.4018 15.4346 17.3261 15.6173C17.2504 15.8 17.2306 16.0011 17.2692 16.1951C17.3078 16.3891 17.403 16.5673 17.5429 16.7071C17.6827 16.847 17.8609 16.9422 18.0549 16.9808C18.2489 17.0194 18.45 16.9996 18.6327 16.9239C18.8154 16.8482 18.9716 16.72 19.0815 16.5556C19.1914 16.3911 19.25 16.1978 19.25 16C19.25 15.7348 19.1446 15.4804 18.9571 15.2929C18.7696 15.1054 18.5152 15 18.25 15ZM13.75 19.25C13.5522 19.25 13.3589 19.3086 13.1944 19.4185C13.03 19.5284 12.9018 19.6846 12.8261 19.8673C12.7504 20.05 12.7306 20.2511 12.7692 20.4451C12.8078 20.6391 12.903 20.8173 13.0429 20.9571C13.1827 21.097 13.3609 21.1922 13.5549 21.2308C13.7489 21.2694 13.95 21.2496 14.1327 21.1739C14.3154 21.0982 14.4716 20.97 14.5815 20.8056C14.6914 20.6411 14.75 20.4478 14.75 20.25C14.75 19.9848 14.6446 19.7304 14.4571 19.5429C14.2696 19.3554 14.0152 19.25 13.75 19.25ZM18.25 19.25C18.0522 19.25 17.8589 19.3086 17.6944 19.4185C17.53 19.5284 17.4018 19.6846 17.3261 19.8673C17.2504 20.05 17.2306 20.2511 17.2692 20.4451C17.3078 20.6391 17.403 20.8173 17.5429 20.9571C17.6827 21.097 17.8609 21.1922 18.0549 21.2308C18.2489 21.2694 18.45 21.2496 18.6327 21.1739C18.8154 21.0982 18.9716 20.97 19.0815 20.8056C19.1914 20.6411 19.25 20.4478 19.25 20.25C19.25 19.9848 19.1446 19.7304 18.9571 19.5429C18.7696 19.3554 18.5152 19.25 18.25 19.25Z" fill="#0C75AF"/>
</svg>
