<svg width="32" height="32" viewBox="0 0 32 32" fill="none" xmlns="http://www.w3.org/2000/svg">
<rect x="0.5" y="4.5" width="31" height="23" rx="3.5" fill="#FCECEA"/>
<rect x="0.5" y="4.5" width="31" height="23" rx="3.5" stroke="#F5C0B8"/>
<path d="M8.68018 20V13.7803H8.5835L6.68213 15.1016V13.6406L8.68555 12.2495H10.3022V20H8.68018ZM12.4131 20V18.9097L14.9106 16.4443C16.001 15.3862 16.2964 14.9941 16.2964 14.4517V14.4355C16.2964 13.7749 15.8452 13.313 15.104 13.313C14.3467 13.313 13.8257 13.8179 13.8257 14.5537V14.5806H12.3271L12.3218 14.5591C12.3218 13.0713 13.4819 12.0508 15.1792 12.0508C16.7744 12.0508 17.8916 12.9639 17.8916 14.3013V14.3174C17.8916 15.1982 17.4351 15.9287 16.0225 17.2339L14.5884 18.5713V18.6948H18.0044V20H12.4131ZM22.3872 20.1719C20.6362 20.1719 19.4814 19.2319 19.374 17.8462L19.3687 17.7764H20.9209L20.9263 17.8354C20.9961 18.437 21.5493 18.8667 22.3872 18.8667C23.2144 18.8667 23.7568 18.4048 23.7568 17.7495V17.7388C23.7568 16.9976 23.2036 16.5894 22.2637 16.5894H21.3774V15.4346H22.2422C23.0586 15.4346 23.585 15.0049 23.585 14.3765V14.3657C23.585 13.7212 23.1392 13.3237 22.3765 13.3237C21.6138 13.3237 21.1035 13.7373 21.0391 14.3818L21.0337 14.4302H19.5405L19.5459 14.3657C19.6587 12.98 20.749 12.0776 22.3765 12.0776C24.0415 12.0776 25.1157 12.9155 25.1157 14.1509V14.1616C25.1157 15.1284 24.4067 15.7568 23.499 15.9448V15.9771C24.6538 16.0845 25.4058 16.7505 25.4058 17.8032V17.814C25.4058 19.2212 24.1973 20.1719 22.3872 20.1719Z" fill="#D02B20"/>
</svg>
