<svg width="32" height="32" viewBox="0 0 32 32" fill="none" xmlns="http://www.w3.org/2000/svg">
<rect x="0.5" y="4.5" width="31" height="23" rx="3.5" fill="#EAFBE7"/>
<rect x="0.5" y="4.5" width="31" height="23" rx="3.5" stroke="#C6F0C2"/>
<path d="M19 11.5H13C11.8065 11.5 10.6619 11.9741 9.81802 12.818C8.97411 13.6619 8.5 14.8065 8.5 16C8.5 17.1935 8.97411 18.3381 9.81802 19.182C10.6619 20.0259 11.8065 20.5 13 20.5H19C20.1935 20.5 21.3381 20.0259 22.182 19.182C23.0259 18.3381 23.5 17.1935 23.5 16C23.5 14.8065 23.0259 13.6619 22.182 12.818C21.3381 11.9741 20.1935 11.5 19 11.5ZM19 18.5C18.5055 18.5 18.0222 18.3534 17.6111 18.0787C17.2 17.804 16.8795 17.4135 16.6903 16.9567C16.5011 16.4999 16.4516 15.9972 16.548 15.5123C16.6445 15.0273 16.8826 14.5819 17.2322 14.2322C17.5819 13.8826 18.0273 13.6445 18.5123 13.548C18.9972 13.4516 19.4999 13.5011 19.9567 13.6903C20.4135 13.8795 20.804 14.2 21.0787 14.6111C21.3534 15.0222 21.5 15.5055 21.5 16C21.5 16.663 21.2366 17.2989 20.7678 17.7678C20.2989 18.2366 19.663 18.5 19 18.5Z" fill="#328048"/>
</svg>
