<svg width="32" height="32" viewBox="0 0 32 32" fill="none" xmlns="http://www.w3.org/2000/svg">
<rect x="0.5" y="4.5" width="31" height="23" rx="3.5" fill="#F0F0FF"/>
<rect x="0.5" y="4.5" width="31" height="23" rx="3.5" stroke="#D9D8FF"/>
<path d="M18 9C17.2108 9.00071 16.433 9.18805 15.73 9.54673C15.0271 9.9054 14.4189 10.4252 13.9552 11.0638C13.4915 11.7024 13.1853 12.4416 13.0618 13.221C12.9383 14.0005 13.0008 14.7981 13.2444 15.5487L9.64625 19.1462C9.59983 19.1927 9.56303 19.2479 9.53793 19.3086C9.51284 19.3693 9.49995 19.4343 9.5 19.5V22C9.5 22.1326 9.55268 22.2598 9.64645 22.3536C9.74021 22.4473 9.86739 22.5 10 22.5H12.5C12.6326 22.5 12.7598 22.4473 12.8536 22.3536C12.9473 22.2598 13 22.1326 13 22V21H14C14.1326 21 14.2598 20.9473 14.3536 20.8536C14.4473 20.7598 14.5 20.6326 14.5 20.5V19.5H15.5C15.5657 19.5001 15.6307 19.4872 15.6914 19.4621C15.7521 19.437 15.8073 19.4002 15.8538 19.3538L16.4513 18.7556C17.1385 18.9787 17.8658 19.0503 18.5833 18.9653C19.3008 18.8803 19.9914 18.6408 20.6075 18.2634C21.2235 17.8859 21.7505 17.3794 22.152 16.7787C22.5536 16.1781 22.8201 15.4975 22.9334 14.784C23.0467 14.0704 23.004 13.3407 22.8082 12.6452C22.6125 11.9497 22.2683 11.305 21.7994 10.7552C21.3305 10.2055 20.7481 9.76397 20.0922 9.46096C19.4363 9.15794 18.7225 9.00068 18 9ZM19.25 13.75C19.0522 13.75 18.8589 13.6914 18.6944 13.5815C18.53 13.4716 18.4018 13.3154 18.3261 13.1327C18.2504 12.95 18.2306 12.7489 18.2692 12.5549C18.3078 12.3609 18.403 12.1827 18.5429 12.0429C18.6827 11.903 18.8609 11.8078 19.0549 11.7692C19.2489 11.7306 19.45 11.7504 19.6327 11.8261C19.8154 11.9018 19.9716 12.03 20.0815 12.1944C20.1914 12.3589 20.25 12.5522 20.25 12.75C20.25 13.0152 20.1446 13.2696 19.9571 13.4571C19.7696 13.6446 19.5152 13.75 19.25 13.75Z" fill="#4945FF"/>
</svg>
