<svg width="24" height="24" viewBox="0 0 24 24" fill="none" xmlns="http://www.w3.org/2000/svg">
<path fill-rule="evenodd" clip-rule="evenodd" d="M3.60003 14C4.92552 14 6.00005 12.9255 6.00005 11.6C6.00005 10.2745 4.92552 9.20001 3.60003 9.20001C2.27454 9.20001 1.20001 10.2745 1.20001 11.6C1.20001 12.9255 2.27454 14 3.60003 14ZM3.60003 15.2001C5.58827 15.2001 7.20006 13.5883 7.20006 11.6C7.20006 9.61179 5.58827 8 3.60003 8C1.61179 8 0 9.61179 0 11.6C0 13.5883 1.61179 15.2001 3.60003 15.2001Z" fill="#212134"/>
<path fill-rule="evenodd" clip-rule="evenodd" d="M20.3996 14C21.7251 14 22.7996 12.9255 22.7996 11.6C22.7996 10.2745 21.7251 9.20001 20.3996 9.20001C19.0741 9.20001 17.9996 10.2745 17.9996 11.6C17.9996 12.9255 19.0741 14 20.3996 14ZM20.3996 15.2001C22.3879 15.2001 23.9996 13.5883 23.9996 11.6C23.9996 9.61179 22.3879 8 20.3996 8C18.4114 8 16.7996 9.61179 16.7996 11.6C16.7996 13.5883 18.4114 15.2001 20.3996 15.2001Z" fill="#212134"/>
<path d="M6.2402 10.8811H18.0003V12.3211H6.2402V10.8811Z" fill="#212134"/>
</svg>
