<svg width="32" height="32" viewBox="0 0 32 32" fill="none" xmlns="http://www.w3.org/2000/svg">
<rect x="0.5" y="4.5" width="31" height="23" rx="3.5" fill="#EAFBE7"/>
<rect x="0.5" y="4.5" width="31" height="23" rx="3.5" stroke="#C6F0C2"/>
<path d="M13.6787 11.1806C13.6181 11.0517 13.5221 10.9428 13.4019 10.8665C13.2818 10.7902 13.1423 10.7496 12.9999 10.7496C12.8576 10.7496 12.7181 10.7902 12.5979 10.8665C12.4778 10.9428 12.3818 11.0517 12.3212 11.1806L8.3212 19.6806C8.24112 19.8598 8.23453 20.0633 8.30284 20.2474C8.37115 20.4315 8.50891 20.5814 8.68654 20.665C8.86418 20.7487 9.06752 20.7593 9.2529 20.6947C9.43829 20.63 9.59094 20.4953 9.67807 20.3193L10.6524 18.25H15.3474L16.3212 20.3193C16.4059 20.4993 16.5586 20.6383 16.7458 20.7057C16.933 20.7731 17.1393 20.7634 17.3193 20.6787C17.4993 20.594 17.6383 20.4413 17.7057 20.2541C17.7731 20.0669 17.7634 19.8606 17.6787 19.6806L13.6787 11.1806ZM11.3587 16.75L12.9999 13.2612L14.6418 16.75H11.3587ZM20.4999 13.75C19.6343 13.75 18.9518 13.9912 18.4718 14.4675C18.3963 14.5354 18.3355 14.6181 18.2929 14.7103C18.2503 14.8026 18.2269 14.9025 18.2241 15.004C18.2213 15.1056 18.2392 15.2067 18.2766 15.3011C18.3141 15.3955 18.3703 15.4814 18.4419 15.5534C18.5136 15.6255 18.5991 15.6822 18.6933 15.7202C18.7875 15.7582 18.8885 15.7767 18.99 15.7745C19.0916 15.7723 19.1917 15.7495 19.2842 15.7075C19.3766 15.6654 19.4596 15.605 19.5281 15.53C19.7156 15.3425 20.0443 15.2474 20.4999 15.2474C21.0837 15.2474 21.5743 15.57 21.7106 16.0037C21.3294 15.8347 20.9169 15.7483 20.4999 15.75C18.9837 15.75 17.7499 16.8712 17.7499 18.25C17.7499 19.6287 18.9837 20.75 20.4999 20.75C20.9788 20.7512 21.4507 20.6358 21.8749 20.4137C21.964 20.5479 22.0938 20.6499 22.2453 20.7046C22.3968 20.7592 22.5618 20.7637 22.7161 20.7173C22.8703 20.6709 23.0055 20.5761 23.1016 20.4469C23.1978 20.3177 23.2498 20.161 23.2499 20V16.25C23.2499 14.8712 22.0162 13.75 20.4999 13.75ZM20.4999 19.25C19.8124 19.25 19.2499 18.8012 19.2499 18.25C19.2499 17.6987 19.8124 17.25 20.4999 17.25C21.1874 17.25 21.7499 17.6987 21.7499 18.25C21.7499 18.8012 21.1874 19.25 20.4999 19.25Z" fill="#328048"/>
</svg>
