<svg width="32" height="32" viewBox="0 0 32 32" fill="none" xmlns="http://www.w3.org/2000/svg">
<rect x="0.5" y="4.5" width="31" height="23" rx="3.5" fill="#FDF4DC"/>
<rect x="0.5" y="4.5" width="31" height="23" rx="3.5" stroke="#FAE7B9"/>
<path d="M21 13H19V11.5C19 10.7044 18.6839 9.94129 18.1213 9.37868C17.5587 8.81607 16.7956 8.5 16 8.5C15.2044 8.5 14.4413 8.81607 13.8787 9.37868C13.3161 9.94129 13 10.7044 13 11.5V13H11C10.7348 13 10.4804 13.1054 10.2929 13.2929C10.1054 13.4804 10 13.7348 10 14V21C10 21.2652 10.1054 21.5196 10.2929 21.7071C10.4804 21.8946 10.7348 22 11 22H21C21.2652 22 21.5196 21.8946 21.7071 21.7071C21.8946 21.5196 22 21.2652 22 21V14C22 13.7348 21.8946 13.4804 21.7071 13.2929C21.5196 13.1054 21.2652 13 21 13ZM16 18.25C15.8517 18.25 15.7067 18.206 15.5833 18.1236C15.46 18.0412 15.3639 17.9241 15.3071 17.787C15.2503 17.65 15.2355 17.4992 15.2644 17.3537C15.2933 17.2082 15.3648 17.0746 15.4697 16.9697C15.5746 16.8648 15.7082 16.7934 15.8537 16.7644C15.9992 16.7355 16.15 16.7503 16.287 16.8071C16.4241 16.8639 16.5412 16.96 16.6236 17.0833C16.706 17.2067 16.75 17.3517 16.75 17.5C16.75 17.6989 16.671 17.8897 16.5303 18.0303C16.3897 18.171 16.1989 18.25 16 18.25ZM18 13H14V11.5C14 10.9696 14.2107 10.4609 14.5858 10.0858C14.9609 9.71071 15.4696 9.5 16 9.5C16.5304 9.5 17.0391 9.71071 17.4142 10.0858C17.7893 10.4609 18 10.9696 18 11.5V13Z" fill="#D9822F"/>
</svg>
