<svg width="32" height="24" viewBox="0 0 32 24" fill="none" xmlns="http://www.w3.org/2000/svg">
<path d="M0.5 3C0.5 1.61929 1.61929 0.5 3 0.5H29C30.3807 0.5 31.5 1.61929 31.5 3V21C31.5 22.3807 30.3807 23.5 29 23.5H3C1.61929 23.5 0.5 22.3807 0.5 21V3Z" fill="#FDF4DC" stroke="#FAE7B9"/>
<path fill-rule="evenodd" clip-rule="evenodd" d="M11.9343 7.49537V6H13.3841V7.49537H18.6157V6H20.0655V7.49537H20.3804C21.7647 7.49537 21.9821 7.74383 22 8.95818V16.5003C22 17.562 21.9044 18 20.5991 18H11.4091C10.1037 18 10 17.6817 10 16.3927V9.10516C10.0175 8.08049 10.1167 7.49536 11.5006 7.49536L11.9343 7.49537ZM11.1602 16.1821C11.1602 16.5877 11.2825 16.6147 11.5481 16.6147H20.5007C20.7658 16.6147 20.8402 16.6084 20.8402 16.2021V10.1148C20.8328 9.80121 20.7311 9.74609 20.5249 9.74609H11.4534C11.247 9.74609 11.1574 9.79141 11.1602 10.0327L11.1602 16.1821Z" fill="#D9822F"/>
</svg>
