<svg width="32" height="32" viewBox="0 0 32 32" fill="none" xmlns="http://www.w3.org/2000/svg">
<rect x="0.5" y="4.5" width="31" height="23" rx="3.5" fill="#FDF4DC"/>
<rect x="0.5" y="4.5" width="31" height="23" rx="3.5" stroke="#FAE7B9"/>
<path d="M21 10H19.5V9.5C19.5 9.36739 19.4473 9.24021 19.3536 9.14645C19.2598 9.05268 19.1326 9 19 9C18.8674 9 18.7402 9.05268 18.6464 9.14645C18.5527 9.24021 18.5 9.36739 18.5 9.5V10H13.5V9.5C13.5 9.36739 13.4473 9.24021 13.3536 9.14645C13.2598 9.05268 13.1326 9 13 9C12.8674 9 12.7402 9.05268 12.6464 9.14645C12.5527 9.24021 12.5 9.36739 12.5 9.5V10H11C10.7348 10 10.4804 10.1054 10.2929 10.2929C10.1054 10.4804 10 10.7348 10 11V21C10 21.2652 10.1054 21.5196 10.2929 21.7071C10.4804 21.8946 10.7348 22 11 22H21C21.2652 22 21.5196 21.8946 21.7071 21.7071C21.8946 21.5196 22 21.2652 22 21V11C22 10.7348 21.8946 10.4804 21.7071 10.2929C21.5196 10.1054 21.2652 10 21 10ZM21 13H11V11H12.5V11.5C12.5 11.6326 12.5527 11.7598 12.6464 11.8536C12.7402 11.9473 12.8674 12 13 12C13.1326 12 13.2598 11.9473 13.3536 11.8536C13.4473 11.7598 13.5 11.6326 13.5 11.5V11H18.5V11.5C18.5 11.6326 18.5527 11.7598 18.6464 11.8536C18.7402 11.9473 18.8674 12 19 12C19.1326 12 19.2598 11.9473 19.3536 11.8536C19.4473 11.7598 19.5 11.6326 19.5 11.5V11H21V13Z" fill="#D9822F"/>
</svg>
