<svg width="32" height="32" viewBox="0 0 32 32" fill="none" xmlns="http://www.w3.org/2000/svg">
<rect x="0.5" y="4.5" width="31" height="23" rx="3.5" fill="#F0F0FF"/>
<rect x="0.5" y="4.5" width="31" height="23" rx="3.5" stroke="#D9D8FF"/>
<path d="M16.5231 19.7207C16.593 19.7903 16.6485 19.8731 16.6864 19.9643C16.7242 20.0555 16.7437 20.1532 16.7437 20.2519C16.7437 20.3506 16.7242 20.4484 16.6864 20.5395C16.6485 20.6307 16.593 20.7135 16.5231 20.7832L16.1519 21.1544C15.4484 21.8579 14.4943 22.2531 13.4994 22.2531C12.5045 22.2531 11.5504 21.8579 10.8469 21.1544C10.1434 20.4509 9.74817 19.4968 9.74817 18.5019C9.74817 17.507 10.1434 16.5529 10.8469 15.8494L12.3544 14.3425C13.0303 13.6649 13.9397 13.2714 14.8964 13.2426C15.853 13.2138 16.7845 13.5518 17.5 14.1875C17.5739 14.2532 17.6341 14.3328 17.6772 14.4217C17.7203 14.5106 17.7455 14.6072 17.7513 14.7058C17.7571 14.8045 17.7434 14.9033 17.711 14.9967C17.6786 15.0901 17.6282 15.1762 17.5625 15.25C17.4968 15.3239 17.4173 15.3841 17.3283 15.4272C17.2394 15.4703 17.1429 15.4955 17.0442 15.5013C16.9455 15.5071 16.8467 15.4934 16.7533 15.4611C16.6599 15.4287 16.5739 15.3782 16.5 15.3125C16.0709 14.9315 15.5125 14.7288 14.9389 14.7458C14.3654 14.7629 13.82 14.9985 13.4144 15.4044L11.9081 16.9094C11.4861 17.3314 11.249 17.9038 11.249 18.5007C11.249 19.0975 11.4861 19.6699 11.9081 20.0919C12.3301 20.5139 12.9025 20.751 13.4994 20.751C14.0962 20.751 14.6686 20.5139 15.0906 20.0919L15.4619 19.7207C15.5315 19.6509 15.6142 19.5956 15.7053 19.5579C15.7963 19.5201 15.8939 19.5007 15.9925 19.5007C16.0911 19.5007 16.1887 19.5201 16.2797 19.5579C16.3707 19.5956 16.4535 19.6509 16.5231 19.7207ZM21.1531 10.8457C20.4491 10.1432 19.4951 9.74878 18.5006 9.74878C17.5061 9.74878 16.5522 10.1432 15.8481 10.8457L15.4769 11.2169C15.336 11.3578 15.2568 11.5489 15.2568 11.7482C15.2568 11.9474 15.336 12.1385 15.4769 12.2794C15.6178 12.4203 15.8089 12.4995 16.0081 12.4995C16.2074 12.4995 16.3985 12.4203 16.5394 12.2794L16.9106 11.9082C17.3326 11.4861 17.905 11.249 18.5019 11.249C19.0987 11.249 19.6711 11.4861 20.0931 11.9082C20.5151 12.3302 20.7522 12.9026 20.7522 13.4994C20.7522 14.0962 20.5151 14.6686 20.0931 15.0907L18.5862 16.5982C18.1803 17.0039 17.6346 17.2391 17.0609 17.2557C16.4871 17.2724 15.9288 17.0691 15.5 16.6875C15.4261 16.6219 15.34 16.5714 15.2467 16.539C15.1533 16.5066 15.0545 16.4929 14.9558 16.4987C14.8571 16.5045 14.7606 16.5297 14.6717 16.5728C14.5827 16.6159 14.5032 16.6762 14.4375 16.75C14.3718 16.8239 14.3214 16.91 14.289 17.0033C14.2566 17.0967 14.2429 17.1956 14.2487 17.2942C14.2545 17.3929 14.2797 17.4894 14.3228 17.5784C14.3659 17.6673 14.4261 17.7469 14.5 17.8125C15.215 18.4481 16.1458 18.7863 17.102 18.7581C18.0582 18.7299 18.9675 18.3373 19.6437 17.6607L21.1512 16.1538C21.8545 15.4499 22.2496 14.4957 22.25 13.5007C22.2503 12.5057 21.8558 11.5513 21.1531 10.8469V10.8457Z" fill="#4945FF"/>
</svg>
