<svg width="32" height="24" viewBox="0 0 32 24" fill="none" xmlns="http://www.w3.org/2000/svg">
<rect x="0.5" y="0.5" width="31" height="23" rx="2.5" fill="#F6F6F9" stroke="#DCDCE4"/>
<path fill-rule="evenodd" clip-rule="evenodd" d="M13.5351 8.76754C13.5351 8.88358 13.5239 8.997 13.5026 9.10679L16.516 10.8825L19.5008 9.1237C19.4773 9.00866 19.4649 8.88954 19.4649 8.76754C19.4649 7.79136 20.2563 7 21.2325 7C22.2086 7 23 7.79136 23 8.76754C23 9.74373 22.2086 10.5351 21.2325 10.5351C20.7629 10.5351 20.336 10.352 20.0195 10.0532L17.0383 11.8099V14.287C17.7216 14.5313 18.2105 15.1844 18.2105 15.9518C18.2105 16.9279 17.4192 17.7193 16.443 17.7193C15.4668 17.7193 14.6754 16.9279 14.6754 15.9518C14.6754 15.1321 15.2334 14.4427 15.9902 14.2427V11.8078L12.9928 10.0415C12.675 10.3472 12.2432 10.5351 11.7675 10.5351C10.7914 10.5351 10 9.74373 10 8.76754C10 7.79136 10.7914 7 11.7675 7C12.7437 7 13.5351 7.79136 13.5351 8.76754Z" fill="#666687"/>
<path d="M13.5026 9.10679L13.4535 9.09725L13.4467 9.13193L13.4772 9.14987L13.5026 9.10679ZM16.516 10.8825L16.4907 10.9255L16.516 10.9405L16.5414 10.9255L16.516 10.8825ZM19.5008 9.1237L19.5262 9.16678L19.557 9.14866L19.5498 9.11368L19.5008 9.1237ZM20.0195 10.0532L20.0538 10.0168L20.0265 9.99105L19.9941 10.0101L20.0195 10.0532ZM17.0383 11.8099L17.0129 11.7668L16.9883 11.7813V11.8099H17.0383ZM17.0383 14.287H16.9883V14.3222L17.0215 14.334L17.0383 14.287ZM15.9902 14.2427L16.003 14.2911L16.0402 14.2812V14.2427H15.9902ZM15.9902 11.8078H16.0402V11.7792L16.0156 11.7647L15.9902 11.8078ZM12.9928 10.0415L13.0182 9.99845L12.9855 9.97919L12.9581 10.0055L12.9928 10.0415ZM13.5516 9.11633C13.5736 9.00341 13.5851 8.8868 13.5851 8.76754H13.4851C13.4851 8.88036 13.4742 8.99059 13.4535 9.09725L13.5516 9.11633ZM16.5414 10.8394L13.5279 9.06371L13.4772 9.14987L16.4907 10.9255L16.5414 10.8394ZM19.4754 9.08062L16.4907 10.8394L16.5414 10.9255L19.5262 9.16678L19.4754 9.08062ZM19.4149 8.76754C19.4149 8.89293 19.4276 9.0154 19.4518 9.13372L19.5498 9.11368C19.5269 9.00192 19.5149 8.88616 19.5149 8.76754H19.4149ZM21.2325 6.95C20.2287 6.95 19.4149 7.76374 19.4149 8.76754H19.5149C19.5149 7.81897 20.2839 7.05 21.2325 7.05V6.95ZM23.05 8.76754C23.05 7.76374 22.2363 6.95 21.2325 6.95V7.05C22.181 7.05 22.95 7.81897 22.95 8.76754H23.05ZM21.2325 10.5851C22.2363 10.5851 23.05 9.77135 23.05 8.76754H22.95C22.95 9.71612 22.181 10.4851 21.2325 10.4851V10.5851ZM19.9852 10.0896C20.3106 10.3967 20.7496 10.5851 21.2325 10.5851V10.4851C20.7761 10.4851 20.3614 10.3072 20.0538 10.0168L19.9852 10.0896ZM17.0637 11.8529L20.0449 10.0963L19.9941 10.0101L17.0129 11.7668L17.0637 11.8529ZM17.0883 14.287V11.8099H16.9883V14.287H17.0883ZM17.0215 14.334C17.6855 14.5715 18.1605 15.2062 18.1605 15.9518H18.2605C18.2605 15.1627 17.7577 14.4911 17.0551 14.2399L17.0215 14.334ZM18.1605 15.9518C18.1605 16.9003 17.3916 17.6693 16.443 17.6693V17.7693C17.4468 17.7693 18.2605 16.9556 18.2605 15.9518H18.1605ZM16.443 17.6693C15.4944 17.6693 14.7254 16.9003 14.7254 15.9518H14.6254C14.6254 16.9556 15.4392 17.7693 16.443 17.7693V17.6693ZM14.7254 15.9518C14.7254 15.1553 15.2676 14.4854 16.003 14.2911L15.9775 14.1944C15.1992 14.4 14.6254 15.1088 14.6254 15.9518H14.7254ZM15.9402 11.8078V14.2427H16.0402V11.8078H15.9402ZM12.9674 10.0846L15.9649 11.8508L16.0156 11.7647L13.0182 9.99845L12.9674 10.0846ZM11.7675 10.5851C12.2567 10.5851 12.7008 10.3918 13.0274 10.0776L12.9581 10.0055C12.6493 10.3025 12.2298 10.4851 11.7675 10.4851V10.5851ZM9.95 8.76754C9.95 9.77135 10.7637 10.5851 11.7675 10.5851V10.4851C10.819 10.4851 10.05 9.71612 10.05 8.76754H9.95ZM11.7675 6.95C10.7637 6.95 9.95 7.76374 9.95 8.76754H10.05C10.05 7.81897 10.819 7.05 11.7675 7.05V6.95ZM13.5851 8.76754C13.5851 7.76374 12.7713 6.95 11.7675 6.95V7.05C12.7161 7.05 13.4851 7.81897 13.4851 8.76754H13.5851Z" fill="#666687"/>
</svg>
