<svg width="32" height="32" viewBox="0 0 32 32" fill="none" xmlns="http://www.w3.org/2000/svg">
<rect x="0.5" y="4.5" width="31" height="23" rx="3.5" fill="#EAF5FF"/>
<rect x="0.5" y="4.5" width="31" height="23" rx="3.5" stroke="#B8E1FF"/>
<path d="M9.75 12C9.75 11.8011 9.82902 11.6103 9.96967 11.4697C10.1103 11.329 10.3011 11.25 10.5 11.25H21.5C21.6989 11.25 21.8897 11.329 22.0303 11.4697C22.171 11.6103 22.25 11.8011 22.25 12C22.25 12.1989 22.171 12.3897 22.0303 12.5303C21.8897 12.671 21.6989 12.75 21.5 12.75H10.5C10.3011 12.75 10.1103 12.671 9.96967 12.5303C9.82902 12.3897 9.75 12.1989 9.75 12ZM10.5 15.25H18.5C18.6989 15.25 18.8897 15.171 19.0303 15.0303C19.171 14.8897 19.25 14.6989 19.25 14.5C19.25 14.3011 19.171 14.1103 19.0303 13.9697C18.8897 13.829 18.6989 13.75 18.5 13.75H10.5C10.3011 13.75 10.1103 13.829 9.96967 13.9697C9.82902 14.1103 9.75 14.3011 9.75 14.5C9.75 14.6989 9.82902 14.8897 9.96967 15.0303C10.1103 15.171 10.3011 15.25 10.5 15.25ZM21.5 16.25H10.5C10.3011 16.25 10.1103 16.329 9.96967 16.4697C9.82902 16.6103 9.75 16.8011 9.75 17C9.75 17.1989 9.82902 17.3897 9.96967 17.5303C10.1103 17.671 10.3011 17.75 10.5 17.75H21.5C21.6989 17.75 21.8897 17.671 22.0303 17.5303C22.171 17.3897 22.25 17.1989 22.25 17C22.25 16.8011 22.171 16.6103 22.0303 16.4697C21.8897 16.329 21.6989 16.25 21.5 16.25ZM18.5 18.75H10.5C10.3011 18.75 10.1103 18.829 9.96967 18.9697C9.82902 19.1103 9.75 19.3011 9.75 19.5C9.75 19.6989 9.82902 19.8897 9.96967 20.0303C10.1103 20.171 10.3011 20.25 10.5 20.25H18.5C18.6989 20.25 18.8897 20.171 19.0303 20.0303C19.171 19.8897 19.25 19.6989 19.25 19.5C19.25 19.3011 19.171 19.1103 19.0303 18.9697C18.8897 18.829 18.6989 18.75 18.5 18.75Z" fill="#0C75AF"/>
</svg>
