<svg width="32" height="24" viewBox="0 0 32 24" fill="none" xmlns="http://www.w3.org/2000/svg">
<rect x="0.5" y="0.5" width="31" height="23" rx="2.5" fill="#F6ECFC" stroke="#E0C1F4"/>
<path fill-rule="evenodd" clip-rule="evenodd" d="M22 8.75856C22 7.65399 21.1046 6.75836 20 6.75836H16H12C10.8954 6.75836 10 7.66074 10 8.76531C10 13.4045 10 10.0834 10 10.0834L10 14.8334C10 15.5675 10.3957 16.2093 10.9854 16.5572L14.6458 12.8168L17.9552 16.1985L19.426 14.6956L21.1573 16.4646C21.6673 16.1022 22 15.5066 22 14.8334V9.77711V8.75856ZM18.5 9.00006C17.66 9.00006 17 9.66006 17 10.5001C17 11.3401 17.66 12.0001 18.5 12.0001C19.34 12.0001 20 11.3401 20 10.5001C20 9.66006 19.34 9.00006 18.5 9.00006Z" fill="#9736E8"/>
</svg>
