<svg width="32" height="24" viewBox="0 0 32 24" fill="none" xmlns="http://www.w3.org/2000/svg">
<rect x="0.5" y="0.5" width="31" height="23" rx="2.5" fill="#EAFBE7" stroke="#C6F0C2"/>
<path d="M19.5 7H12.5C10.0187 7 8 9.01875 8 11.5C8 13.9812 10.0187 16 12.5 16H19.5C21.9812 16 24 13.9812 24 11.5C24 9.01875 21.9812 7 19.5 7ZM19.5 15C18.8078 15 18.1311 14.7947 17.5555 14.4101C16.9799 14.0256 16.5313 13.4789 16.2664 12.8394C16.0015 12.1999 15.9322 11.4961 16.0673 10.8172C16.2023 10.1383 16.5356 9.51461 17.0251 9.02513C17.5146 8.53564 18.1383 8.2023 18.8172 8.06725C19.4961 7.9322 20.1999 8.00152 20.8394 8.26642C21.4789 8.53133 22.0256 8.97993 22.4101 9.5555C22.7947 10.1311 23 10.8078 23 11.5C22.999 12.428 22.6299 13.3176 21.9738 13.9738C21.3176 14.6299 20.428 14.999 19.5 15Z" fill="#328048"/>
</svg>
