<svg width="32" height="32" viewBox="0 0 32 32" fill="none" xmlns="http://www.w3.org/2000/svg">
<rect x="0.5" y="4.5" width="31" height="23" rx="3.5" fill="#F6F6F9"/>
<rect x="0.5" y="4.5" width="31" height="23" rx="3.5" stroke="#DCDCE4"/>
<path d="M20.5 17.5C20.142 17.4998 19.7892 17.5855 19.4712 17.75L18.1344 16.71C18.207 16.4941 18.246 16.2684 18.25 16.0406L18.8969 15.8256C19.2627 16.1971 19.7463 16.43 20.2648 16.4845C20.7834 16.539 21.3048 16.4117 21.7399 16.1244C22.175 15.837 22.4968 15.4075 22.6503 14.9092C22.8038 14.4108 22.7794 13.8747 22.5814 13.3923C22.3834 12.91 22.0239 12.5114 21.5646 12.2647C21.1052 12.0179 20.5744 11.9384 20.0629 12.0397C19.5514 12.141 19.091 12.4168 18.7603 12.8199C18.4297 13.2231 18.2493 13.7286 18.25 14.25C18.25 14.3194 18.2537 14.3881 18.26 14.4562L17.7737 14.6181C17.5636 14.3481 17.2946 14.1295 16.9872 13.9791C16.6798 13.8286 16.3422 13.7503 16 13.75C15.9375 13.75 15.8825 13.75 15.8244 13.7575L15.5462 13.1325C15.9258 12.7725 16.1681 12.2914 16.2314 11.772C16.2946 11.2527 16.1749 10.7275 15.8928 10.2869C15.6107 9.84623 15.1839 9.51768 14.6857 9.35773C14.1876 9.19778 13.6493 9.21642 13.1634 9.41046C12.6775 9.6045 12.2744 9.9618 12.0235 10.4209C11.7726 10.88 11.6895 11.4122 11.7885 11.9259C11.8876 12.4397 12.1626 12.9028 12.5662 13.2357C12.9698 13.5686 13.4768 13.7505 14 13.75C14.0625 13.75 14.1175 13.75 14.1756 13.7425L14.4537 14.3675C14.1242 14.6785 13.8966 15.082 13.8008 15.5249C13.7049 15.9678 13.7454 16.4293 13.9169 16.8487L12.5869 18.0306C12.1222 17.7741 11.5817 17.6901 11.0611 17.7936C10.5405 17.897 10.0732 18.1811 9.74184 18.5958C9.41047 19.0104 9.23636 19.5289 9.25029 20.0595C9.26421 20.5901 9.46528 21.0987 9.81794 21.4954C10.1706 21.8921 10.6522 22.1513 11.1775 22.2273C11.7028 22.3032 12.2381 22.191 12.6887 21.9105C13.1393 21.63 13.4762 21.1992 13.6399 20.6942C13.8035 20.1893 13.7834 19.6428 13.5831 19.1512L14.9131 17.9694C15.2676 18.1655 15.6686 18.2621 16.0735 18.2488C16.4785 18.2355 16.8723 18.1128 17.2131 17.8937L18.4375 18.8475C18.2431 19.2914 18.1972 19.7861 18.3067 20.2582C18.4161 20.7302 18.6751 21.1543 19.0449 21.4674C19.4148 21.7805 19.8758 21.9657 20.3595 21.9957C20.8431 22.0256 21.3235 21.8987 21.7292 21.6336C22.1348 21.3686 22.4441 20.9797 22.611 20.5247C22.7778 20.0698 22.7933 19.5731 22.6552 19.1087C22.5171 18.6442 22.2327 18.2367 21.8444 17.9469C21.4561 17.657 20.9846 17.5003 20.5 17.5ZM20.5 13.5C20.6483 13.5 20.7933 13.544 20.9167 13.6264C21.04 13.7088 21.1361 13.8259 21.1929 13.963C21.2497 14.1 21.2645 14.2508 21.2356 14.3963C21.2066 14.5418 21.1352 14.6754 21.0303 14.7803C20.9254 14.8852 20.7918 14.9566 20.6463 14.9856C20.5008 15.0145 20.35 14.9997 20.213 14.9429C20.0759 14.8861 19.9588 14.79 19.8764 14.6667C19.794 14.5433 19.75 14.3983 19.75 14.25C19.75 14.0511 19.829 13.8603 19.9697 13.7197C20.1103 13.579 20.3011 13.5 20.5 13.5ZM13.25 11.5C13.25 11.3517 13.294 11.2067 13.3764 11.0833C13.4588 10.96 13.5759 10.8639 13.713 10.8071C13.85 10.7503 14.0008 10.7355 14.1463 10.7644C14.2918 10.7933 14.4254 10.8648 14.5303 10.9697C14.6352 11.0746 14.7066 11.2082 14.7356 11.3537C14.7645 11.4992 14.7497 11.65 14.6929 11.787C14.6361 11.9241 14.54 12.0412 14.4167 12.1236C14.2933 12.206 14.1483 12.25 14 12.25C13.8011 12.25 13.6103 12.171 13.4697 12.0303C13.329 11.8897 13.25 11.6989 13.25 11.5ZM11.5 20.75C11.3516 20.75 11.2066 20.706 11.0833 20.6236C10.96 20.5412 10.8638 20.4241 10.8071 20.287C10.7503 20.15 10.7355 19.9992 10.7644 19.8537C10.7933 19.7082 10.8648 19.5746 10.9697 19.4697C11.0745 19.3648 11.2082 19.2933 11.3537 19.2644C11.4992 19.2355 11.65 19.2503 11.787 19.3071C11.924 19.3639 12.0412 19.46 12.1236 19.5833C12.206 19.7067 12.25 19.8517 12.25 20C12.25 20.1989 12.171 20.3897 12.0303 20.5303C11.8897 20.671 11.6989 20.75 11.5 20.75ZM15.25 16C15.25 15.8517 15.294 15.7067 15.3764 15.5833C15.4588 15.46 15.5759 15.3639 15.713 15.3071C15.85 15.2503 16.0008 15.2355 16.1463 15.2644C16.2918 15.2933 16.4254 15.3648 16.5303 15.4697C16.6352 15.5746 16.7066 15.7082 16.7356 15.8537C16.7645 15.9992 16.7497 16.15 16.6929 16.287C16.6361 16.4241 16.54 16.5412 16.4167 16.6236C16.2933 16.706 16.1483 16.75 16 16.75C15.8011 16.75 15.6103 16.671 15.4697 16.5303C15.329 16.3897 15.25 16.1989 15.25 16ZM20.5 20.5C20.3516 20.5 20.2066 20.456 20.0833 20.3736C19.96 20.2912 19.8638 20.1741 19.8071 20.037C19.7503 19.9 19.7355 19.7492 19.7644 19.6037C19.7933 19.4582 19.8648 19.3246 19.9697 19.2197C20.0745 19.1148 20.2082 19.0433 20.3537 19.0144C20.4992 18.9855 20.65 19.0003 20.787 19.0571C20.924 19.1139 21.0412 19.21 21.1236 19.3333C21.206 19.4567 21.25 19.6017 21.25 19.75C21.25 19.9489 21.171 20.1397 21.0303 20.2803C20.8897 20.421 20.6989 20.5 20.5 20.5Z" fill="#666687"/>
</svg>
