<svg width="32" height="32" viewBox="0 0 32 32" fill="none" xmlns="http://www.w3.org/2000/svg">
<rect x="0.5" y="4.5" width="31" height="23" rx="3.5" fill="#F6F6F9"/>
<rect x="0.5" y="4.5" width="31" height="23" rx="3.5" stroke="#DCDCE4"/>
<path d="M23.75 16C23.7501 16.7417 23.5302 17.4668 23.1181 18.0836C22.7061 18.7004 22.1204 19.1811 21.4351 19.4649C20.7498 19.7488 19.9958 19.8231 19.2683 19.6783C18.5408 19.5336 17.8726 19.1764 17.3481 18.6518L17.3175 18.6187L13.5762 14.3943C13.2599 14.0838 12.859 13.8737 12.4237 13.7902C11.9884 13.7068 11.5381 13.7537 11.1294 13.9252C10.7207 14.0967 10.3717 14.3851 10.1263 14.7543C9.88094 15.1234 9.75003 15.5567 9.75003 16C9.75003 16.4432 9.88094 16.8766 10.1263 17.2457C10.3717 17.6148 10.7207 17.9032 11.1294 18.0747C11.5381 18.2462 11.9884 18.2932 12.4237 18.2097C12.859 18.1263 13.2599 17.9161 13.5762 17.6056L13.7687 17.3881C13.9006 17.2389 14.0863 17.1482 14.2851 17.136C14.4838 17.1237 14.6792 17.1909 14.8284 17.3228C14.9776 17.4546 15.0683 17.6404 15.0806 17.8391C15.0928 18.0378 15.0256 18.2333 14.8937 18.3825L14.6844 18.6187L14.6537 18.6518C14.1293 19.1762 13.4611 19.5333 12.7337 19.678C12.0063 19.8226 11.2523 19.7483 10.5671 19.4644C9.88192 19.1806 9.29629 18.7 8.88426 18.0833C8.47224 17.4666 8.25232 16.7416 8.25232 16C8.25232 15.2583 8.47224 14.5333 8.88426 13.9166C9.29629 13.3 9.88192 12.8193 10.5671 12.5355C11.2523 12.2516 12.0063 12.1773 12.7337 12.322C13.4611 12.4666 14.1293 12.8237 14.6537 13.3481L14.6844 13.3812L18.4256 17.6056C18.7419 17.9161 19.1429 18.1263 19.5782 18.2097C20.0135 18.2932 20.4638 18.2462 20.8725 18.0747C21.2812 17.9032 21.6301 17.6148 21.8755 17.2457C22.1209 16.8766 22.2518 16.4432 22.2518 16C22.2518 15.5567 22.1209 15.1234 21.8755 14.7543C21.6301 14.3851 21.2812 14.0967 20.8725 13.9252C20.4638 13.7537 20.0135 13.7068 19.5782 13.7902C19.1429 13.8737 18.7419 14.0838 18.4256 14.3943L18.2331 14.6118C18.1678 14.6857 18.0886 14.746 18 14.7893C17.9114 14.8325 17.8152 14.8579 17.7168 14.864C17.6184 14.87 17.5198 14.8567 17.4265 14.8246C17.3333 14.7925 17.2473 14.7424 17.1734 14.6772C17.0996 14.6119 17.0393 14.5327 16.996 14.4441C16.9528 14.3555 16.9274 14.2592 16.9213 14.1608C16.9152 14.0624 16.9286 13.9638 16.9607 13.8706C16.9927 13.7773 17.0428 13.6913 17.1081 13.6175L17.3175 13.3812L17.3481 13.3481C17.8726 12.8236 18.5408 12.4663 19.2683 12.3216C19.9958 12.1769 20.7498 12.2511 21.4351 12.535C22.1204 12.8189 22.7061 13.2996 23.1181 13.9163C23.5302 14.5331 23.7501 15.2582 23.75 16Z" fill="#666687"/>
</svg>
