<svg width="24" height="24" viewBox="0 0 24 24" fill="none" xmlns="http://www.w3.org/2000/svg">
<path fill-rule="evenodd" clip-rule="evenodd" d="M20.3997 14.4007C21.7251 14.4007 22.7997 13.3262 22.7997 12.0007C22.7997 10.6752 21.7251 9.6007 20.3997 9.6007C19.0742 9.6007 17.9997 10.6752 17.9997 12.0007C17.9997 13.3262 19.0742 14.4007 20.3997 14.4007ZM20.3997 15.6007C22.3879 15.6007 23.9997 13.9889 23.9997 12.0007C23.9997 10.0125 22.3879 8.4007 20.3997 8.4007C18.4114 8.4007 16.7997 10.0125 16.7997 12.0007C16.7997 13.9889 18.4114 15.6007 20.3997 15.6007Z" fill="#212134"/>
<path fill-rule="evenodd" clip-rule="evenodd" d="M3.6 14.4007C4.92548 14.4007 6 13.3262 6 12.0007C6 10.6752 4.92548 9.6007 3.6 9.6007C2.27452 9.6007 1.2 10.6752 1.2 12.0007C1.2 13.3262 2.27452 14.4007 3.6 14.4007ZM3.6 15.6007C5.58822 15.6007 7.2 13.9889 7.2 12.0007C7.2 10.0125 5.58822 8.4007 3.6 8.4007C1.61177 8.4007 0 10.0125 0 12.0007C0 13.9889 1.61177 15.6007 3.6 15.6007Z" fill="#212134"/>
<path fill-rule="evenodd" clip-rule="evenodd" d="M20.3997 22.7997C21.7251 22.7997 22.7997 21.7252 22.7997 20.3997C22.7997 19.0742 21.7251 17.9997 20.3997 17.9997C19.0742 17.9997 17.9997 19.0742 17.9997 20.3997C17.9997 21.7252 19.0742 22.7997 20.3997 22.7997ZM20.3997 23.9997C22.3879 23.9997 23.9997 22.3879 23.9997 20.3997C23.9997 18.4115 22.3879 16.7997 20.3997 16.7997C18.4114 16.7997 16.7997 18.4115 16.7997 20.3997C16.7997 22.3879 18.4114 23.9997 20.3997 23.9997Z" fill="#212134"/>
<path fill-rule="evenodd" clip-rule="evenodd" d="M20.3997 6C21.7251 6 22.7997 4.92548 22.7997 3.6C22.7997 2.27452 21.7251 1.2 20.3997 1.2C19.0742 1.2 17.9997 2.27452 17.9997 3.6C17.9997 4.92548 19.0742 6 20.3997 6ZM20.3997 7.2C22.3879 7.2 23.9997 5.58822 23.9997 3.6C23.9997 1.61177 22.3879 0 20.3997 0C18.4114 0 16.7997 1.61177 16.7997 3.6C16.7997 5.58822 18.4114 7.2 20.3997 7.2Z" fill="#212134"/>
<path d="M6.24023 11.2802H18.0002V12.7202H6.24023V11.2802Z" fill="#212134"/>
<path fill-rule="evenodd" clip-rule="evenodd" d="M3.60035 22.7997C2.27486 22.7997 1.20035 21.7252 1.20035 20.3997C1.20035 19.0742 2.27486 17.9997 3.60035 17.9997C4.92583 17.9997 6.00035 19.0742 6.00035 20.3997C6.00035 21.7252 4.92583 22.7997 3.60035 22.7997ZM3.60035 23.9997C1.61212 23.9997 0.000348061 22.3879 0.000348061 20.3997C0.000348061 18.4115 1.61212 16.7997 3.60035 16.7997C5.58857 16.7997 7.20035 18.4115 7.20035 20.3997C7.20035 22.3879 5.58857 23.9997 3.60035 23.9997Z" fill="#212134"/>
<path fill-rule="evenodd" clip-rule="evenodd" d="M3.60035 6C2.27486 6 1.20035 4.92548 1.20035 3.6C1.20035 2.27452 2.27486 1.2 3.60035 1.2C4.92583 1.2 6.00035 2.27452 6.00035 3.6C6.00035 4.92548 4.92583 6 3.60035 6ZM3.60035 7.2C1.61212 7.2 0.000348061 5.58822 0.000348061 3.6C0.000348061 1.61177 1.61212 0 3.60035 0C5.58857 0 7.20035 1.61177 7.20035 3.6C7.20035 5.58822 5.58857 7.2 3.60035 7.2Z" fill="#212134"/>
<path d="M18.3273 13.8633L6.48988 19.7652L5.83816 18.458L17.6756 12.5561L18.3273 13.8633Z" fill="#212134"/>
<path d="M18.3582 10.0781L6.39763 4.11478L5.75238 5.40894L17.713 11.3723L18.3582 10.0781Z" fill="#212134"/>
<path d="M18.3231 18.8304L6.25195 12.8119L5.60871 14.1021L17.6798 20.1205L18.3231 18.8304Z" fill="#212134"/>
<path d="M18.1356 5.22821L6.20702 11.1756L5.5535 9.86481L17.4821 3.91745L18.1356 5.22821Z" fill="#212134"/>
</svg>
