<svg width="32" height="32" viewBox="0 0 32 32" fill="none" xmlns="http://www.w3.org/2000/svg">
<rect x="0.5" y="4.5" width="31" height="23" rx="3.5" fill="#FCECEA"/>
<rect x="0.5" y="4.5" width="31" height="23" rx="3.5" stroke="#F5C0B8"/>
<path d="M16 9.25C14.2098 9.25 12.4929 9.96116 11.227 11.227C9.96116 12.4929 9.25 14.2098 9.25 16C9.25 17.7902 9.96116 19.5071 11.227 20.773C12.4929 22.0388 14.2098 22.75 16 22.75C17.3919 22.75 18.8556 22.3294 19.915 21.625C20.0808 21.5149 20.196 21.3434 20.2353 21.1483C20.2746 20.9532 20.2348 20.7504 20.1247 20.5847C20.0145 20.4189 19.8431 20.3037 19.648 20.2644C19.4529 20.2251 19.2501 20.2649 19.0844 20.375C18.2719 20.9144 17.0912 21.25 16 21.25C14.9616 21.25 13.9466 20.9421 13.0833 20.3652C12.2199 19.7883 11.547 18.9684 11.1496 18.0091C10.7523 17.0498 10.6483 15.9942 10.8509 14.9758C11.0534 13.9574 11.5535 13.0219 12.2877 12.2877C13.0219 11.5535 13.9574 11.0534 14.9758 10.8509C15.9942 10.6483 17.0498 10.7523 18.0091 11.1496C18.9684 11.547 19.7883 12.2199 20.3652 13.0833C20.9421 13.9466 21.25 14.9616 21.25 16C21.25 16.5806 21.1456 17.0675 20.9569 17.3719C20.7919 17.6369 20.5819 17.75 20.25 17.75C19.9181 17.75 19.7081 17.6369 19.5431 17.3719C19.3556 17.0675 19.25 16.5806 19.25 16V13.5C19.25 13.32 19.1853 13.1461 19.0676 13.0099C18.95 12.8737 18.7873 12.7843 18.6093 12.7581C18.4313 12.7319 18.2497 12.7705 18.0978 12.867C17.9459 12.9635 17.8338 13.1114 17.7819 13.2838C17.2662 12.9449 16.6647 12.7599 16.0478 12.7503C15.4309 12.7406 14.8239 12.9069 14.2979 13.2295C13.772 13.5521 13.3487 14.0177 13.0776 14.572C12.8065 15.1263 12.6988 15.7463 12.7671 16.3595C12.8354 16.9728 13.0768 17.5539 13.4632 18.035C13.8496 18.516 14.3649 18.8772 14.949 19.0762C15.533 19.2752 16.1617 19.3038 16.7614 19.1587C17.3611 19.0137 17.9071 18.7008 18.3356 18.2569C18.7687 18.8938 19.4256 19.25 20.25 19.25C21.7919 19.25 22.75 18.005 22.75 16C22.748 14.2104 22.0362 12.4947 20.7708 11.2292C19.5053 9.96378 17.7896 9.25199 16 9.25ZM16 17.75C15.6539 17.75 15.3155 17.6474 15.0278 17.4551C14.74 17.2628 14.5157 16.9895 14.3832 16.6697C14.2508 16.3499 14.2161 15.9981 14.2836 15.6586C14.3511 15.3191 14.5178 15.0073 14.7626 14.7626C15.0073 14.5178 15.3191 14.3511 15.6586 14.2836C15.9981 14.2161 16.3499 14.2508 16.6697 14.3832C16.9895 14.5157 17.2628 14.74 17.4551 15.0278C17.6474 15.3155 17.75 15.6539 17.75 16C17.75 16.4641 17.5656 16.9092 17.2374 17.2374C16.9092 17.5656 16.4641 17.75 16 17.75Z" fill="#D02B20"/>
</svg>
