<svg width="32" height="32" viewBox="0 0 32 32" fill="none" xmlns="http://www.w3.org/2000/svg">
<rect x="0.5" y="4.5" width="31" height="23" rx="3.5" fill="#F6ECFC"/>
<rect x="0.5" y="4.5" width="31" height="23" rx="3.5" stroke="#E0C1F4"/>
<path d="M12.75 12C12.75 11.8011 12.829 11.6103 12.9697 11.4697C13.1103 11.329 13.3011 11.25 13.5 11.25H21.5C21.6989 11.25 21.8897 11.329 22.0303 11.4697C22.171 11.6103 22.25 11.8011 22.25 12C22.25 12.1989 22.171 12.3897 22.0303 12.5303C21.8897 12.671 21.6989 12.75 21.5 12.75H13.5C13.3011 12.75 13.1103 12.671 12.9697 12.5303C12.829 12.3897 12.75 12.1989 12.75 12ZM21.5 15.25H13.5C13.3011 15.25 13.1103 15.329 12.9697 15.4697C12.829 15.6103 12.75 15.8011 12.75 16C12.75 16.1989 12.829 16.3897 12.9697 16.5303C13.1103 16.671 13.3011 16.75 13.5 16.75H21.5C21.6989 16.75 21.8897 16.671 22.0303 16.5303C22.171 16.3897 22.25 16.1989 22.25 16C22.25 15.8011 22.171 15.6103 22.0303 15.4697C21.8897 15.329 21.6989 15.25 21.5 15.25ZM21.5 19.25H13.5C13.3011 19.25 13.1103 19.329 12.9697 19.4697C12.829 19.6103 12.75 19.8011 12.75 20C12.75 20.1989 12.829 20.3897 12.9697 20.5303C13.1103 20.671 13.3011 20.75 13.5 20.75H21.5C21.6989 20.75 21.8897 20.671 22.0303 20.5303C22.171 20.3897 22.25 20.1989 22.25 20C22.25 19.8011 22.171 19.6103 22.0303 19.4697C21.8897 19.329 21.6989 19.25 21.5 19.25ZM10.75 15C10.5522 15 10.3589 15.0586 10.1944 15.1685C10.03 15.2784 9.90181 15.4346 9.82612 15.6173C9.75043 15.8 9.73063 16.0011 9.76922 16.1951C9.8078 16.3891 9.90304 16.5673 10.0429 16.7071C10.1827 16.847 10.3609 16.9422 10.5549 16.9808C10.7489 17.0194 10.95 16.9996 11.1327 16.9239C11.3154 16.8482 11.4716 16.72 11.5815 16.5556C11.6914 16.3911 11.75 16.1978 11.75 16C11.75 15.7348 11.6446 15.4804 11.4571 15.2929C11.2696 15.1054 11.0152 15 10.75 15ZM10.75 11C10.5522 11 10.3589 11.0586 10.1944 11.1685C10.03 11.2784 9.90181 11.4346 9.82612 11.6173C9.75043 11.8 9.73063 12.0011 9.76922 12.1951C9.8078 12.3891 9.90304 12.5673 10.0429 12.7071C10.1827 12.847 10.3609 12.9422 10.5549 12.9808C10.7489 13.0194 10.95 12.9996 11.1327 12.9239C11.3154 12.8482 11.4716 12.72 11.5815 12.5556C11.6914 12.3911 11.75 12.1978 11.75 12C11.75 11.7348 11.6446 11.4804 11.4571 11.2929C11.2696 11.1054 11.0152 11 10.75 11ZM10.75 19C10.5522 19 10.3589 19.0586 10.1944 19.1685C10.03 19.2784 9.90181 19.4346 9.82612 19.6173C9.75043 19.8 9.73063 20.0011 9.76922 20.1951C9.8078 20.3891 9.90304 20.5673 10.0429 20.7071C10.1827 20.847 10.3609 20.9422 10.5549 20.9808C10.7489 21.0194 10.95 20.9996 11.1327 20.9239C11.3154 20.8482 11.4716 20.72 11.5815 20.5556C11.6914 20.3911 11.75 20.1978 11.75 20C11.75 19.7348 11.6446 19.4804 11.4571 19.2929C11.2696 19.1054 11.0152 19 10.75 19Z" fill="#9736E8"/>
</svg>
