<svg width="32" height="24" viewBox="0 0 32 24" fill="none" xmlns="http://www.w3.org/2000/svg">
<g clip-path="url(#clip0_15454_27299)">
<rect x="0.5" y="0.5" width="31" height="23" rx="2.5" fill="#EAF5FF" stroke="#B8E1FF"/>
<path d="M17.9011 9.32777C18.4772 9.32777 18.9441 8.86081 18.9441 8.28478C18.9441 7.70875 18.4772 7.24178 17.9011 7.24178C17.3251 7.24178 16.8582 7.70875 16.8582 8.28478C16.8582 8.86081 17.3251 9.32777 17.9011 9.32777Z" fill="#0C75AF"/>
<path d="M18.7027 8.28477C18.6978 8.61312 18.4999 8.91491 18.1908 9.03321C17.8697 9.15634 17.5003 9.05736 17.2806 8.79419C17.0682 8.53827 17.0416 8.16646 17.2082 7.87916C17.3748 7.59426 17.708 7.43492 18.0339 7.49286C18.4202 7.56046 18.6954 7.89606 18.7027 8.28477C18.7075 8.59622 19.1904 8.59622 19.1855 8.28477C19.1759 7.73671 18.8355 7.25626 18.3188 7.07035C17.8287 6.89411 17.2492 7.05828 16.9185 7.45906C16.5732 7.87674 16.5153 8.48033 16.8002 8.94871C17.0826 9.41709 17.6307 9.64645 18.1643 9.54505C18.7606 9.43158 19.1759 8.88111 19.1855 8.28718C19.1904 7.97332 18.7075 7.97332 18.7027 8.28477Z" fill="#0C75AF"/>
<path d="M17.9011 12.9882C18.4772 12.9882 18.9441 12.5212 18.9441 11.9452C18.9441 11.3692 18.4772 10.9022 17.9011 10.9022C17.3251 10.9022 16.8582 11.3692 16.8582 11.9452C16.8582 12.5212 17.3251 12.9882 17.9011 12.9882Z" fill="#0C75AF"/>
<path d="M18.7027 11.9448C18.6978 12.2732 18.4999 12.575 18.1908 12.6933C17.8697 12.8164 17.5003 12.7174 17.2806 12.4542C17.0682 12.1983 17.0416 11.8265 17.2082 11.5392C17.3748 11.2543 17.708 11.095 18.0339 11.1529C18.4202 11.2181 18.6954 11.5561 18.7027 11.9448C18.7075 12.2563 19.1904 12.2563 19.1855 11.9448C19.1759 11.3968 18.8355 10.9163 18.3188 10.7304C17.8287 10.5541 17.2492 10.7183 16.9185 11.1191C16.5732 11.5368 16.5153 12.1404 16.8002 12.6088C17.0826 13.0771 17.6307 13.3065 18.1643 13.2051C18.7606 13.0916 19.1759 12.5411 19.1855 11.9472C19.1904 11.6334 18.7075 11.6334 18.7027 11.9448Z" fill="#0C75AF"/>
<path d="M17.9011 16.7467C18.4772 16.7467 18.9441 16.2797 18.9441 15.7037C18.9441 15.1277 18.4772 14.6607 17.9011 14.6607C17.3251 14.6607 16.8582 15.1277 16.8582 15.7037C16.8582 16.2797 17.3251 16.7467 17.9011 16.7467Z" fill="#0C75AF"/>
<path d="M18.7027 15.7039C18.6978 16.0323 18.4999 16.3341 18.1908 16.4524C17.8697 16.5755 17.5003 16.4765 17.2806 16.2134C17.0682 15.9574 17.0416 15.5856 17.2082 15.2983C17.3748 15.0134 17.708 14.8541 18.0339 14.912C18.4202 14.9772 18.6954 15.3152 18.7027 15.7039C18.7075 16.0154 19.1904 16.0154 19.1855 15.7039C19.1759 15.1559 18.8355 14.6754 18.3188 14.4895C17.8287 14.3133 17.2492 14.4775 16.9185 14.8782C16.5732 15.2959 16.5153 15.8995 16.8002 16.3679C17.0826 16.8363 17.6307 17.0656 18.1643 16.9642C18.7606 16.8508 19.1759 16.3003 19.1855 15.7064C19.1904 15.3925 18.7075 15.3925 18.7027 15.7039Z" fill="#0C75AF"/>
<path d="M14.0745 9.34231C14.6505 9.34231 15.1175 8.87534 15.1175 8.29931C15.1175 7.72328 14.6505 7.25632 14.0745 7.25632C13.4985 7.25632 13.0315 7.72328 13.0315 8.29931C13.0315 8.87534 13.4985 9.34231 14.0745 9.34231Z" fill="#0C75AF"/>
<path d="M14.876 8.29941C14.8712 8.62777 14.6732 8.92956 14.3642 9.04786C14.0431 9.17099 13.6737 9.072 13.454 8.80884C13.2415 8.55292 13.2149 8.18111 13.3815 7.89381C13.5481 7.60891 13.8813 7.44957 14.2072 7.50751C14.5959 7.57511 14.8712 7.91071 14.876 8.29941C14.8808 8.61086 15.3637 8.61086 15.3589 8.29941C15.3492 7.75136 15.0088 7.27091 14.4921 7.085C14.002 6.90875 13.4226 7.07293 13.0918 7.47371C12.7466 7.89139 12.6886 8.49498 12.9735 8.96336C13.256 9.43174 13.804 9.6611 14.3376 9.5597C14.9339 9.44623 15.3492 8.89576 15.3589 8.30183C15.3637 7.98796 14.8808 7.98796 14.876 8.29941Z" fill="#0C75AF"/>
<path d="M14.0745 13.0026C14.6505 13.0026 15.1175 12.5356 15.1175 11.9596C15.1175 11.3836 14.6505 10.9166 14.0745 10.9166C13.4985 10.9166 13.0315 11.3836 13.0315 11.9596C13.0315 12.5356 13.4985 13.0026 14.0745 13.0026Z" fill="#0C75AF"/>
<path d="M14.876 11.9593C14.8712 12.2877 14.6732 12.5895 14.3642 12.7078C14.0431 12.8309 13.6737 12.7319 13.454 12.4688C13.2415 12.2128 13.2149 11.841 13.3815 11.5537C13.5481 11.2688 13.8813 11.1095 14.2072 11.1674C14.5959 11.235 14.8712 11.5706 14.876 11.9593C14.8808 12.2708 15.3637 12.2708 15.3589 11.9593C15.3492 11.4113 15.0088 10.9308 14.4921 10.7449C14.002 10.5687 13.4226 10.7329 13.0918 11.1336C12.7466 11.5513 12.6886 12.1549 12.9735 12.6233C13.256 13.0917 13.804 13.321 14.3376 13.2196C14.9339 13.1062 15.3492 12.5557 15.3589 11.9618C15.3637 11.6479 14.8808 11.6479 14.876 11.9593Z" fill="#0C75AF"/>
<path d="M14.0745 16.7611C14.6505 16.7611 15.1175 16.2941 15.1175 15.7181C15.1175 15.1421 14.6505 14.6751 14.0745 14.6751C13.4985 14.6751 13.0315 15.1421 13.0315 15.7181C13.0315 16.2941 13.4985 16.7611 14.0745 16.7611Z" fill="#0C75AF"/>
<path d="M14.876 15.7185C14.8712 16.0468 14.6732 16.3486 14.3642 16.4669C14.0431 16.5901 13.6737 16.4911 13.454 16.2279C13.2415 15.972 13.2149 15.6002 13.3815 15.3129C13.5481 15.028 13.8813 14.8686 14.2072 14.9266C14.5959 14.9918 14.8712 15.3298 14.876 15.7185C14.8808 16.0299 15.3637 16.0299 15.3589 15.7185C15.3492 15.1704 15.0088 14.69 14.4921 14.5041C14.002 14.3278 13.4226 14.492 13.0918 14.8928C12.7466 15.3105 12.6886 15.914 12.9735 16.38C13.256 16.8484 13.804 17.0777 14.3376 16.9763C14.9339 16.8629 15.3492 16.3124 15.3589 15.7185C15.3637 15.407 14.8808 15.407 14.876 15.7185Z" fill="#0C75AF"/>
</g>
<defs>
<clipPath id="clip0_15454_27299">
<rect width="32" height="24" fill="white"/>
</clipPath>
</defs>
</svg>
