<svg width="32" height="24" viewBox="0 0 32 24" fill="none" xmlns="http://www.w3.org/2000/svg">
<path d="M0.5 3C0.5 1.61929 1.61929 0.5 3 0.5H29C30.3807 0.5 31.5 1.61929 31.5 3V21C31.5 22.3807 30.3807 23.5 29 23.5H3C1.61929 23.5 0.5 22.3807 0.5 21V3Z" fill="#FDF4DC" stroke="#FAE7B9"/>
<path d="M20.1577 11.9953C20.1575 11.4036 19.6955 10.9215 19.1129 10.8857H13.5312L13.5307 9.24373C13.5301 8.1148 14.4483 7.19573 15.5772 7.1952C16.7061 7.19467 17.6252 7.97947 17.6257 9.1084C17.626 9.34707 17.8201 9.54053 18.0589 9.54053H18.3891C18.628 9.54053 18.8217 9.34667 18.8216 9.10773C18.8205 7.3196 17.3645 5.99907 15.5765 6C13.7885 6.00093 12.3347 7.45613 12.3356 9.24427L12.3361 10.8857H12.2295H12.1131C11.498 10.886 10.9996 11.3849 11 12L11.0009 16.8869C11.0012 17.502 11.5001 18.0004 12.1152 18L19.0456 17.9965C19.6607 17.9963 20.1591 17.4973 20.1587 16.8823L20.1577 11.9953Z" fill="#D9822F"/>
</svg>
