<svg width="32" height="32" viewBox="0 0 32 32" fill="none" xmlns="http://www.w3.org/2000/svg">
<rect x="0.5" y="4.5" width="31" height="23" rx="3.5" fill="#F6ECFC"/>
<rect x="0.5" y="4.5" width="31" height="23" rx="3.5" stroke="#E0C1F4"/>
<path d="M21.5 10.5H10.5C10.2348 10.5 9.98043 10.6054 9.79289 10.7929C9.60536 10.9804 9.5 11.2348 9.5 11.5V20.5C9.5 20.7652 9.60536 21.0196 9.79289 21.2071C9.98043 21.3946 10.2348 21.5 10.5 21.5H21.5C21.7652 21.5 22.0196 21.3946 22.2071 21.2071C22.3946 21.0196 22.5 20.7652 22.5 20.5V11.5C22.5 11.2348 22.3946 10.9804 22.2071 10.7929C22.0196 10.6054 21.7652 10.5 21.5 10.5ZM17.75 13.5C17.8983 13.5 18.0433 13.544 18.1667 13.6264C18.29 13.7088 18.3861 13.8259 18.4429 13.963C18.4997 14.1 18.5145 14.2508 18.4856 14.3963C18.4566 14.5418 18.3852 14.6754 18.2803 14.7803C18.1754 14.8852 18.0418 14.9567 17.8963 14.9856C17.7508 15.0145 17.6 14.9997 17.463 14.9429C17.3259 14.8861 17.2088 14.79 17.1264 14.6667C17.044 14.5433 17 14.3983 17 14.25C17 14.0511 17.079 13.8603 17.2197 13.7197C17.3603 13.579 17.5511 13.5 17.75 13.5ZM10.5 20.5V18.75L13.75 15.5L18.75 20.5H10.5ZM21.5 20.5H20.1644L17.9144 18.25L19.1644 17L21.5 19.3363V20.5Z" fill="#9736E8"/>
</svg>
