<svg width="32" height="24" viewBox="0 0 32 24" fill="none" xmlns="http://www.w3.org/2000/svg">
<rect x="0.5" y="0.5" width="31" height="23" rx="2.5" fill="#EAF5FF" stroke="#B8E1FF"/>
<path fill-rule="evenodd" clip-rule="evenodd" d="M8.2429 11.9067V12.0639C9.07806 12.1572 9.53002 12.5797 9.53002 13.2871V14.5005C9.53002 15.1932 9.76583 15.4585 10.3848 15.4585H10.601V16.5H10.2374C8.77838 16.5 8.15939 15.94 8.15939 14.643V13.6703C8.15939 12.9481 7.84498 12.6779 7 12.6681V11.3024C7.84007 11.2975 8.15939 11.0273 8.15939 10.3002V9.33242C8.15939 8.05022 8.77838 7.5 10.2374 7.5H10.601V8.54148H10.3848C9.76092 8.54148 9.53002 8.80677 9.53002 9.49945V10.6834C9.53002 11.3957 9.07806 11.8182 8.2429 11.9067ZM24.0469 12.0884V11.9312C23.2118 11.8428 22.7598 11.4203 22.7598 10.708V9.49454C22.7598 8.80186 22.524 8.54148 21.905 8.54148H21.6889V7.5H22.0524C23.5065 7.5 24.1255 8.06004 24.1255 9.35207V10.3248C24.1255 11.0469 24.4449 11.3221 25.2898 11.327V12.6927C24.4449 12.6976 24.1255 12.9727 24.1255 13.6949V14.6676C24.1255 15.9498 23.5115 16.5 22.0524 16.5H21.6889V15.4536H21.905C22.524 15.4536 22.7598 15.1932 22.7598 14.5005V13.3117C22.7598 12.6043 23.2118 12.1818 24.0469 12.0884ZM13.1504 13C13.7027 13 14.1504 12.5523 14.1504 12C14.1504 11.4477 13.7027 11 13.1504 11C12.5981 11 12.1504 11.4477 12.1504 12C12.1504 12.5523 12.5981 13 13.1504 13ZM17.1504 12C17.1504 12.5523 16.7027 13 16.1504 13C15.5981 13 15.1504 12.5523 15.1504 12C15.1504 11.4477 15.5981 11 16.1504 11C16.7027 11 17.1504 11.4477 17.1504 12ZM19.1504 13C19.7027 13 20.1504 12.5523 20.1504 12C20.1504 11.4477 19.7027 11 19.1504 11C18.5981 11 18.1504 11.4477 18.1504 12C18.1504 12.5523 18.5981 13 19.1504 13Z" fill="#0C75AF"/>
</svg>
