<svg width="24" height="24" viewBox="0 0 24 24" fill="none" xmlns="http://www.w3.org/2000/svg">
<path fill-rule="evenodd" clip-rule="evenodd" d="M3.6 14.1321C4.92548 14.1321 6 13.0576 6 11.7321C6 10.4066 4.92548 9.33208 3.6 9.33208C2.27452 9.33208 1.2 10.4066 1.2 11.7321C1.2 13.0576 2.27452 14.1321 3.6 14.1321ZM3.6 15.3321C5.58822 15.3321 7.2 13.7203 7.2 11.7321C7.2 9.74386 5.58822 8.13208 3.6 8.13208C1.61177 8.13208 0 9.74386 0 11.7321C0 13.7203 1.61177 15.3321 3.6 15.3321Z" fill="#212134"/>
<path d="M6.24023 11.0115H19.6802V12.4515H6.24023V11.0115Z" fill="#212134"/>
<path d="M5.87207 10.4306L14.219 4.25418L15.0794 5.41688L6.73243 11.5933L5.87207 10.4306Z" fill="#212134"/>
<path d="M5.89941 13.0874L14.2464 19.2638L15.1102 18.0965L6.76321 11.92L5.89941 13.0874Z" fill="#212134"/>
<path d="M18.7197 8.61255L23.9997 11.7326L18.7197 14.8526V8.61255Z" fill="#212134"/>
<path d="M12.7197 2.63263L18.8199 2L16.4314 7.6487L12.7197 2.63263Z" fill="#212134"/>
<path d="M12.7197 21.3073L18.8199 21.9399L16.4314 16.2912L12.7197 21.3073Z" fill="#212134"/>
</svg>
