<svg width="32" height="32" viewBox="0 0 32 32" fill="none" xmlns="http://www.w3.org/2000/svg">
<rect x="0.5" y="4.5" width="31" height="23" rx="3.5" fill="#EAF5FF"/>
<rect x="0.5" y="4.5" width="31" height="23" rx="3.5" stroke="#B8E1FF"/>
<path d="M11.425 15.4681C11.332 15.6621 11.2109 15.8413 11.0656 16C11.2109 16.1587 11.332 16.3379 11.425 16.5319C11.75 17.2025 11.75 17.9894 11.75 18.75C11.75 20.3713 11.865 20.75 13 20.75C13.1989 20.75 13.3897 20.829 13.5303 20.9697C13.671 21.1103 13.75 21.3011 13.75 21.5C13.75 21.6989 13.671 21.8897 13.5303 22.0303C13.3897 22.171 13.1989 22.25 13 22.25C11.8038 22.25 10.9875 21.8188 10.575 20.9681C10.25 20.2975 10.25 19.5106 10.25 18.75C10.25 17.1287 10.135 16.75 9 16.75C8.80109 16.75 8.61032 16.671 8.46967 16.5303C8.32902 16.3897 8.25 16.1989 8.25 16C8.25 15.8011 8.32902 15.6103 8.46967 15.4697C8.61032 15.329 8.80109 15.25 9 15.25C10.135 15.25 10.25 14.8713 10.25 13.25C10.25 12.4894 10.25 11.7025 10.575 11.0319C10.9875 10.1812 11.8038 9.75 13 9.75C13.1989 9.75 13.3897 9.82902 13.5303 9.96967C13.671 10.1103 13.75 10.3011 13.75 10.5C13.75 10.6989 13.671 10.8897 13.5303 11.0303C13.3897 11.171 13.1989 11.25 13 11.25C11.865 11.25 11.75 11.6287 11.75 13.25C11.75 14.0106 11.75 14.7975 11.425 15.4681ZM23 15.25C21.865 15.25 21.75 14.8713 21.75 13.25C21.75 12.4894 21.75 11.7025 21.425 11.0319C21.0125 10.1812 20.1962 9.75 19 9.75C18.8011 9.75 18.6103 9.82902 18.4697 9.96967C18.329 10.1103 18.25 10.3011 18.25 10.5C18.25 10.6989 18.329 10.8897 18.4697 11.0303C18.6103 11.171 18.8011 11.25 19 11.25C20.135 11.25 20.25 11.6287 20.25 13.25C20.25 14.0106 20.25 14.7975 20.575 15.4681C20.669 15.6623 20.7911 15.8415 20.9375 16C20.7922 16.1587 20.6712 16.3379 20.5781 16.5319C20.25 17.2025 20.25 17.9894 20.25 18.75C20.25 20.3713 20.135 20.75 19 20.75C18.8011 20.75 18.6103 20.829 18.4697 20.9697C18.329 21.1103 18.25 21.3011 18.25 21.5C18.25 21.6989 18.329 21.8897 18.4697 22.0303C18.6103 22.171 18.8011 22.25 19 22.25C20.1962 22.25 21.0125 21.8188 21.425 20.9681C21.75 20.2975 21.75 19.5106 21.75 18.75C21.75 17.1287 21.865 16.75 23 16.75C23.1989 16.75 23.3897 16.671 23.5303 16.5303C23.671 16.3897 23.75 16.1989 23.75 16C23.75 15.8011 23.671 15.6103 23.5303 15.4697C23.3897 15.329 23.1989 15.25 23 15.25Z" fill="#0C75AF"/>
</svg>
