<svg viewBox="0 0 32 32"
    xmlns="http://www.w3.org/2000/svg">
    <path d="M13.5 7.5C13.5 7.89556 13.3827 8.28224 13.1629 8.61114C12.9432 8.94004 12.6308 9.19639 12.2654 9.34776C11.8999 9.49914 11.4978 9.53874 11.1098 9.46157C10.7219 9.3844 10.3655 9.19392 10.0858 8.91421C9.80608 8.63451 9.6156 8.27814 9.53843 7.89018C9.46126 7.50222 9.50087 7.10009 9.65224 6.73463C9.80362 6.36918 10.06 6.05682 10.3889 5.83706C10.7178 5.6173 11.1044 5.5 11.5 5.5C12.0304 5.5 12.5391 5.71071 12.9142 6.08579C13.2893 6.46086 13.5 6.96957 13.5 7.5ZM20.5 9.5C20.8956 9.5 21.2822 9.3827 21.6111 9.16294C21.94 8.94318 22.1964 8.63082 22.3478 8.26537C22.4991 7.89992 22.5387 7.49778 22.4616 7.10982C22.3844 6.72186 22.1939 6.36549 21.9142 6.08579C21.6345 5.80608 21.2781 5.6156 20.8902 5.53843C20.5022 5.46126 20.1001 5.50087 19.7346 5.65224C19.3692 5.80362 19.0568 6.05996 18.8371 6.38886C18.6173 6.71776 18.5 7.10444 18.5 7.5C18.5 8.03043 18.7107 8.53914 19.0858 8.91421C19.4609 9.28929 19.9696 9.5 20.5 9.5ZM11.5 14C11.1044 14 10.7178 14.1173 10.3889 14.3371C10.06 14.5568 9.80362 14.8692 9.65224 15.2346C9.50087 15.6001 9.46126 16.0022 9.53843 16.3902C9.6156 16.7781 9.80608 17.1345 10.0858 17.4142C10.3655 17.6939 10.7219 17.8844 11.1098 17.9616C11.4978 18.0387 11.8999 17.9991 12.2654 17.8478C12.6308 17.6964 12.9432 17.44 13.1629 17.1111C13.3827 16.7822 13.5 16.3956 13.5 16C13.5 15.4696 13.2893 14.9609 12.9142 14.5858C12.5391 14.2107 12.0304 14 11.5 14ZM20.5 14C20.1044 14 19.7178 14.1173 19.3889 14.3371C19.06 14.5568 18.8036 14.8692 18.6522 15.2346C18.5009 15.6001 18.4613 16.0022 18.5384 16.3902C18.6156 16.7781 18.8061 17.1345 19.0858 17.4142C19.3655 17.6939 19.7219 17.8844 20.1098 17.9616C20.4978 18.0387 20.8999 17.9991 21.2654 17.8478C21.6308 17.6964 21.9432 17.44 22.1629 17.1111C22.3827 16.7822 22.5 16.3956 22.5 16C22.5 15.4696 22.2893 14.9609 21.9142 14.5858C21.5391 14.2107 21.0304 14 20.5 14ZM11.5 22.5C11.1044 22.5 10.7178 22.6173 10.3889 22.8371C10.06 23.0568 9.80362 23.3692 9.65224 23.7346C9.50087 24.1001 9.46126 24.5022 9.53843 24.8902C9.6156 25.2781 9.80608 25.6345 10.0858 25.9142C10.3655 26.1939 10.7219 26.3844 11.1098 26.4616C11.4978 26.5387 11.8999 26.4991 12.2654 26.3478C12.6308 26.1964 12.9432 25.94 13.1629 25.6111C13.3827 25.2822 13.5 24.8956 13.5 24.5C13.5 23.9696 13.2893 23.4609 12.9142 23.0858C12.5391 22.7107 12.0304 22.5 11.5 22.5ZM20.5 22.5C20.1044 22.5 19.7178 22.6173 19.3889 22.8371C19.06 23.0568 18.8036 23.3692 18.6522 23.7346C18.5009 24.1001 18.4613 24.5022 18.5384 24.8902C18.6156 25.2781 18.8061 25.6345 19.0858 25.9142C19.3655 26.1939 19.7219 26.3844 20.1098 26.4616C20.4978 26.5387 20.8999 26.4991 21.2654 26.3478C21.6308 26.1964 21.9432 25.94 22.1629 25.6111C22.3827 25.2822 22.5 24.8956 22.5 24.5C22.5 23.9696 22.2893 23.4609 21.9142 23.0858C21.5391 22.7107 21.0304 22.5 20.5 22.5Z" />
</svg>
