<svg viewBox="0 0 32 32"
    xmlns="http://www.w3.org/2000/svg">
    <path d="M28.5 13C28.5 13.3978 28.342 13.7794 28.0607 14.0607C27.7794 14.342 27.3978 14.5 27 14.5C26.6022 14.5 26.2206 14.342 25.9393 14.0607C25.658 13.7794 25.5 13.3978 25.5 13V8.625L18.0613 16.0637C17.7795 16.3455 17.3973 16.5039 16.9988 16.5039C16.6002 16.5039 16.218 16.3455 15.9362 16.0637C15.6545 15.782 15.4961 15.3998 15.4961 15.0013C15.4961 14.6027 15.6545 14.2205 15.9362 13.9388L23.375 6.5H19C18.6022 6.5 18.2206 6.34196 17.9393 6.06066C17.658 5.77936 17.5 5.39782 17.5 5C17.5 4.60218 17.658 4.22064 17.9393 3.93934C18.2206 3.65804 18.6022 3.5 19 3.5H27C27.3978 3.5 27.7794 3.65804 28.0607 3.93934C28.342 4.22064 28.5 4.60218 28.5 5V13ZM23 16C22.6022 16 22.2206 16.158 21.9393 16.4393C21.658 16.7206 21.5 17.1022 21.5 17.5V25.5H6.5V10.5H14.5C14.8978 10.5 15.2794 10.342 15.5607 10.0607C15.842 9.77936 16 9.39782 16 9C16 8.60218 15.842 8.22064 15.5607 7.93934C15.2794 7.65804 14.8978 7.5 14.5 7.5H6C5.33696 7.5 4.70107 7.76339 4.23223 8.23223C3.76339 8.70107 3.5 9.33696 3.5 10V26C3.5 26.663 3.76339 27.2989 4.23223 27.7678C4.70107 28.2366 5.33696 28.5 6 28.5H22C22.663 28.5 23.2989 28.2366 23.7678 27.7678C24.2366 27.2989 24.5 26.663 24.5 26V17.5C24.5 17.1022 24.342 16.7206 24.0607 16.4393C23.7794 16.158 23.3978 16 23 16Z" />
</svg>
