<svg viewBox="0 0 32 32"
    xmlns="http://www.w3.org/2000/svg">
    <path d="M30.9137 15.595C30.87 15.4963 29.8112 13.1475 27.4575 10.7937C24.3212 7.6575 20.36 6 16 6C11.64 6 7.67874 7.6575 4.54249 10.7937C2.18874 13.1475 1.12499 15.5 1.08624 15.595C1.02938 15.7229 1 15.8613 1 16.0012C1 16.1412 1.02938 16.2796 1.08624 16.4075C1.12999 16.5062 2.18874 18.8538 4.54249 21.2075C7.67874 24.3425 11.64 26 16 26C20.36 26 24.3212 24.3425 27.4575 21.2075C29.8112 18.8538 30.87 16.5062 30.9137 16.4075C30.9706 16.2796 31 16.1412 31 16.0012C31 15.8613 30.9706 15.7229 30.9137 15.595ZM16 21C15.0111 21 14.0444 20.7068 13.2221 20.1573C12.3999 19.6079 11.759 18.827 11.3806 17.9134C11.0022 16.9998 10.9031 15.9945 11.0961 15.0245C11.289 14.0546 11.7652 13.1637 12.4645 12.4645C13.1637 11.7652 14.0546 11.289 15.0245 11.0961C15.9944 10.9031 16.9998 11.0022 17.9134 11.3806C18.827 11.759 19.6079 12.3999 20.1573 13.2221C20.7067 14.0444 21 15.0111 21 16C21 17.3261 20.4732 18.5979 19.5355 19.5355C18.5978 20.4732 17.3261 21 16 21Z" />
</svg>
