<svg width="16" height="16" viewBox="0 0 32 32"
    xmlns="http://www.w3.org/2000/svg">
    <path d="M26.48 16.8512L19.0063 24.41C18.8232 24.5953 18.6052 24.7424 18.3649 24.8428C18.1246 24.9432 17.8667 24.9949 17.6063 24.995H9.41501L5.70751 28.7075C5.6146 28.8004 5.5043 28.8741 5.3829 28.9244C5.26151 28.9747 5.1314 29.0005 5.00001 29.0005C4.86861 29.0005 4.7385 28.9747 4.61711 28.9244C4.49572 28.8741 4.38542 28.8004 4.29251 28.7075C4.1996 28.6146 4.1259 28.5043 4.07561 28.3829C4.02533 28.2615 3.99945 28.1314 3.99945 28C3.99945 27.8686 4.02533 27.7385 4.07561 27.6171C4.1259 27.4957 4.1996 27.3854 4.29251 27.2925L7.11626 24.47L15.5875 16H26.125C26.2236 16.0002 26.3198 16.0294 26.4018 16.0842C26.4838 16.1389 26.5477 16.2166 26.5856 16.3075C26.6236 16.3985 26.6338 16.4986 26.615 16.5953C26.5962 16.6921 26.5492 16.7811 26.48 16.8512ZM27.0875 3.82124C25.5531 2.55853 23.6037 1.91207 21.6189 2.00773C19.634 2.10339 17.7558 2.93432 16.35 4.33874L15.15 5.52374C15.0555 5.61636 15.0016 5.74267 15 5.87499V13.75L21.875 6.87499C22.0641 6.69537 22.3158 6.59671 22.5766 6.60005C22.8373 6.60339 23.0865 6.70846 23.2709 6.89286C23.4553 7.07726 23.5604 7.3264 23.5637 7.58716C23.567 7.84793 23.4684 8.09967 23.2888 8.28874L17.5888 14H28.6363C28.7281 14.0002 28.8182 13.9751 28.8967 13.9275C28.9752 13.8798 29.039 13.8115 29.0813 13.73C29.9381 12.1008 30.2077 10.2261 29.8446 8.42144C29.4814 6.61679 28.5078 4.99228 27.0875 3.82124ZM7.85376 20.9037L13 15.7575V8.84499C12.9998 8.74644 12.9706 8.65015 12.9158 8.56819C12.8611 8.48624 12.7834 8.42228 12.6925 8.38435C12.6015 8.34642 12.5014 8.33621 12.4046 8.35501C12.3079 8.3738 12.2189 8.42076 12.1488 8.48999L7.58626 13C7.39996 13.1852 7.25222 13.4055 7.15159 13.6482C7.05097 13.8908 6.99944 14.151 7.00001 14.4137V20.55C6.99993 20.6489 7.02921 20.7457 7.08415 20.828C7.13908 20.9103 7.2172 20.9744 7.30861 21.0123C7.40002 21.0502 7.50062 21.0601 7.59766 21.0408C7.6947 21.0214 7.78383 20.9737 7.85376 20.9037Z" />
</svg>
