<svg viewBox="0 0 32 32"
    xmlns="http://www.w3.org/2000/svg">
    <path d="M25.5 16C25.5 16.3978 25.342 16.7794 25.0607 17.0607C24.7794 17.342 24.3978 17.5 24 17.5H8C7.60218 17.5 7.22064 17.342 6.93934 17.0607C6.65804 16.7794 6.5 16.3978 6.5 16C6.5 15.6022 6.65804 15.2206 6.93934 14.9393C7.22064 14.658 7.60218 14.5 8 14.5H24C24.3978 14.5 24.7794 14.658 25.0607 14.9393C25.342 15.2206 25.5 15.6022 25.5 16ZM29 8.5H3C2.60218 8.5 2.22064 8.65804 1.93934 8.93934C1.65804 9.22064 1.5 9.60218 1.5 10C1.5 10.3978 1.65804 10.7794 1.93934 11.0607C2.22064 11.342 2.60218 11.5 3 11.5H29C29.3978 11.5 29.7794 11.342 30.0607 11.0607C30.342 10.7794 30.5 10.3978 30.5 10C30.5 9.60218 30.342 9.22064 30.0607 8.93934C29.7794 8.65804 29.3978 8.5 29 8.5ZM19 20.5H13C12.6022 20.5 12.2206 20.658 11.9393 20.9393C11.658 21.2206 11.5 21.6022 11.5 22C11.5 22.3978 11.658 22.7794 11.9393 23.0607C12.2206 23.342 12.6022 23.5 13 23.5H19C19.3978 23.5 19.7794 23.342 20.0607 23.0607C20.342 22.7794 20.5 22.3978 20.5 22C20.5 21.6022 20.342 21.2206 20.0607 20.9393C19.7794 20.658 19.3978 20.5 19 20.5Z" />
</svg>
