<svg viewBox="0 0 32 32"
    xmlns="http://www.w3.org/2000/svg">
    <path d="M27 9.00001H16.4137L13 5.58626C12.8149 5.39984 12.5946 5.25203 12.3519 5.1514C12.1092 5.05077 11.849 4.99931 11.5863 5.00001H5C4.46957 5.00001 3.96086 5.21072 3.58579 5.58579C3.21071 5.96087 3 6.46957 3 7.00001V25.0775C3.00099 25.5873 3.20403 26.0759 3.56462 26.4363C3.92522 26.7966 4.41396 26.9993 4.92375 27H27.1112C27.612 26.9993 28.092 26.8001 28.4461 26.4461C28.8001 26.092 28.9993 25.612 29 25.1113V11C29 10.4696 28.7893 9.96087 28.4142 9.58579C28.0391 9.21072 27.5304 9.00001 27 9.00001ZM5 7.00001H11.5863L13.5863 9.00001H5V7.00001Z" />
</svg>
