<svg viewBox="0 0 32 32"
    xmlns="http://www.w3.org/2000/svg">
    <path d="M27 5H9C8.46957 5 7.96086 5.21071 7.58579 5.58579C7.21071 5.96086 7 6.46957 7 7V9H5C4.46957 9 3.96086 9.21071 3.58579 9.58579C3.21071 9.96086 3 10.4696 3 11V25C3 25.5304 3.21071 26.0391 3.58579 26.4142C3.96086 26.7893 4.46957 27 5 27H23C23.5304 27 24.0391 26.7893 24.4142 26.4142C24.7893 26.0391 25 25.5304 25 25V23H27C27.5304 23 28.0391 22.7893 28.4142 22.4142C28.7893 22.0391 29 21.5304 29 21V7C29 6.46957 28.7893 5.96086 28.4142 5.58579C28.0391 5.21071 27.5304 5 27 5ZM21.5 9C21.7967 9 22.0867 9.08797 22.3334 9.2528C22.58 9.41762 22.7723 9.65189 22.8858 9.92597C22.9993 10.2001 23.0291 10.5017 22.9712 10.7926C22.9133 11.0836 22.7704 11.3509 22.5607 11.5607C22.3509 11.7704 22.0836 11.9133 21.7926 11.9712C21.5017 12.0291 21.2001 11.9994 20.926 11.8858C20.6519 11.7723 20.4176 11.58 20.2528 11.3334C20.088 11.0867 20 10.7967 20 10.5C20 10.1022 20.158 9.72064 20.4393 9.43934C20.7206 9.15804 21.1022 9 21.5 9ZM23 25H5V11H7V21C7 21.5304 7.21071 22.0391 7.58579 22.4142C7.96086 22.7893 8.46957 23 9 23H23V25ZM27 21H9V16.5L13.5 12L19.7075 18.2075C19.895 18.3949 20.1493 18.5002 20.4144 18.5002C20.6795 18.5002 20.9337 18.3949 21.1213 18.2075L24.3288 15L27 17.6725V21Z" />
</svg>
