<svg viewBox="0 0 32 32"
    xmlns="http://www.w3.org/2000/svg">
    <path d="M17.0462 23.4412C17.1861 23.5806 17.297 23.7462 17.3727 23.9285C17.4485 24.1108 17.4874 24.3063 17.4874 24.5037C17.4874 24.7012 17.4485 24.8966 17.3727 25.079C17.297 25.2613 17.1861 25.4269 17.0462 25.5662L16.3037 26.3087C14.8968 27.7157 12.9885 28.5061 10.9987 28.5061C9.00898 28.5061 7.10071 27.7157 5.69374 26.3087C4.28677 24.9018 3.49634 22.9935 3.49634 21.0037C3.49634 19.014 4.28677 17.1057 5.69374 15.6987L8.70874 12.685C10.0606 11.3298 11.8795 10.5428 13.7928 10.4851C15.7061 10.4275 17.569 11.1036 19 12.375C19.1477 12.5063 19.2682 12.6655 19.3544 12.8433C19.4406 13.0212 19.491 13.2143 19.5026 13.4116C19.5142 13.6089 19.4868 13.8066 19.422 13.9934C19.3573 14.1801 19.2563 14.3523 19.125 14.5C18.9937 14.6477 18.8345 14.7682 18.6567 14.8544C18.4788 14.9406 18.2857 14.991 18.0884 15.0026C17.8911 15.0142 17.6934 14.9868 17.5066 14.922C17.3199 14.8573 17.1477 14.7563 17 14.625C16.1419 13.8629 15.025 13.4575 13.8779 13.4916C12.7307 13.5258 11.64 13.9969 10.8287 14.8087L7.81624 17.8187C6.97219 18.6628 6.49801 19.8076 6.49801 21.0012C6.49801 22.1949 6.97219 23.3397 7.81624 24.1837C8.66029 25.0278 9.80507 25.502 10.9987 25.502C12.1924 25.502 13.3372 25.0278 14.1812 24.1837L14.9237 23.4412C15.0631 23.3018 15.2285 23.1911 15.4106 23.1157C15.5927 23.0402 15.7879 23.0013 15.985 23.0013C16.1821 23.0013 16.3773 23.0402 16.5594 23.1157C16.7415 23.1911 16.9069 23.3018 17.0462 23.4412ZM26.3062 5.69124C24.8981 4.28643 22.9903 3.4975 21.0012 3.4975C19.0122 3.4975 17.1044 4.28643 15.6962 5.69124L14.9537 6.43374C14.6719 6.71554 14.5136 7.09773 14.5136 7.49624C14.5136 7.89476 14.6719 8.27695 14.9537 8.55874C15.2355 8.84054 15.6177 8.99885 16.0162 8.99885C16.4148 8.99885 16.7969 8.84054 17.0787 8.55874L17.8212 7.81624C18.6653 6.97219 19.8101 6.49801 21.0037 6.49801C22.1974 6.49801 23.3422 6.97219 24.1862 7.81624C25.0303 8.66029 25.5045 9.80507 25.5045 10.9987C25.5045 12.1924 25.0303 13.3372 24.1862 14.1812L21.1725 17.1962C20.3605 18.0077 19.2692 18.4782 18.1217 18.5114C16.9743 18.5446 15.8575 18.1381 15 17.375C14.8523 17.2437 14.6801 17.1427 14.4934 17.0779C14.3066 17.0132 14.1089 16.9858 13.9116 16.9974C13.7143 17.009 13.5212 17.0594 13.3433 17.1456C13.1654 17.2318 13.0063 17.3523 12.875 17.5C12.7437 17.6477 12.6427 17.8199 12.5779 18.0066C12.5132 18.1934 12.4858 18.3911 12.4974 18.5884C12.509 18.7857 12.5594 18.9788 12.6456 19.1567C12.7318 19.3345 12.8523 19.4937 13 19.625C14.43 20.8961 16.2917 21.5726 18.2041 21.5162C20.1165 21.4597 21.935 20.6745 23.2875 19.3212L26.3025 16.3075C27.7089 14.8997 28.4993 12.9914 28.5 11.0014C28.5007 9.01143 27.7117 7.10251 26.3062 5.69374V5.69124Z" />
</svg>
