<svg viewBox="0 0 32 32"
    xmlns="http://www.w3.org/2000/svg">
    <path d="M3.5 8C3.5 7.60218 3.65804 7.22064 3.93934 6.93934C4.22064 6.65804 4.60218 6.5 5 6.5H27C27.3978 6.5 27.7794 6.65804 28.0607 6.93934C28.342 7.22064 28.5 7.60218 28.5 8C28.5 8.39782 28.342 8.77936 28.0607 9.06066C27.7794 9.34196 27.3978 9.5 27 9.5H5C4.60218 9.5 4.22064 9.34196 3.93934 9.06066C3.65804 8.77936 3.5 8.39782 3.5 8ZM5 17.5H27C27.3978 17.5 27.7794 17.342 28.0607 17.0607C28.342 16.7794 28.5 16.3978 28.5 16C28.5 15.6022 28.342 15.2206 28.0607 14.9393C27.7794 14.658 27.3978 14.5 27 14.5H5C4.60218 14.5 4.22064 14.658 3.93934 14.9393C3.65804 15.2206 3.5 15.6022 3.5 16C3.5 16.3978 3.65804 16.7794 3.93934 17.0607C4.22064 17.342 4.60218 17.5 5 17.5ZM18 22.5H5C4.60218 22.5 4.22064 22.658 3.93934 22.9393C3.65804 23.2206 3.5 23.6022 3.5 24C3.5 24.3978 3.65804 24.7794 3.93934 25.0607C4.22064 25.342 4.60218 25.5 5 25.5H18C18.3978 25.5 18.7794 25.342 19.0607 25.0607C19.342 24.7794 19.5 24.3978 19.5 24C19.5 23.6022 19.342 23.2206 19.0607 22.9393C18.7794 22.658 18.3978 22.5 18 22.5ZM29 22.5H27.5V21C27.5 20.6022 27.342 20.2206 27.0607 19.9393C26.7794 19.658 26.3978 19.5 26 19.5C25.6022 19.5 25.2206 19.658 24.9393 19.9393C24.658 20.2206 24.5 20.6022 24.5 21V22.5H23C22.6022 22.5 22.2206 22.658 21.9393 22.9393C21.658 23.2206 21.5 23.6022 21.5 24C21.5 24.3978 21.658 24.7794 21.9393 25.0607C22.2206 25.342 22.6022 25.5 23 25.5H24.5V27C24.5 27.3978 24.658 27.7794 24.9393 28.0607C25.2206 28.342 25.6022 28.5 26 28.5C26.3978 28.5 26.7794 28.342 27.0607 28.0607C27.342 27.7794 27.5 27.3978 27.5 27V25.5H29C29.3978 25.5 29.7794 25.342 30.0607 25.0607C30.342 24.7794 30.5 24.3978 30.5 24C30.5 23.6022 30.342 23.2206 30.0607 22.9393C29.7794 22.658 29.3978 22.5 29 22.5Z" />
</svg>
