<svg width="16" height="16" viewBox="0 0 32 32"
    xmlns="http://www.w3.org/2000/svg">
    <path d="M28.4138 9.17122L22.8288 3.58497C22.643 3.39921 22.4225 3.25185 22.1799 3.15131C21.9372 3.05077 21.6771 2.99902 21.4144 2.99902C21.1517 2.99902 20.8916 3.05077 20.6489 3.15131C20.4062 3.25185 20.1857 3.39921 20 3.58497L4.58626 19C4.39973 19.185 4.25185 19.4053 4.15121 19.648C4.05057 19.8907 3.99917 20.151 4.00001 20.4137V26C4.00001 26.5304 4.21072 27.0391 4.5858 27.4142C4.96087 27.7893 5.46958 28 6.00001 28H11.5863C11.849 28.0008 12.1093 27.9494 12.352 27.8488C12.5947 27.7481 12.815 27.6002 13 27.4137L28.4138 12C28.5995 11.8142 28.7469 11.5937 28.8474 11.3511C28.948 11.1084 28.9997 10.8483 28.9997 10.5856C28.9997 10.3229 28.948 10.0628 28.8474 9.82012C28.7469 9.57744 28.5995 9.35695 28.4138 9.17122ZM24 13.585L18.4138 7.99997L21.4138 4.99997L27 10.585L24 13.585Z" />
</svg>
