<svg viewBox="0 0 32 32"
    xmlns="http://www.w3.org/2000/svg">
    <path d="M20.7225 28H26C26.5304 28 27.0391 27.7893 27.4142 27.4142C27.7893 27.0391 28 26.5304 28 26V21.2938C27.9991 21.1298 27.958 20.9685 27.8801 20.8242C27.8022 20.6798 27.6901 20.5569 27.5535 20.4661C27.4169 20.3753 27.2601 20.3195 27.0969 20.3037C26.9336 20.2878 26.769 20.3123 26.6175 20.375C26.2631 20.5214 25.8834 20.5965 25.5 20.5963C23.8463 20.5963 22.5 19.2087 22.5 17.505C22.5 15.8012 23.8463 14.4137 25.5 14.4137C25.8834 14.4135 26.2631 14.4886 26.6175 14.635C26.7698 14.6981 26.9353 14.7225 27.0994 14.7061C27.2634 14.6897 27.4208 14.6331 27.5577 14.5411C27.6945 14.4492 27.8065 14.3249 27.8836 14.1792C27.9608 14.0336 28.0008 13.8711 28 13.7063V9C28 8.46957 27.7893 7.96086 27.4142 7.58579C27.0391 7.21071 26.5304 7 26 7H21.4725C21.4911 6.83399 21.5003 6.66705 21.5 6.5C21.5 5.30653 21.0259 4.16193 20.182 3.31802C19.3381 2.47411 18.1935 2 17 2C15.8065 2 14.6619 2.47411 13.818 3.31802C12.9741 4.16193 12.5 5.30653 12.5 6.5C12.4997 6.66705 12.5089 6.83399 12.5275 7H8C7.46957 7 6.96086 7.21071 6.58579 7.58579C6.21071 7.96086 6 8.46957 6 9V13.0275C5.83399 13.0089 5.66705 12.9997 5.5 13C4.30653 13 3.16193 13.4741 2.31802 14.318C1.47411 15.1619 1 16.3065 1 17.5C1 18.6935 1.47411 19.8381 2.31802 20.682C3.16193 21.5259 4.30653 22 5.5 22C5.66705 22.0003 5.83399 21.9911 6 21.9725V26C6 26.5304 6.21071 27.0391 6.58579 27.4142C6.96086 27.7893 7.46957 28 8 28H13.2775" />
</svg>
