<svg viewBox="0 0 32 32"
    xmlns="http://www.w3.org/2000/svg">
    <path d="M29.0612 26.9388L23.125 21C24.9048 18.6806 25.7358 15.771 25.4493 12.8614C25.1628 9.95187 23.7803 7.26022 21.5823 5.3325C19.3842 3.40477 16.5351 2.38533 13.6131 2.48096C10.691 2.57659 7.91472 3.78014 5.8474 5.84746C3.78008 7.91478 2.57653 10.6911 2.4809 13.6131C2.38527 16.5352 3.40471 19.3842 5.33244 21.5823C7.26016 23.7804 9.95181 25.1629 12.8614 25.4494C15.7709 25.7359 18.6805 24.9049 21 23.125L26.9412 29.0675C27.0807 29.207 27.2464 29.3177 27.4287 29.3932C27.611 29.4687 27.8064 29.5076 28.0037 29.5076C28.201 29.5076 28.3964 29.4687 28.5787 29.3932C28.761 29.3177 28.9267 29.207 29.0662 29.0675C29.2057 28.928 29.3164 28.7623 29.3919 28.58C29.4674 28.3977 29.5063 28.2023 29.5063 28.005C29.5063 27.8077 29.4674 27.6123 29.3919 27.43C29.3164 27.2477 29.2057 27.082 29.0662 26.9425L29.0612 26.9388ZM5.49995 14C5.49995 12.3189 5.99847 10.6755 6.93246 9.27766C7.86645 7.87985 9.19397 6.79038 10.7471 6.14704C12.3003 5.50369 14.0094 5.33536 15.6582 5.66334C17.3071 5.99131 18.8216 6.80086 20.0104 7.9896C21.1991 9.17835 22.0087 10.6929 22.3366 12.3417C22.6646 13.9906 22.4963 15.6996 21.8529 17.2528C21.2096 18.806 20.1201 20.1335 18.7223 21.0675C17.3245 22.0015 15.6811 22.5 14 22.5C11.7463 22.4977 9.58566 21.6014 7.9921 20.0079C6.39854 18.4143 5.50227 16.2536 5.49995 14Z" />
</svg>
