<svg viewBox="0 0 32 32"
    xmlns="http://www.w3.org/2000/svg">
    <path d="M12 27C12 27.3956 11.8827 27.7822 11.6629 28.1111C11.4432 28.44 11.1308 28.6964 10.7654 28.8478C10.3999 28.9991 9.99778 29.0387 9.60982 28.9616C9.22186 28.8844 8.86549 28.6939 8.58579 28.4142C8.30608 28.1345 8.1156 27.7781 8.03843 27.3902C7.96126 27.0022 8.00087 26.6001 8.15224 26.2346C8.30362 25.8692 8.55996 25.5568 8.88886 25.3371C9.21776 25.1173 9.60444 25 10 25C10.5304 25 11.0391 25.2107 11.4142 25.5858C11.7893 25.9609 12 26.4696 12 27ZM23 25C22.6044 25 22.2178 25.1173 21.8889 25.3371C21.56 25.5568 21.3036 25.8692 21.1522 26.2346C21.0009 26.6001 20.9613 27.0022 21.0384 27.3902C21.1156 27.7781 21.3061 28.1345 21.5858 28.4142C21.8655 28.6939 22.2219 28.8844 22.6098 28.9616C22.9978 29.0387 23.3999 28.9991 23.7654 28.8478C24.1308 28.6964 24.4432 28.44 24.6629 28.1111C24.8827 27.7822 25 27.3956 25 27C25 26.4696 24.7893 25.9609 24.4142 25.5858C24.0391 25.2107 23.5304 25 23 25ZM28.805 8.40625C28.712 8.28023 28.5907 8.17781 28.4509 8.10724C28.3111 8.03668 28.1566 7.99995 28 8H6.04L5.02625 4.45C4.90526 4.03293 4.65246 3.66626 4.30567 3.40487C3.95888 3.14349 3.53676 3.00144 3.1025 3H1C0.734784 3 0.48043 3.10536 0.292893 3.29289C0.105357 3.48043 0 3.73478 0 4C0 4.26522 0.105357 4.51957 0.292893 4.70711C0.48043 4.89464 0.734784 5 1 5H3.1025L7.625 20.8237C7.80598 21.4494 8.18477 21.9996 8.70463 22.3919C9.2245 22.7842 9.85747 22.9976 10.5087 23H22.5225C23.1646 23.0022 23.7903 22.7975 24.3068 22.416C24.8234 22.0346 25.2032 21.4968 25.39 20.8825L28.9562 9.29375C29.0022 9.14429 29.0124 8.98615 28.9861 8.83202C28.9599 8.67788 28.8978 8.53206 28.805 8.40625Z" />
</svg>
