<svg width="32" height="32" viewBox="0 0 32 32" fill="none" xmlns="http://www.w3.org/2000/svg">
<path d="M27.5 21.1363L16 27.8425L4.50003 21.1363C4.27233 21.0229 4.00999 21.0006 3.76641 21.0738C3.52282 21.147 3.3163 21.3103 3.18887 21.5305C3.06144 21.7506 3.02268 22.011 3.08049 22.2587C3.1383 22.5064 3.28832 22.7228 3.50003 22.8638L15.5 29.8638C15.6529 29.9529 15.8268 29.9999 16.0038 29.9999C16.1808 29.9999 16.3546 29.9529 16.5075 29.8638L28.5075 22.8638C28.6228 22.7986 28.7239 22.7111 28.8051 22.6065C28.8863 22.5019 28.9459 22.3822 28.9805 22.2543C29.015 22.1265 29.0238 21.9931 29.0064 21.8618C28.989 21.7305 28.9456 21.604 28.8789 21.4896C28.8122 21.3752 28.7234 21.2752 28.6178 21.1954C28.5121 21.1156 28.3916 21.0576 28.2633 21.0247C28.1351 20.9918 28.0015 20.9848 27.8705 21.0039C27.7395 21.0231 27.6135 21.0681 27.5 21.1363Z" fill="#32324D"/>
<path d="M27.5 15.1363L16 21.8425L4.50003 15.1363C4.27233 15.0229 4.00999 15.0006 3.76641 15.0738C3.52282 15.147 3.3163 15.3103 3.18887 15.5305C3.06144 15.7506 3.02268 16.011 3.08049 16.2587C3.1383 16.5064 3.28832 16.7228 3.50003 16.8638L15.5 23.8638C15.6529 23.9529 15.8268 23.9999 16.0038 23.9999C16.1808 23.9999 16.3546 23.9529 16.5075 23.8638L28.5075 16.8638C28.6228 16.7986 28.7239 16.7111 28.8051 16.6065C28.8863 16.5019 28.9459 16.3822 28.9805 16.2543C29.015 16.1265 29.0238 15.9931 29.0064 15.8618C28.989 15.7305 28.9456 15.604 28.8789 15.4896C28.8122 15.3752 28.7234 15.2752 28.6178 15.1954C28.5121 15.1156 28.3916 15.0576 28.2633 15.0247C28.1351 14.9918 28.0015 14.9848 27.8705 15.0039C27.7395 15.0231 27.6135 15.0681 27.5 15.1363Z" fill="#32324D"/>
<path d="M3.49999 10.8637L15.5 17.8637C15.6529 17.9528 15.8267 17.9998 16.0037 17.9998C16.1807 17.9998 16.3546 17.9528 16.5075 17.8637L28.5075 10.8637C28.6584 10.7756 28.7837 10.6495 28.8707 10.4979C28.9578 10.3464 29.0036 10.1747 29.0036 9.9999C29.0036 9.82513 28.9578 9.65342 28.8707 9.50187C28.7837 9.35031 28.6584 9.22422 28.5075 9.13615L16.5075 2.13615C16.3546 2.04698 16.1807 2 16.0037 2C15.8267 2 15.6529 2.04698 15.5 2.13615L3.49999 9.13615C3.34903 9.22422 3.22379 9.35031 3.13675 9.50187C3.04971 9.65342 3.00391 9.82513 3.00391 9.9999C3.00391 10.1747 3.04971 10.3464 3.13675 10.4979C3.22379 10.6495 3.34903 10.7756 3.49999 10.8637Z" fill="#32324D"/>
</svg>
