<svg width="16" height="16" viewBox="0 0 24 24" fill="none" xmlns="http://www.w3.org/2000/svg">
<path d="M24 13.6045C24 13.7701 23.8657 13.9045 23.7 13.9045H13.9045V23.7C13.9045 23.8657 13.7701 24 13.6045 24H10.3955C10.2299 24 10.0955 23.8657 10.0955 23.7V13.9045H0.3C0.134314 13.9045 0 13.7701 0 13.6045V10.3955C0 10.2299 0.134315 10.0955 0.3 10.0955H10.0955V0.3C10.0955 0.134314 10.2299 0 10.3955 0H13.6045C13.7701 0 13.9045 0.134315 13.9045 0.3V10.0955H23.7C23.8657 10.0955 24 10.2299 24 10.3955V13.6045Z" fill="#212134"/>
</svg>
