<svg width="0.75rem" height="0.75rem" viewBox="0 0 12 12" fill="none" xmlns="http://www.w3.org/2000/svg" aria-hidden="true"><path fill-rule="evenodd" clip-rule="evenodd" d="M8.68039 6.9818L5.73051 10.1611C5.34193 10.5798 5.35189 11.2671 5.73051 11.6859C6.11909 12.1047 6.74678 12.1047 7.13537 11.6859L11.7086 6.75703C12.0971 6.33824 12.0971 5.66173 11.7086 5.24294L7.13537 0.314093C6.74678 -0.104698 6.11909 -0.104698 5.73051 0.314093C5.54393 0.514717 5.43909 0.787094 5.43909 1.07114C5.43909 1.35518 5.54393 1.62756 5.73051 1.82819L8.69035 5.01817H1.06526C0.476931 5.01817 0 5.45774 0 5.99999C0 6.54223 0.476931 6.9818 1.06526 6.9818H8.68039Z" fill="currentColor"/></svg>
