<svg width="16" height="16" viewBox="0 0 33 33" fill="none" xmlns="http://www.w3.org/2000/svg">
<path d="M27.4874 5.33643H9.48737C8.95693 5.33643 8.44823 5.54714 8.07315 5.92221C7.69808 6.29728 7.48737 6.80599 7.48737 7.33643V9.33643H5.48737C4.95693 9.33643 4.44822 9.54714 4.07315 9.92221C3.69808 10.2973 3.48737 10.806 3.48737 11.3364V25.3364C3.48737 25.8669 3.69808 26.3756 4.07315 26.7506C4.44822 27.1257 4.95693 27.3364 5.48737 27.3364H23.4874C24.0178 27.3364 24.5265 27.1257 24.9016 26.7506C25.2767 26.3756 25.4874 25.8669 25.4874 25.3364V23.3364H27.4874C28.0178 23.3364 28.5265 23.1257 28.9016 22.7506C29.2767 22.3756 29.4874 21.8669 29.4874 21.3364V7.33643C29.4874 6.80599 29.2767 6.29728 28.9016 5.92221C28.5265 5.54714 28.0178 5.33643 27.4874 5.33643ZM23.4874 11.3364V13.3364H5.48737V11.3364H23.4874ZM27.4874 21.3364H25.4874V11.3364C25.4874 10.806 25.2767 10.2973 24.9016 9.92221C24.5265 9.54714 24.0178 9.33643 23.4874 9.33643H9.48737V7.33643H27.4874V21.3364Z" fill="#32324D"/>
</svg>
