<svg width="22" height="19" viewBox="0 0 22 19" fill="none" xmlns="http://www.w3.org/2000/svg">
<path d="M15.9999 5C14.3712 4.99986 12.7812 5.49666 11.4423 6.42404C10.1034 7.35142 9.07935 8.66523 8.50687 10.19L10.3809 10.893C10.8759 9.5784 11.8163 8.47907 13.0383 7.78642C14.2604 7.09376 15.6867 6.85168 17.0688 7.10232C18.451 7.35297 19.7014 8.08045 20.6025 9.1581C21.5035 10.2358 21.998 11.5953 21.9999 13C21.9999 14.5913 21.3677 16.1174 20.2425 17.2426C19.1173 18.3679 17.5912 19 15.9999 19H5.99987C4.5831 19.0009 3.21172 18.5004 2.12856 17.5872C1.0454 16.6739 0.320345 15.4069 0.0817801 14.0103C-0.156785 12.6138 0.106532 11.1779 0.825107 9.95685C1.54368 8.73583 2.67115 7.80848 4.00787 7.339C3.92222 5.61162 4.47908 3.91368 5.57109 2.57252C6.66311 1.23136 8.21296 0.341949 9.92185 0.0757448C11.6307 -0.190459 13.3777 0.185395 14.8259 1.13085C16.2741 2.0763 17.3211 3.52441 17.7649 5.196C17.1856 5.06559 16.5936 4.99985 15.9999 5Z" fill="currentColor"/>
</svg>
