<svg width="16" height="16" viewBox="0 0 32 32" fill="none" xmlns="http://www.w3.org/2000/svg">
<path d="M8.95999 12.1525L4.34249 16L8.95999 19.8475C9.11312 19.973 9.2399 20.1276 9.333 20.3023C9.42611 20.4771 9.4837 20.6685 9.50245 20.8656C9.52121 21.0627 9.50076 21.2616 9.44228 21.4507C9.3838 21.6399 9.28845 21.8156 9.16174 21.9677C9.03502 22.1199 8.87943 22.2454 8.70396 22.3371C8.52849 22.4288 8.33659 22.4849 8.13935 22.502C7.9421 22.5192 7.74341 22.4972 7.55472 22.4372C7.36604 22.3772 7.1911 22.2804 7.03999 22.1525L1.03999 17.1525C0.871 17.0117 0.735038 16.8355 0.641733 16.6364C0.548427 16.4372 0.500061 16.22 0.500061 16C0.500061 15.7801 0.548427 15.5628 0.641733 15.3637C0.735038 15.1645 0.871 14.9883 1.03999 14.8475L7.03999 9.84752C7.34608 9.59667 7.7389 9.47695 8.13287 9.51444C8.52683 9.55193 8.89002 9.74359 9.14331 10.0477C9.3966 10.3517 9.51945 10.7436 9.48512 11.1378C9.45078 11.5321 9.26203 11.8968 8.95999 12.1525ZM30.96 14.8475L24.96 9.84752C24.8089 9.71959 24.6339 9.62284 24.4452 9.56285C24.2566 9.50286 24.0579 9.48082 23.8606 9.498C23.6634 9.51518 23.4715 9.57124 23.296 9.66294C23.1205 9.75465 22.965 9.88019 22.8382 10.0323C22.7115 10.1844 22.6162 10.3602 22.5577 10.5493C22.4992 10.7385 22.4788 10.9373 22.4975 11.1344C22.5163 11.3315 22.5739 11.523 22.667 11.6977C22.7601 11.8724 22.8869 12.027 23.04 12.1525L27.6575 16L23.04 19.8475C22.8869 19.973 22.7601 20.1276 22.667 20.3023C22.5739 20.4771 22.5163 20.6685 22.4975 20.8656C22.4788 21.0627 22.4992 21.2616 22.5577 21.4507C22.6162 21.6399 22.7115 21.8156 22.8382 21.9677C22.965 22.1199 23.1205 22.2454 23.296 22.3371C23.4715 22.4288 23.6634 22.4849 23.8606 22.502C24.0579 22.5192 24.2566 22.4972 24.4452 22.4372C24.6339 22.3772 24.8089 22.2804 24.96 22.1525L30.96 17.1525C31.129 17.0117 31.2649 16.8355 31.3582 16.6364C31.4515 16.4372 31.4999 16.22 31.4999 16C31.4999 15.7801 31.4515 15.5628 31.3582 15.3637C31.2649 15.1645 31.129 14.9883 30.96 14.8475ZM20.5125 3.59002C20.3273 3.52268 20.1307 3.49248 19.9339 3.50115C19.737 3.50981 19.5438 3.55717 19.3653 3.64051C19.1868 3.72386 19.0264 3.84155 18.8934 3.98689C18.7604 4.13222 18.6573 4.30233 18.59 4.48752L10.59 26.4875C10.4544 26.8613 10.4727 27.2737 10.641 27.6339C10.8093 27.9942 11.1138 28.2729 11.4875 28.4088C11.6516 28.4694 11.8251 28.5003 12 28.5C12.308 28.5001 12.6085 28.4053 12.8607 28.2287C13.113 28.052 13.3048 27.802 13.41 27.5125L21.41 5.51252C21.4773 5.32736 21.5075 5.13074 21.4989 4.93391C21.4902 4.73707 21.4428 4.54387 21.3595 4.36535C21.2761 4.18682 21.1585 4.02646 21.0131 3.89342C20.8678 3.76039 20.6977 3.65729 20.5125 3.59002Z" fill="#32324D"/>
</svg>
