<svg width="16" height="16" viewBox="0 0 24 24" fill="none" xmlns="http://www.w3.org/2000/svg">
<path fill-rule="evenodd" clip-rule="evenodd" d="M21.2552 12C21.2552 12.408 21.2182 12.792 21.1688 13.176L23.7719 15.156C24.0063 15.336 24.068 15.66 23.9199 15.924L21.4526 20.076C21.3046 20.34 20.9838 20.448 20.7001 20.34L17.6282 19.14C16.9867 19.608 16.2959 20.016 15.5433 20.316L15.0745 23.496C15.0375 23.784 14.7785 24 14.4701 24H9.5354C9.22698 24 8.96791 23.784 8.9309 23.496L8.46211 20.316C7.70957 20.016 7.01872 19.62 6.37722 19.14L3.30539 20.34C3.03399 20.436 2.7009 20.34 2.55286 20.076L0.0855319 15.924C-0.0625078 15.66 -0.000824577 15.336 0.233572 15.156L2.8366 13.176C2.78726 12.792 2.75025 12.396 2.75025 12C2.75025 11.604 2.78726 11.208 2.8366 10.824L0.233572 8.844C-0.000824577 8.664 -0.0748444 8.34 0.0855319 8.076L2.55286 3.924C2.7009 3.66 3.02165 3.552 3.30539 3.66L6.37722 4.86C7.01872 4.392 7.70957 3.984 8.46211 3.684L8.9309 0.504C8.96791 0.216 9.22698 0 9.5354 0H14.4701C14.7785 0 15.0375 0.216 15.0745 0.504L15.5433 3.684C16.2959 3.984 16.9867 4.38 17.6282 4.86L20.7001 3.66C20.9715 3.564 21.3046 3.66 21.4526 3.924L23.9199 8.076C24.068 8.34 24.0063 8.664 23.7719 8.844L21.1688 10.824C21.2182 11.208 21.2552 11.592 21.2552 12ZM7.68506 11.9998C7.68506 14.3158 9.62191 16.1998 12.0029 16.1998C14.3839 16.1998 16.3207 14.3158 16.3207 11.9998C16.3207 9.6838 14.3839 7.7998 12.0029 7.7998C9.62191 7.7998 7.68506 9.6838 7.68506 11.9998Z" fill="#212134"/>
</svg>
