<svg width="14" height="14" viewBox="0 0 14 14" fill="none" xmlns="http://www.w3.org/2000/svg">
<path d="M6.99967 13.6668C3.31777 13.6668 0.333008 10.682 0.333008 7.00015C0.333008 3.31826 3.31777 0.333496 6.99967 0.333496C10.6815 0.333496 13.6663 3.31826 13.6663 7.00015C13.6663 10.682 10.6815 13.6668 6.99967 13.6668ZM6.99967 12.3335C9.94521 12.3335 12.333 9.94568 12.333 7.00015C12.333 4.05464 9.94521 1.66683 6.99967 1.66683C4.05415 1.66683 1.66634 4.05464 1.66634 7.00015C1.66634 9.94568 4.05415 12.3335 6.99967 12.3335ZM6.99967 6.05736L8.88527 4.17173L9.82807 5.11454L7.94247 7.00015L9.82807 8.88575L8.88527 9.82855L6.99967 7.94295L5.11405 9.82855L4.17125 8.88575L6.05687 7.00015L4.17125 5.11454L5.11405 4.17173L6.99967 6.05736Z" fill="#8E8EA9"/>
</svg>
