<svg width="16" height="16" viewBox="0 0 16 16" fill="none" xmlns="http://www.w3.org/2000/svg">
<circle cx="8" cy="8" r="8" fill="#D02B20"/>
<path d="M11.125 5.46136C11.2129 5.54923 11.2129 5.69169 11.125 5.77956L8.9046 8L11.125 10.2204C11.2129 10.3083 11.2129 10.4508 11.125 10.5386L10.5455 11.1182C10.4576 11.2061 10.3151 11.2061 10.2273 11.1182L8.00683 8.89777L5.78639 11.1182C5.69852 11.2061 5.55606 11.2061 5.46819 11.1182L4.88862 10.5386C4.80075 10.4508 4.80075 10.3083 4.88862 10.2204L7.10906 8L4.88862 5.77956C4.80075 5.69169 4.80075 5.54923 4.88862 5.46136L5.46819 4.88179C5.55606 4.79392 5.69852 4.79392 5.78639 4.88179L8.00683 7.10223L10.2273 4.88179C10.3151 4.79392 10.4576 4.79392 10.5455 4.88179L11.125 5.46136Z" fill="#F6F6F9"/>
</svg>
