<svg width="24" height="24" viewBox="0 0 24 24" fill="none" xmlns="http://www.w3.org/2000/svg">
<path d="M6.2399 11.28H17.9997V12.7199H6.2399V11.28Z" fill="#212134"/>
<path d="M5.87079 10.6991L14.2176 4.52278L15.0779 5.68546L6.73113 11.8618L5.87079 10.6991Z" fill="#212134"/>
<path d="M5.89841 13.3542L14.2452 19.5305L15.109 18.3632L6.76219 12.1869L5.89841 13.3542Z" fill="#212134"/>
<path fill-rule="evenodd" clip-rule="evenodd" d="M3.59969 14.3988C4.92515 14.3988 5.99965 13.3243 5.99965 11.9988C5.99965 10.6733 4.92515 9.59884 3.59969 9.59884C2.27423 9.59884 1.19973 10.6733 1.19973 11.9988C1.19973 13.3243 2.27423 14.3988 3.59969 14.3988ZM3.59969 15.5987C5.58788 15.5987 7.19963 13.987 7.19963 11.9988C7.19963 10.0106 5.58788 8.39886 3.59969 8.39886C1.6115 8.39886 -0.000244141 10.0106 -0.000244141 11.9988C-0.000244141 13.987 1.6115 15.5987 3.59969 15.5987Z" fill="#212134"/>
<path fill-rule="evenodd" clip-rule="evenodd" d="M20.4 14.3988C21.7254 14.3988 22.7999 13.3243 22.7999 11.9988C22.7999 10.6733 21.7254 9.59884 20.4 9.59884C19.0745 9.59884 18 10.6733 18 11.9988C18 13.3243 19.0745 14.3988 20.4 14.3988ZM20.4 15.5987C22.3882 15.5987 23.9999 13.987 23.9999 11.9988C23.9999 10.0106 22.3882 8.39886 20.4 8.39886C18.4118 8.39886 16.8 10.0106 16.8 11.9988C16.8 13.987 18.4118 15.5987 20.4 15.5987Z" fill="#212134"/>
<path fill-rule="evenodd" clip-rule="evenodd" d="M16.7999 22.801C18.1253 22.801 19.1998 21.7265 19.1998 20.4011C19.1998 19.0756 18.1253 18.0011 16.7999 18.0011C15.4744 18.0011 14.3999 19.0756 14.3999 20.4011C14.3999 21.7265 15.4744 22.801 16.7999 22.801ZM16.7999 24.001C18.788 24.001 20.3998 22.3893 20.3998 20.4011C20.3998 18.4129 18.788 16.8011 16.7999 16.8011C14.8117 16.8011 13.1999 18.4129 13.1999 20.4011C13.1999 22.3893 14.8117 24.001 16.7999 24.001Z" fill="#212134"/>
<path fill-rule="evenodd" clip-rule="evenodd" d="M16.7999 5.99989C18.1253 5.99989 19.1998 4.9254 19.1998 3.59994C19.1998 2.27448 18.1253 1.19998 16.7999 1.19998C15.4744 1.19998 14.3999 2.27448 14.3999 3.59994C14.3999 4.9254 15.4744 5.99989 16.7999 5.99989ZM16.7999 7.19987C18.788 7.19987 20.3998 5.58813 20.3998 3.59994C20.3998 1.61175 18.788 0 16.7999 0C14.8117 0 13.1999 1.61175 13.1999 3.59994C13.1999 5.58813 14.8117 7.19987 16.7999 7.19987Z" fill="#212134"/>
</svg>
