<svg width="24" height="24" viewBox="0 0 24 24" fill="none" xmlns="http://www.w3.org/2000/svg">
<path d="M17.7597 11.28H5.99996V12.7199H17.7597V11.28Z" fill="#212134"/>
<path d="M18.1289 10.6991L9.78207 4.52278L8.92173 5.68546L17.2685 11.8618L18.1289 10.6991Z" fill="#212134"/>
<path d="M18.1013 13.3542L9.75449 19.5305L8.8907 18.3632L17.2375 12.1869L18.1013 13.3542Z" fill="#212134"/>
<path fill-rule="evenodd" clip-rule="evenodd" d="M20.4 14.3988C19.0745 14.3988 18 13.3243 18 11.9988C18 10.6733 19.0745 9.59884 20.4 9.59884C21.7254 9.59884 22.7999 10.6733 22.7999 11.9988C22.7999 13.3243 21.7254 14.3988 20.4 14.3988ZM20.4 15.5987C18.4118 15.5987 16.8 13.987 16.8 11.9988C16.8 10.0106 18.4118 8.39886 20.4 8.39886C22.3882 8.39886 23.9999 10.0106 23.9999 11.9988C23.9999 13.987 22.3882 15.5987 20.4 15.5987Z" fill="#212134"/>
<path fill-rule="evenodd" clip-rule="evenodd" d="M3.59969 14.3988C2.27423 14.3988 1.19973 13.3243 1.19973 11.9988C1.19973 10.6733 2.27423 9.59884 3.59969 9.59884C4.92515 9.59884 5.99965 10.6733 5.99965 11.9988C5.99965 13.3243 4.92515 14.3988 3.59969 14.3988ZM3.59969 15.5987C1.6115 15.5987 -0.000244141 13.987 -0.000244141 11.9988C-0.000244141 10.0106 1.6115 8.39886 3.59969 8.39886C5.58788 8.39886 7.19963 10.0106 7.19963 11.9988C7.19963 13.987 5.58788 15.5987 3.59969 15.5987Z" fill="#212134"/>
<path fill-rule="evenodd" clip-rule="evenodd" d="M7.19979 22.801C5.87433 22.801 4.79983 21.7265 4.79983 20.4011C4.79983 19.0756 5.87433 18.0011 7.19979 18.0011C8.52525 18.0011 9.59975 19.0756 9.59975 20.4011C9.59975 21.7265 8.52525 22.801 7.19979 22.801ZM7.19979 24.001C5.2116 24.001 3.59985 22.3893 3.59985 20.4011C3.59985 18.4129 5.2116 16.8011 7.19979 16.8011C9.18798 16.8011 10.7997 18.4129 10.7997 20.4011C10.7997 22.3893 9.18798 24.001 7.19979 24.001Z" fill="#212134"/>
<path fill-rule="evenodd" clip-rule="evenodd" d="M7.19979 5.99989C5.87433 5.99989 4.79983 4.9254 4.79983 3.59994C4.79983 2.27448 5.87433 1.19998 7.19979 1.19998C8.52525 1.19998 9.59975 2.27448 9.59975 3.59994C9.59975 4.9254 8.52525 5.99989 7.19979 5.99989ZM7.19979 7.19987C5.2116 7.19987 3.59985 5.58813 3.59985 3.59994C3.59985 1.61175 5.2116 0 7.19979 0C9.18798 0 10.7997 1.61175 10.7997 3.59994C10.7997 5.58813 9.18798 7.19987 7.19979 7.19987Z" fill="#212134"/>
</svg>
