<svg width="32" height="24" viewBox="0 0 32 24" fill="none" xmlns="http://www.w3.org/2000/svg">
<rect x="0.5" y="0.5" width="31" height="23" rx="2.5" fill="#EAFBE7" stroke="#C6F0C2"/>
<path d="M8.61914 16H10.4766L11.1035 13.9492H14.0859L14.7129 16H16.5762L13.6348 7.54492H11.5547L8.61914 16ZM12.5449 9.23242H12.6504L13.6816 12.625H11.5078L12.5449 9.23242ZM21.6504 16.0996C23.2617 16.0996 24.2695 14.8398 24.2695 12.7773V12.7656C24.2695 10.6914 23.2852 9.44336 21.6504 9.44336C20.7656 9.44336 20.0449 9.87695 19.7168 10.5801H19.6113V7.08203H17.9004V16H19.6113V14.998H19.7168C20.0508 15.6953 20.7363 16.0996 21.6504 16.0996ZM21.0645 14.6816C20.1621 14.6816 19.5938 13.9668 19.5938 12.7832V12.7715C19.5938 11.5879 20.168 10.8613 21.0645 10.8613C21.9668 10.8613 22.5293 11.5879 22.5293 12.7656V12.7773C22.5293 13.9668 21.9727 14.6816 21.0645 14.6816Z" fill="#328048"/>
</svg>
