<svg width="32" height="24" viewBox="0 0 32 24" fill="none" xmlns="http://www.w3.org/2000/svg">
<rect x="0.5" y="0.5" width="31" height="23" rx="2.5" fill="#FCECEA" stroke="#F5C0B8"/>
<path d="M16.7666 17.4902C17.4912 17.4902 18.1953 17.4014 18.7285 17.2373V16.1436C18.3457 16.2871 17.6006 16.3828 16.8691 16.3828C13.9639 16.3828 12.125 14.6191 12.125 11.8369V11.8232C12.125 9.08887 13.9639 7.18164 16.6094 7.18164C19.207 7.18164 20.916 8.80176 20.916 11.2695V11.2832C20.916 12.6846 20.4717 13.5869 19.7812 13.5869C19.3643 13.5869 19.125 13.2998 19.125 12.8145V9.15723H17.7441V9.97754H17.6211C17.3477 9.36914 16.7529 9.00684 16.0215 9.00684C14.6543 9.00684 13.7246 10.1416 13.7246 11.7959V11.8096C13.7246 13.5391 14.668 14.6943 16.0898 14.6943C16.8828 14.6943 17.4434 14.332 17.7305 13.6416H17.8535L17.8604 13.6826C18.0176 14.3184 18.6396 14.7148 19.4805 14.7148C21.1348 14.7148 22.167 13.3477 22.167 11.1807V11.167C22.167 8.15918 19.9248 6.09473 16.6504 6.09473C13.2324 6.09473 10.874 8.41895 10.874 11.7891V11.8027C10.874 15.2344 13.2051 17.4902 16.7666 17.4902ZM16.4248 13.4365C15.707 13.4365 15.2764 12.835 15.2764 11.8506V11.8369C15.2764 10.8457 15.707 10.251 16.4316 10.251C17.1562 10.251 17.6143 10.8594 17.6143 11.8369V11.8506C17.6143 12.8281 17.1562 13.4365 16.4248 13.4365Z" fill="#D02B20"/>
</svg>
