<svg width="14" height="14" viewBox="0 0 14 14" fill="none" xmlns="http://www.w3.org/2000/svg">
<path d="M3.1564 3.30235C2.23368 4.26114 1.66634 5.5644 1.66634 7.00015C1.66634 9.94568 4.05415 12.3335 6.99967 12.3335C7.72021 12.3335 8.40741 12.1906 9.03441 11.9316C9.11107 11.4313 8.94287 10.9512 8.87407 10.7832C8.72101 10.4101 8.21574 9.77228 7.37227 8.88735C7.14714 8.65069 7.16161 8.46915 7.24207 7.92969L7.25134 7.86875C7.30601 7.49922 7.39774 7.28075 8.64114 7.08335C9.27281 6.98322 9.43894 7.23569 9.66921 7.58529C9.69467 7.62402 9.72014 7.66202 9.74621 7.70009C9.96494 8.01995 10.127 8.09309 10.3718 8.20442C10.4815 8.25415 10.6183 8.31689 10.8017 8.42109C11.2364 8.66949 11.2364 8.94995 11.2364 9.56495V9.63468C11.2364 9.89575 11.2109 10.125 11.1707 10.3241C11.8982 9.41248 12.333 8.25709 12.333 7.00015C12.333 4.80075 11.0017 2.91229 9.10094 2.09671C8.73214 2.34558 8.22621 2.69833 8.04967 2.94016C7.95941 3.06375 7.83181 3.6946 7.41681 3.74666C7.30807 3.76031 7.16221 3.75075 7.00767 3.7408C6.59334 3.71388 6.02647 3.67753 5.84501 4.17012C5.72981 4.48229 5.70954 5.32979 6.08227 5.76969C6.14194 5.83996 6.15347 5.96996 6.11294 6.11582C6.05967 6.30735 5.95207 6.42389 5.91854 6.44795C5.85427 6.41102 5.72607 6.26222 5.63926 6.16096C5.43003 5.91782 5.16904 5.61504 4.83165 5.52133C4.70897 5.48738 4.57411 5.45927 4.44333 5.43173C4.07727 5.355 3.66263 5.26772 3.56629 5.06217C3.49595 4.91162 3.49626 4.7043 3.49653 4.48525C3.49653 4.20762 3.49653 3.89368 3.36053 3.58853C3.30798 3.47043 3.2376 3.37647 3.1564 3.30235ZM6.99967 13.6668C3.31777 13.6668 0.333008 10.682 0.333008 7.00015C0.333008 3.31826 3.31777 0.333496 6.99967 0.333496C10.6815 0.333496 13.6663 3.31826 13.6663 7.00015C13.6663 10.682 10.6815 13.6668 6.99967 13.6668Z" fill="#D02B20"/>
</svg>
