<svg width="16" height="16" viewBox="0 0 24 24" fill="none" xmlns="http://www.w3.org/2000/svg">
<path d="M1.0557 24H16.9619C17.5449 24 18.0176 23.5273 18.0176 22.9443V7.02757C18.0176 6.44451 17.5449 5.97185 16.9619 5.97185H1.0557C0.472645 5.97185 -1.71661e-05 6.44451 -1.71661e-05 7.02757V22.9443C-1.71661e-05 23.5273 0.472645 24 1.0557 24Z" fill="#212134"/>
<path d="M8.09384 2.11142H21.8886V15.9061H20.7625V18.0176H22.9443C23.2243 18.0176 23.4928 17.9064 23.6908 17.7084C23.8888 17.5104 24 17.2419 24 16.9619V1.0557C24 0.775707 23.8888 0.507181 23.6908 0.309195C23.4928 0.11121 23.2243 -1.71661e-05 22.9443 -1.71661e-05H7.03812C6.75813 -1.71661e-05 6.4896 0.11121 6.29162 0.309195C6.09363 0.507181 5.9824 0.775707 5.9824 1.0557V3.3079H8.09384V2.11142Z" fill="#212134"/>
</svg>
