<svg width="16" height="16" viewBox="0 0 24 24" fill="none" xmlns="http://www.w3.org/2000/svg">
<path d="M16.2351 2.82379C15.4554 2.82379 14.823 2.19148 14.823 1.41175C14.823 0.632314 15.4554 0 16.2351 0H22.5883C23.3674 0 24 0.632914 24 1.41175V7.76521C24 8.54464 23.3677 9.17696 22.5883 9.17696C21.8088 9.17696 21.1765 8.54464 21.1765 7.76521V4.81982L12.9982 12.9982C12.4469 13.5491 11.5531 13.5491 11.0018 12.9982C10.4509 12.4469 10.4509 11.5531 11.0018 11.0018L19.1802 2.82379H16.2351ZM21.1765 13.4119C21.1765 12.6322 21.8088 12.0001 22.5883 12.0001C23.3677 12.0001 24 12.6322 24 13.4119V22.5883C24 23.3677 23.3677 24 22.5883 24H1.41175C0.632314 24 0 23.3677 0 22.5883V1.41175C0 0.632314 0.632314 0 1.41175 0H10.5881C11.3678 0 12.0001 0.632314 12.0001 1.41175C12.0001 2.19148 11.3678 2.82379 10.5881 2.82379H2.82379V21.1765H21.1765V13.4119Z" fill="#32324D"/>
</svg>
