<svg width="24" height="24" viewBox="0 0 24 24" fill="none" xmlns="http://www.w3.org/2000/svg">
<path d="M15.2009 12.0008C15.2009 13.7681 13.7682 15.2007 12.0009 15.2007C10.2336 15.2007 8.8009 13.7681 8.8009 12.0008C8.8009 10.2335 10.2336 8.80078 12.0009 8.80078C13.7682 8.80078 15.2009 10.2335 15.2009 12.0008Z" fill="#181826"/>
<path fill-rule="evenodd" clip-rule="evenodd" d="M18.7794 6.10349C20.7034 7.34598 22.4198 9.08396 23.7428 11.13C23.9099 11.3888 23.9991 11.6901 24 11.9982C24.0009 12.3063 23.9134 12.6081 23.7478 12.8679C22.4298 14.9309 20.7169 16.6754 18.7939 17.9139C16.6744 19.2784 14.3194 19.9999 11.9839 19.9999C9.59593 19.9999 7.30095 19.2999 5.16846 17.9184C3.27447 16.6929 1.57499 14.9524 0.254495 12.8859C0.0830549 12.6199 -0.00543899 12.309 0.000258814 11.9926C0.00595662 11.6762 0.105589 11.3686 0.286495 11.109C1.88898 8.81147 3.73397 7.02698 5.77046 5.80549C7.76744 4.6075 9.85793 4 11.9839 4C14.3009 4 16.6509 4.7275 18.7794 6.10349ZM9.33419 15.991C10.1235 16.5184 11.0516 16.7999 12.0009 16.7999C13.2735 16.7985 14.4935 16.2923 15.3934 15.3924C16.2932 14.4926 16.7994 13.2725 16.8009 11.9999C16.8009 11.0506 16.5194 10.1226 15.9919 9.33323C15.4645 8.54387 14.7149 7.92865 13.8378 7.56535C12.9607 7.20206 11.9956 7.107 11.0645 7.29221C10.1334 7.47742 9.27811 7.93457 8.60682 8.60586C7.93554 9.27714 7.47838 10.1324 7.29318 11.0635C7.10797 11.9946 7.20302 12.9597 7.56632 13.8368C7.92962 14.7139 8.54484 15.4635 9.33419 15.991Z" fill="#181826"/>
</svg>
