<svg width="14" height="16" viewBox="0 0 14 16" fill="none" xmlns="http://www.w3.org/2000/svg"  aria-hidden="true"><path d="M9.03687 3.77426C7.99737 4.60632 7.03835 5.4775 6.08939 6.48024C4.09422 8.58884 2.53833 10.573 1.32781 12.5394C1.03944 13.0087 0.754413 13.4852 0.472743 13.9581C0.278256 14.4524 0.117301 14.9609 0.00999805 15.4942C-0.0637728 15.8641 0.284962 16.1734 0.586752 15.8889C0.898602 15.5903 1.17357 15.2489 1.43847 14.904C1.90457 14.2959 2.34384 13.6666 2.77976 13.0372C6.14975 13.279 10.0495 10.989 11.7127 8.17992C11.7429 8.13014 11.7496 8.06614 11.7295 8.0128C11.7094 7.95591 11.6692 7.91324 11.6155 7.89546C10.8074 7.62521 9.81817 7.45453 9.40908 7.4332C9.39231 7.4332 9.37555 7.41898 9.37219 7.39764C9.36884 7.37986 9.3789 7.36208 9.39567 7.35497C10.5089 6.77537 11.3204 6.70781 12.2727 6.85005C12.3431 6.86071 12.4069 6.80382 12.4337 6.73626C12.5276 6.51935 12.7891 5.86508 12.9702 5.33171C13.0004 5.23926 12.9635 5.1397 12.883 5.09347C12.1721 4.70944 11.2265 4.44987 10.8476 4.41075C10.8308 4.41075 10.8174 4.39297 10.8141 4.37519C10.8107 4.35742 10.8208 4.33964 10.8376 4.33252C11.9374 3.84893 12.323 3.83471 13.2016 4.03028C13.2888 4.04806 13.3726 3.9805 13.3927 3.88805C13.8253 2.17414 13.9661 0.691364 13.9996 0.207772C14.003 0.150879 13.9829 0.0939858 13.9426 0.0513159C13.9024 0.0122019 13.8487 -0.00557719 13.7951 0.00153445C11.3506 0.357117 9.39231 0.865599 7.70229 1.55187C7.64528 1.57321 7.59163 1.62299 7.59163 1.68699C7.73582 2.23815 7.3502 2.89597 6.74662 3.39023C6.73656 3.40445 6.71979 3.41157 6.70303 3.40801C6.68626 3.4009 6.6762 3.38312 6.6762 3.36534C6.67956 3.31912 6.8338 2.7004 6.74327 2.24881C6.72985 2.18481 6.70973 2.12436 6.65944 2.0888C6.60914 2.05324 6.54207 2.04969 6.48842 2.07458C-1.43524 5.88642 0.566633 12.1731 0.566633 12.1731C0.576693 12.1767 0.586752 12.1767 0.596812 12.1802C1.49212 10.3205 2.50144 8.94798 4.08752 7.14518C5.2645 5.80819 6.418 4.72011 7.61175 3.82049C8.36287 3.25511 10.0596 2.08169 11.1226 1.67633C11.1595 1.6621 11.193 1.65499 11.2265 1.65499C11.3238 1.65499 11.4042 1.719 11.4277 1.815C11.4478 1.89323 11.4311 1.97857 11.3808 2.04258L9.03687 3.77426Z" fill="currentColor"/></svg>
