<svg width="16" height="16" viewBox="0 0 24 24" fill="none" xmlns="http://www.w3.org/2000/svg">
<path d="M12.9999 21H17.9999V23H5.99992V21H10.9999V19.95C9.4144 19.7908 7.88986 19.2551 6.55328 18.3874C5.2167 17.5198 4.10676 16.3454 3.31592 14.962L5.05292 13.97C5.6637 15.0372 6.51229 15.9493 7.53277 16.6354C8.55325 17.3215 9.71815 17.7631 10.937 17.9259C12.1558 18.0887 13.3958 17.9684 14.5606 17.5742C15.7254 17.1801 16.7836 16.5227 17.6531 15.6532C18.5226 14.7837 19.18 13.7254 19.5741 12.5606C19.9683 11.3959 20.0886 10.1559 19.9258 8.93705C19.763 7.71821 19.3214 6.55331 18.6353 5.53283C17.9493 4.51235 17.0372 3.66376 15.9699 3.05298L16.9619 1.31598C18.493 2.19053 19.7654 3.45448 20.6502 4.97961C21.535 6.50474 22.0007 8.23677 21.9999 9.99998C21.9999 15.185 18.0529 19.449 12.9999 19.95V21ZM11.9999 17C11.0807 17 10.1704 16.8189 9.32113 16.4671C8.47185 16.1154 7.70018 15.5997 7.05017 14.9497C6.40016 14.2997 5.88454 13.528 5.53276 12.6788C5.18098 11.8295 4.99992 10.9192 4.99992 9.99998C4.99992 9.08073 5.18098 8.17047 5.53276 7.3212C5.88454 6.47192 6.40016 5.70024 7.05017 5.05023C7.70018 4.40022 8.47185 3.88461 9.32113 3.53282C10.1704 3.18104 11.0807 2.99998 11.9999 2.99998C13.8564 2.99998 15.6369 3.73748 16.9497 5.05023C18.2624 6.36299 18.9999 8.14346 18.9999 9.99998C18.9999 11.8565 18.2624 13.637 16.9497 14.9497C15.6369 16.2625 13.8564 17 11.9999 17Z" fill="#8E8EA9"/>
</svg>
