<svg width="16" height="16" viewBox="0 0 24 24" fill="none" xmlns="http://www.w3.org/2000/svg">
<path d="M20 5H4V19L13.292 9.706C13.4795 9.51853 13.7338 9.41321 13.999 9.41321C14.2642 9.41321 14.5185 9.51853 14.706 9.706L20 15.01V5ZM2 3.993C2.00183 3.73038 2.1069 3.47902 2.29251 3.29322C2.47813 3.10742 2.72938 3.00209 2.992 3H21.008C21.556 3 22 3.445 22 3.993V20.007C21.9982 20.2696 21.8931 20.521 21.7075 20.7068C21.5219 20.8926 21.2706 20.9979 21.008 21H2.992C2.72881 20.9997 2.4765 20.895 2.29049 20.7088C2.10448 20.5226 2 20.2702 2 20.007V3.993ZM8 11C7.46957 11 6.96086 10.7893 6.58579 10.4142C6.21071 10.0391 6 9.53043 6 9C6 8.46957 6.21071 7.96086 6.58579 7.58579C6.96086 7.21071 7.46957 7 8 7C8.53043 7 9.03914 7.21071 9.41421 7.58579C9.78929 7.96086 10 8.46957 10 9C10 9.53043 9.78929 10.0391 9.41421 10.4142C9.03914 10.7893 8.53043 11 8 11Z" fill="#8E8EA9"/>
</svg>
