<svg width="16" height="16" viewBox="0 0 32 32" fill="none" xmlns="http://www.w3.org/2000/svg">
<path d="M28.615 6.21115C28.4952 6.11781 28.3557 6.05298 28.2072 6.02157C28.0586 5.99017 27.9048 5.99301 27.7575 6.0299L20.1162 7.9399L12.4475 4.1049C12.2338 3.99832 11.9891 3.97172 11.7575 4.0299L3.7575 6.0299C3.54116 6.08397 3.3491 6.20881 3.21185 6.38456C3.0746 6.56031 3.00003 6.7769 3 6.9999V24.9999C3.00002 25.1518 3.03467 25.3018 3.10132 25.4384C3.16797 25.5749 3.26486 25.6945 3.38463 25.788C3.50441 25.8815 3.64392 25.9465 3.79256 25.978C3.94121 26.0095 4.09508 26.0067 4.2425 25.9699L11.8837 24.0599L19.5525 27.8949C19.6917 27.9635 19.8448 27.9994 20 27.9999C20.0818 27.9998 20.1632 27.9898 20.2425 27.9699L28.2425 25.9699C28.4588 25.9158 28.6509 25.791 28.7881 25.6152C28.9254 25.4395 29 25.2229 29 24.9999V6.9999C29 6.8478 28.9654 6.6977 28.8987 6.56102C28.8319 6.42434 28.7349 6.30468 28.615 6.21115ZM12 21.9999C11.9182 21.9999 11.8368 22.01 11.7575 22.0299L5 23.7186V7.78115L11.8837 6.0599L12 6.1174V21.9999ZM27 24.2186L20.1162 25.9399L20 25.8824V9.9999C20.0817 10.0003 20.1631 9.9906 20.2425 9.97114L27 8.28115V24.2186Z" fill="#32324D"/>
</svg>
