<svg width="24" height="24" viewBox="0 0 24 24" fill="none" xmlns="http://www.w3.org/2000/svg">
<path d="M3.46144 14.5631C4.87613 14.5631 6.02297 13.4162 6.02297 12.0015C6.02297 10.5868 4.87613 9.44 3.46144 9.44C2.04674 9.44 0.899902 10.5868 0.899902 12.0015C0.899902 13.4162 2.04674 14.5631 3.46144 14.5631Z" fill="#181826"/>
<path d="M11.9998 14.5631C13.4145 14.5631 14.5613 13.4162 14.5613 12.0015C14.5613 10.5868 13.4145 9.44 11.9998 9.44C10.5851 9.44 9.43823 10.5868 9.43823 12.0015C9.43823 13.4162 10.5851 14.5631 11.9998 14.5631Z" fill="#181826"/>
<path d="M20.5386 14.5631C21.9533 14.5631 23.1001 13.4162 23.1001 12.0015C23.1001 10.5868 21.9533 9.44 20.5386 9.44C19.1239 9.44 17.9771 10.5868 17.9771 12.0015C17.9771 13.4162 19.1239 14.5631 20.5386 14.5631Z" fill="#181826"/>
</svg>
