<svg width="16" height="16" viewBox="0 0 32 32" fill="none" xmlns="http://www.w3.org/2000/svg">
<path d="M25.0963 6.73626C22.6759 4.33949 19.4063 2.99651 16 3.00001H15.8663C12.4417 3.03524 9.16932 4.42042 6.7602 6.85459C4.35108 9.28875 2.99982 12.5752 3 16C3 21.375 6.3225 25.8825 11.67 27.7713C12.2731 27.9839 12.9185 28.0488 13.5519 27.9606C14.1853 27.8724 14.7883 27.6335 15.3104 27.2641C15.8324 26.8948 16.2583 26.4056 16.5523 25.8376C16.8463 25.2697 16.9998 24.6395 17 24C17 23.4696 17.2107 22.9609 17.5858 22.5858C17.9609 22.2107 18.4696 22 19 22H24.7763C25.6836 22.0044 26.5652 21.6983 27.2746 21.1326C27.984 20.5669 28.4786 19.7756 28.6763 18.89C28.8998 17.9059 29.0084 16.8992 29 15.89C28.9873 14.1818 28.6357 12.4932 27.9656 10.9219C27.2955 9.35058 26.3202 7.92789 25.0963 6.73626ZM10.5 21C10.2033 21 9.91332 20.912 9.66665 20.7472C9.41997 20.5824 9.22771 20.3481 9.11418 20.074C9.00065 19.7999 8.97094 19.4983 9.02882 19.2074C9.0867 18.9164 9.22956 18.6491 9.43934 18.4393C9.64912 18.2296 9.91639 18.0867 10.2074 18.0288C10.4983 17.971 10.7999 18.0007 11.074 18.1142C11.3481 18.2277 11.5824 18.42 11.7472 18.6667C11.912 18.9133 12 19.2033 12 19.5C12 19.8978 11.842 20.2794 11.5607 20.5607C11.2794 20.842 10.8978 21 10.5 21ZM10.5 14C10.2033 14 9.91332 13.912 9.66665 13.7472C9.41997 13.5824 9.22771 13.3481 9.11418 13.074C9.00065 12.7999 8.97094 12.4983 9.02882 12.2074C9.0867 11.9164 9.22956 11.6491 9.43934 11.4393C9.64912 11.2296 9.91639 11.0867 10.2074 11.0288C10.4983 10.971 10.7999 11.0007 11.074 11.1142C11.3481 11.2277 11.5824 11.42 11.7472 11.6667C11.912 11.9133 12 12.2033 12 12.5C12 12.8978 11.842 13.2794 11.5607 13.5607C11.2794 13.842 10.8978 14 10.5 14ZM16 11C15.7033 11 15.4133 10.912 15.1666 10.7472C14.92 10.5824 14.7277 10.3481 14.6142 10.074C14.5006 9.79994 14.4709 9.49834 14.5288 9.20737C14.5867 8.9164 14.7296 8.64913 14.9393 8.43935C15.1491 8.22957 15.4164 8.08671 15.7074 8.02883C15.9983 7.97095 16.2999 8.00066 16.574 8.11419C16.8481 8.22772 17.0824 8.41998 17.2472 8.66665C17.412 8.91333 17.5 9.20333 17.5 9.50001C17.5 9.89783 17.342 10.2794 17.0607 10.5607C16.7794 10.842 16.3978 11 16 11ZM21.5 14C21.2033 14 20.9133 13.912 20.6666 13.7472C20.42 13.5824 20.2277 13.3481 20.1142 13.074C20.0007 12.7999 19.9709 12.4983 20.0288 12.2074C20.0867 11.9164 20.2296 11.6491 20.4393 11.4393C20.6491 11.2296 20.9164 11.0867 21.2074 11.0288C21.4983 10.971 21.7999 11.0007 22.074 11.1142C22.3481 11.2277 22.5824 11.42 22.7472 11.6667C22.912 11.9133 23 12.2033 23 12.5C23 12.8978 22.842 13.2794 22.5607 13.5607C22.2794 13.842 21.8978 14 21.5 14Z" fill="#32324D"/>
</svg>
