<svg width="16" height="16" viewBox="0 0 26 26" fill="none" xmlns="http://www.w3.org/2000/svg">
<path fill-rule="evenodd" clip-rule="evenodd" d="M14.0606 1.17097L17.1782 4.28857L19.0468 2.42004C20.2989 1.16793 22.3289 1.16793 23.581 2.42004C24.8331 3.67213 24.8331 5.70218 23.581 6.95429L21.7125 8.82285L24.8294 11.9398C25.4152 12.5255 25.4152 13.4753 24.8294 14.0611L21.7127 17.1778L20.5577 16.0229C19.3056 14.7708 17.2756 14.7708 16.0235 16.0229C14.7714 17.275 14.7714 19.3051 16.0235 20.5572L17.1784 21.7121L14.0607 24.8299C13.475 25.4157 12.5252 25.4157 11.9394 24.8299L8.82264 21.7131L6.95543 23.5804C5.70334 24.8325 3.67328 24.8325 2.42118 23.5804C1.16909 22.3283 1.16909 20.2981 2.42118 19.0461L4.28841 17.1789L1.17054 14.061C0.584755 13.4752 0.584754 12.5255 1.17054 11.9397L4.28805 8.8222L5.44336 9.97752C6.69546 11.2296 8.7255 11.2296 9.97761 9.97752C11.2297 8.72542 11.2297 6.69536 9.97761 5.44327L8.8223 4.28795L11.9393 1.17097C12.5251 0.585182 13.4748 0.585181 14.0606 1.17097Z" fill="#212134"/>
</svg>
