<svg width="16" height="24" viewBox="0 0 16 24" fill="none" xmlns="http://www.w3.org/2000/svg">
<path d="M5.66675 8.66663C6.21903 8.66663 6.66675 8.21891 6.66675 7.66663C6.66675 7.11434 6.21903 6.66663 5.66675 6.66663C5.11446 6.66663 4.66675 7.11434 4.66675 7.66663C4.66675 8.21891 5.11446 8.66663 5.66675 8.66663ZM5.66675 13C6.21903 13 6.66675 12.5522 6.66675 12C6.66675 11.4477 6.21903 11 5.66675 11C5.11446 11 4.66675 11.4477 4.66675 12C4.66675 12.5522 5.11446 13 5.66675 13ZM6.66675 16.3333C6.66675 16.8856 6.21903 17.3333 5.66675 17.3333C5.11446 17.3333 4.66675 16.8856 4.66675 16.3333C4.66675 15.781 5.11446 15.3333 5.66675 15.3333C6.21903 15.3333 6.66675 15.781 6.66675 16.3333ZM10.3334 8.66663C10.8857 8.66663 11.3334 8.21891 11.3334 7.66663C11.3334 7.11434 10.8857 6.66663 10.3334 6.66663C9.78115 6.66663 9.33341 7.11434 9.33341 7.66663C9.33341 8.21891 9.78115 8.66663 10.3334 8.66663ZM11.3334 12C11.3334 12.5522 10.8857 13 10.3334 13C9.78115 13 9.33341 12.5522 9.33341 12C9.33341 11.4477 9.78115 11 10.3334 11C10.8857 11 11.3334 11.4477 11.3334 12ZM10.3334 17.3333C10.8857 17.3333 11.3334 16.8856 11.3334 16.3333C11.3334 15.781 10.8857 15.3333 10.3334 15.3333C9.78115 15.3333 9.33341 15.781 9.33341 16.3333C9.33341 16.8856 9.78115 17.3333 10.3334 17.3333Z" fill="#666687"/>
</svg>
