<svg width="12" height="12" viewBox="0 0 12 12" fill="none" xmlns="http://www.w3.org/2000/svg">
<path fill-rule="evenodd" clip-rule="evenodd" d="M7.84071 1.40213C7.23016 1.13603 6.57285 0.999209 5.90875 1C3.19857 1.00019 1 3.23958 1 5.99999C1 8.76051 3.19875 11 5.90908 11H5.90911C6.92437 10.9999 7.91466 10.6794 8.74369 10.0825C9.57273 9.48556 10.1998 8.64163 10.5385 7.66683C10.639 7.37758 10.4903 7.06012 10.2063 6.95775C9.9223 6.85538 9.61061 7.00687 9.5101 7.29611C9.2466 8.05438 8.75886 8.71084 8.11398 9.17516C7.4691 9.63947 6.69881 9.88881 5.90908 9.88887L5.90879 2.11111C5.90889 2.11111 5.90898 2.11111 5.90908 2.11111H5.90942L5.90976 2.11111C6.42598 2.11046 6.93694 2.21679 7.41153 2.42364C7.88202 2.6287 8.30702 2.9283 8.66114 3.30447L8.89367 3.57998L7.40046 5.10084C7.38773 5.11379 7.37906 5.1303 7.37555 5.14827C7.37203 5.16624 7.37383 5.18487 7.38072 5.20179C7.38761 5.21872 7.39927 5.23319 7.41423 5.24336C7.4292 5.25353 7.44679 5.25896 7.46478 5.25894H11V1.65826C11 1.63993 10.9947 1.62202 10.9847 1.60678C10.9747 1.59154 10.9605 1.57966 10.9439 1.57264C10.9273 1.56563 10.909 1.5638 10.8913 1.56738C10.8737 1.57095 10.8575 1.57978 10.8448 1.59275L9.66725 2.79207L9.47003 2.5584L9.46047 2.54817C9.00247 2.05821 8.45137 1.66828 7.84071 1.40213ZM5.90878 2.11111L5.90875 1L5.90879 2.11111C5.90879 2.11111 5.90879 2.11111 5.90878 2.11111ZM5.90878 2.11111L5.90904 9.88887C3.80122 9.88885 2.09091 8.14685 2.09091 5.99999C2.09091 3.85322 3.80108 2.11127 5.90878 2.11111Z" fill="#8E8EA9"/>
</svg>
