<svg width="1119" height="211" viewBox="0 0 1119 211" fill="none" xmlns="http://www.w3.org/2000/svg">
<path d="M568.999 31.1105C572.584 34.7076 576.817 36.5061 581.699 36.5061C586.733 36.5061 591.042 34.7076 594.627 31.1105C598.212 27.5135 600.004 23.2659 600.004 18.3678C600.004 13.4697 598.212 9.18393 594.627 5.51035C591.042 1.83676 586.733 0 581.699 0C576.817 0 572.584 1.83676 568.999 5.51035C565.414 9.18393 563.622 13.4697 563.622 18.3678C563.622 23.2659 565.414 27.5135 568.999 31.1105Z" fill="#212067"/>
<path d="M182.976 78.0742C182.976 78.4502 182.671 78.7551 182.295 78.7551H157.119V126.511C157.119 130.491 158.111 133.399 160.094 135.236C162.077 137.073 164.975 138.106 168.789 138.336C172.278 138.546 176.533 138.532 181.554 138.293L181.683 138.287L181.915 138.276L182.259 138.258C182.649 138.238 182.976 138.549 182.976 138.939V164.475C182.976 164.822 182.715 165.113 182.371 165.151C182.203 165.169 182.034 165.188 181.909 165.201C162.185 167.311 148.24 165.359 140.072 159.344C131.758 153.221 127.601 142.277 127.601 126.511V78.7551H108.375C107.999 78.7551 107.694 78.4502 107.694 78.0742V50.9659C107.694 50.5899 107.999 50.285 108.375 50.285H127.601V31.3231C127.601 30.7838 127.92 30.2952 128.413 30.0773L156.163 17.8223C156.613 17.6235 157.119 17.9531 157.119 18.4452V50.285H182.295C182.671 50.285 182.976 50.5899 182.976 50.9659V78.0742Z" fill="#212067"/>
<path d="M236.501 70.0289C239.247 62.6817 243.785 57.1714 250.116 53.4978C255.909 50.1359 262.31 48.3124 269.317 48.0271C269.656 48.0134 270.175 48.0032 270.594 47.9966C270.973 47.9906 271.282 48.2965 271.282 48.6753V79.8299C271.282 80.4804 270.717 80.981 270.069 80.9222C261.557 80.1498 253.914 82.029 247.141 86.5599C240.048 91.3049 236.501 99.1877 236.501 110.208V164.401C236.501 164.777 236.196 165.082 235.82 165.082H207.664C207.288 165.082 206.983 164.777 206.983 164.401V50.9644C206.983 50.5883 207.288 50.2834 207.664 50.2834H235.82C236.196 50.2834 236.501 50.5883 236.501 50.9644V70.0289Z" fill="#212067"/>
<path fill-rule="evenodd" clip-rule="evenodd" d="M376.074 50.2815C375.698 50.2815 375.393 50.5864 375.393 50.9625V63.8278C366.545 52.654 354.113 47.0672 338.095 47.0672C322.84 47.0672 309.76 52.9218 298.852 64.6314C287.945 76.3409 282.492 90.6907 282.492 107.681C282.492 124.671 287.945 139.021 298.852 150.731C309.76 162.44 322.84 168.295 338.095 168.295C354.113 168.295 366.545 162.708 375.393 151.534V164.4C375.393 164.776 375.698 165.08 376.074 165.08H404.23C404.606 165.08 404.911 164.776 404.911 164.4V50.9625C404.911 50.5864 404.606 50.2815 404.23 50.2815H376.074ZM320.931 131.101C326.881 137.071 334.432 140.056 343.585 140.056C352.738 140.056 360.327 137.033 366.352 130.987C372.378 124.941 375.391 117.173 375.391 107.682C375.391 98.1924 372.378 90.4244 366.352 84.3783C360.327 78.3322 352.738 75.3092 343.585 75.3092C334.432 75.3092 326.881 78.3322 320.931 84.3783C314.982 90.4244 312.007 98.1924 312.007 107.682C312.007 117.173 314.982 124.979 320.931 131.101Z" fill="#212067"/>
<path fill-rule="evenodd" clip-rule="evenodd" d="M533.117 64.6314C522.21 52.9218 509.052 47.0672 493.645 47.0672C477.628 47.0672 465.271 52.654 456.576 63.8278V50.9625C456.576 50.5864 456.271 50.2815 455.895 50.2815H427.739C427.363 50.2815 427.058 50.5864 427.058 50.9625V210.319C427.058 210.695 427.363 211 427.739 211H455.895C456.271 211 456.576 210.695 456.576 210.319V151.534C465.271 162.708 477.628 168.295 493.645 168.295C509.052 168.295 522.21 162.44 533.117 150.731C544.024 139.021 549.477 124.671 549.477 107.681C549.477 90.6907 544.024 76.3409 533.117 64.6314ZM465.498 131.101C471.447 137.071 478.998 140.056 488.151 140.056C497.304 140.056 504.893 137.033 510.919 130.987C516.944 124.941 519.957 117.173 519.957 107.682C519.957 98.1924 516.944 90.4244 510.919 84.3783C504.893 78.3322 497.304 75.3092 488.151 75.3092C478.998 75.3092 471.447 78.3322 465.498 84.3783C459.548 90.4244 456.574 98.1924 456.574 107.682C456.574 117.173 459.548 124.979 465.498 131.101Z" fill="#212067"/>
<path d="M567.738 165.083C567.362 165.083 567.057 164.778 567.057 164.402V50.965C567.057 50.5889 567.362 50.284 567.738 50.284H595.894C596.27 50.284 596.575 50.5889 596.575 50.965V164.402C596.575 164.778 596.27 165.083 595.894 165.083H567.738Z" fill="#212067"/>
<path d="M40.8386 90.3462C36.7961 88.4329 34.7748 85.9456 34.7748 82.8843C34.7748 79.976 36.0333 77.6801 38.5504 75.9963C41.0674 74.3126 44.2328 73.4708 48.0465 73.4708C55.3595 73.4708 60.8838 76.3311 64.6194 82.0518C64.88 82.4509 65.387 82.6124 65.8227 82.419L90.7272 71.3636C91.098 71.199 91.2436 70.7491 91.0371 70.3998C90.7626 69.9356 90.4012 69.3304 90.1611 68.9516C85.892 62.2184 80.3703 57.2025 73.4456 53.381C65.8182 49.1716 57.3519 47.067 48.0465 47.067C35.6901 47.067 25.3551 50.3196 17.0412 56.8249C8.72733 63.3302 4.57046 72.2462 4.57046 83.5731C4.57046 91.0733 6.59169 97.3107 10.6342 102.285C14.6767 107.26 19.5963 110.895 25.3932 113.191C31.19 115.487 36.9867 117.4 42.7836 118.931C48.5804 120.462 53.5 122.184 57.5425 124.097C61.5851 126.01 63.6063 128.498 63.6063 131.559C63.6063 138.141 58.3435 141.432 47.8176 141.432C37.7983 141.432 30.8552 137.716 26.9881 130.286C26.656 129.647 25.8958 129.355 25.2384 129.648L0.403919 140.689C0.0539055 140.844 -0.0990498 141.258 0.0674013 141.603C0.167888 141.811 0.273795 142.029 0.351267 142.184C9.03013 159.591 24.8521 168.295 47.8176 168.295C60.9368 168.295 71.882 165.119 80.6535 158.766C89.425 152.414 93.8107 143.345 93.8107 131.559C93.8107 123.753 91.7895 117.247 87.7469 112.043C83.7044 106.839 78.7848 103.127 72.988 100.908C67.1911 98.6883 61.3944 96.8515 55.5976 95.3974C49.8007 93.9432 44.8811 92.2595 40.8386 90.3462Z" fill="#212067"/>
<path d="M661 66C661 57.1634 668.163 50 677 50H961V166H677C668.163 166 661 158.837 661 150V66Z" fill="#4945FF"/>
<path d="M721.469 78.9C729.437 78.9 736.077 81.6943 741.389 87.283C746.756 92.8717 749.44 99.7607 749.44 107.95C749.44 116.139 746.756 123.028 741.389 128.617C736.077 134.206 729.437 137 721.469 137H698.395V78.9H721.469ZM721.469 126.044C726.504 126.044 730.599 124.384 733.753 121.064C736.907 117.689 738.484 113.317 738.484 107.95C738.484 102.583 736.907 98.239 733.753 94.919C730.599 91.5437 726.504 89.856 721.469 89.856H709.849V126.044H721.469ZM807.202 129.447C801.337 135.257 794.199 138.162 785.788 138.162C777.377 138.162 770.239 135.257 764.374 129.447C758.564 123.582 755.659 116.416 755.659 107.95C755.659 99.484 758.564 92.346 764.374 86.536C770.239 80.6707 777.377 77.738 785.788 77.738C794.199 77.738 801.337 80.6707 807.202 86.536C813.067 92.346 816 99.484 816 107.95C816 116.416 813.067 123.582 807.202 129.447ZM772.425 121.645C776.022 125.186 780.476 126.957 785.788 126.957C791.1 126.957 795.554 125.186 799.151 121.645C802.748 118.048 804.546 113.483 804.546 107.95C804.546 102.417 802.748 97.8517 799.151 94.255C795.554 90.6583 791.1 88.86 785.788 88.86C780.476 88.86 776.022 90.6583 772.425 94.255C768.828 97.8517 767.03 102.417 767.03 107.95C767.03 113.483 768.828 118.048 772.425 121.645ZM852.356 138.162C843.614 138.162 836.393 135.257 830.693 129.447C824.994 123.637 822.144 116.471 822.144 107.95C822.144 99.3733 824.994 92.2077 830.693 86.453C836.393 80.643 843.614 77.738 852.356 77.738C857.613 77.738 862.455 78.983 866.881 81.473C871.363 83.9077 874.849 87.2277 877.339 91.433L867.462 97.16C866.024 94.5593 863.976 92.5397 861.32 91.101C858.664 89.607 855.676 88.86 852.356 88.86C846.712 88.86 842.147 90.6307 838.661 94.172C835.231 97.7133 833.515 102.306 833.515 107.95C833.515 113.539 835.231 118.104 838.661 121.645C842.147 125.186 846.712 126.957 852.356 126.957C855.676 126.957 858.664 126.238 861.32 124.799C864.032 123.305 866.079 121.285 867.462 118.74L877.339 124.467C874.849 128.672 871.391 132.02 866.964 134.51C862.538 136.945 857.668 138.162 852.356 138.162ZM904.962 138.162C899.208 138.162 894.366 136.889 890.437 134.344C886.509 131.743 883.742 128.23 882.137 123.803L891.931 118.076C894.2 123.997 898.654 126.957 905.294 126.957C908.504 126.957 910.855 126.376 912.349 125.214C913.843 124.052 914.59 122.586 914.59 120.815C914.59 118.768 913.677 117.191 911.851 116.084C910.025 114.922 906.761 113.677 902.057 112.349C899.457 111.574 897.243 110.8 895.417 110.025C893.647 109.25 891.848 108.227 890.022 106.954C888.252 105.626 886.896 103.966 885.955 101.974C885.015 99.982 884.544 97.658 884.544 95.002C884.544 89.7453 886.398 85.5677 890.105 82.469C893.868 79.315 898.378 77.738 903.634 77.738C908.338 77.738 912.46 78.9 916.001 81.224C919.598 83.4927 922.392 86.6743 924.384 90.769L914.756 96.33C912.432 91.35 908.725 88.86 903.634 88.86C901.255 88.86 899.374 89.4133 897.99 90.52C896.662 91.5713 895.998 92.9547 895.998 94.67C895.998 96.496 896.745 97.99 898.239 99.152C899.789 100.259 902.721 101.476 907.037 102.804C908.808 103.357 910.136 103.8 911.021 104.132C911.962 104.409 913.207 104.879 914.756 105.543C916.361 106.152 917.578 106.733 918.408 107.286C919.294 107.839 920.29 108.586 921.396 109.527C922.503 110.468 923.333 111.436 923.886 112.432C924.495 113.428 924.993 114.645 925.38 116.084C925.823 117.467 926.044 118.989 926.044 120.649C926.044 126.016 924.08 130.277 920.151 133.431C916.278 136.585 911.215 138.162 904.962 138.162Z" fill="white"/>
<path d="M961 50H1103C1111.84 50 1119 57.1634 1119 66V150C1119 158.837 1111.84 166 1103 166H961V50Z" fill="#322FC1"/>
<path d="M1025.2 95.5H1036.99L1021.22 137H1009.02L993.249 95.5H1005.04L1015.08 124.55L1025.2 95.5ZM1084.98 116.499V127.123H1078.76V137H1067.22V127.123H1039.75V116.499L1059.09 78.9H1071.37L1052.12 116.499H1067.22V102.721H1078.76V116.499H1084.98Z" fill="white"/>
</svg>
