<svg width="218" height="25" viewBox="0 0 218 25" fill="none" xmlns="http://www.w3.org/2000/svg">
<path d="M99.5286 3.66869C99.9514 4.09287 100.451 4.30496 101.026 4.30496C101.62 4.30496 102.128 4.09287 102.551 3.66869C102.974 3.24451 103.185 2.74362 103.185 2.16602C103.185 1.58841 102.974 1.08301 102.551 0.649805C102.128 0.2166 101.62 0 101.026 0C100.451 0 99.9514 0.2166 99.5286 0.649805C99.1059 1.08301 98.8945 1.58841 98.8945 2.16602C98.8945 2.74362 99.1059 3.24451 99.5286 3.66869Z" fill="#212067"/>
<path d="M54.0071 9.20686C54.0071 9.25121 53.9711 9.28716 53.9268 9.28716H50.9579V14.9188C50.9579 15.3881 51.0748 15.7311 51.3087 15.9477C51.5426 16.1643 51.8843 16.2861 52.3341 16.3132C52.7455 16.3379 53.2473 16.3363 53.8394 16.3082L53.8546 16.3074L53.8819 16.3061L53.9225 16.304C53.9685 16.3017 54.0071 16.3383 54.0071 16.3843V19.3956C54.0071 19.4365 53.9763 19.4709 53.9357 19.4754C53.9159 19.4775 53.896 19.4797 53.8812 19.4813C51.5553 19.7301 49.9108 19.4998 48.9476 18.7906C47.9672 18.0686 47.477 16.778 47.477 14.9188V9.28716H45.2097C45.1654 9.28716 45.1294 9.25121 45.1294 9.20686V6.01013C45.1294 5.96578 45.1654 5.92983 45.2097 5.92983H47.477V3.69377C47.477 3.63016 47.5146 3.57255 47.5727 3.54686L50.8452 2.10169C50.8982 2.07824 50.9579 2.11711 50.9579 2.17514V5.92983H53.9268C53.9711 5.92983 54.0071 5.96578 54.0071 6.01013V9.20686Z" fill="#212067"/>
<path d="M60.3189 8.25812C60.6428 7.39171 61.1779 6.74191 61.9245 6.3087C62.6077 5.91225 63.3624 5.69721 64.1888 5.66358C64.2287 5.66195 64.2899 5.66075 64.3394 5.65997C64.384 5.65927 64.4205 5.69535 64.4205 5.74001V9.41391C64.4205 9.49061 64.3538 9.54965 64.2774 9.54272C63.2737 9.45163 62.3724 9.67323 61.5737 10.2075C60.7372 10.7671 60.3189 11.6967 60.3189 12.9963V19.387C60.3189 19.4313 60.283 19.4673 60.2386 19.4673H56.9184C56.874 19.4673 56.8381 19.4313 56.8381 19.387V6.00995C56.8381 5.9656 56.874 5.92965 56.9184 5.92965H60.2386C60.283 5.92965 60.3189 5.9656 60.3189 6.00995V8.25812Z" fill="#212067"/>
<path fill-rule="evenodd" clip-rule="evenodd" d="M76.778 5.92942C76.7337 5.92942 76.6977 5.96538 76.6977 6.00972V7.52686C75.6544 6.2092 74.1883 5.55037 72.2994 5.55037C70.5005 5.55037 68.958 6.24078 67.6717 7.62163C66.3855 9.00247 65.7424 10.6947 65.7424 12.6982C65.7424 14.7018 66.3855 16.394 67.6717 17.7748C68.958 19.1557 70.5005 19.8461 72.2994 19.8461C74.1883 19.8461 75.6544 19.1873 76.6977 17.8696V19.3867C76.6977 19.4311 76.7337 19.467 76.778 19.467H80.0983C80.1427 19.467 80.1786 19.4311 80.1786 19.3867V6.00972C80.1786 5.96538 80.1427 5.92942 80.0983 5.92942H76.778ZM70.2754 15.4601C70.977 16.164 71.8674 16.516 72.9468 16.516C74.0261 16.516 74.921 16.1595 75.6316 15.4465C76.3422 14.7336 76.6975 13.8175 76.6975 12.6984C76.6975 11.5793 76.3422 10.6633 75.6316 9.95027C74.921 9.23728 74.0261 8.8808 72.9468 8.8808C71.8674 8.8808 70.977 9.23728 70.2754 9.95027C69.5738 10.6633 69.223 11.5793 69.223 12.6984C69.223 13.8175 69.5738 14.7381 70.2754 15.4601Z" fill="#212067"/>
<path fill-rule="evenodd" clip-rule="evenodd" d="M95.2972 7.62163C94.011 6.24078 92.4595 5.55037 90.6426 5.55037C88.7537 5.55037 87.2966 6.2092 86.2712 7.52686V6.00972C86.2712 5.96538 86.2353 5.92942 86.1909 5.92942H82.8706C82.8263 5.92942 82.7903 5.96537 82.7903 6.00972V24.8018C82.7903 24.8461 82.8263 24.8821 82.8706 24.8821H86.1909C86.2353 24.8821 86.2712 24.8461 86.2712 24.8018V17.8696C87.2966 19.1873 88.7537 19.8461 90.6426 19.8461C92.4595 19.8461 94.011 19.1557 95.2972 17.7748C96.5835 16.394 97.2266 14.7018 97.2266 12.6982C97.2266 10.6947 96.5835 9.00247 95.2972 7.62163ZM87.3233 15.4601C88.0249 16.164 88.9153 16.516 89.9947 16.516C91.074 16.516 91.969 16.1595 92.6795 15.4465C93.3901 14.7336 93.7454 13.8175 93.7454 12.6984C93.7454 11.5793 93.3901 10.6633 92.6795 9.95027C91.969 9.23728 91.074 8.8808 89.9947 8.8808C88.9153 8.8808 88.0249 9.23728 87.3233 9.95027C86.6217 10.6633 86.2709 11.5793 86.2709 12.6984C86.2709 13.8175 86.6217 14.7381 87.3233 15.4601Z" fill="#212067"/>
<path d="M99.3799 19.4673C99.3356 19.4673 99.2996 19.4314 99.2996 19.387V6.01002C99.2996 5.96567 99.3356 5.92972 99.3799 5.92972H102.7C102.745 5.92972 102.781 5.96567 102.781 6.01002V19.387C102.781 19.4314 102.745 19.4673 102.7 19.4673H99.3799Z" fill="#212067"/>
<path d="M37.2456 10.654C36.7688 10.4284 36.5305 10.1351 36.5305 9.77409C36.5305 9.43114 36.6789 9.16039 36.9757 8.96183C37.2725 8.76328 37.6458 8.66401 38.0955 8.66401C38.9579 8.66401 39.6094 9.00131 40.0499 9.67592C40.0806 9.72298 40.1404 9.74203 40.1918 9.71922L43.1287 8.41551C43.1724 8.3961 43.1895 8.34305 43.1652 8.30187C43.1328 8.24713 43.0902 8.17576 43.0619 8.13109C42.5585 7.33708 41.9073 6.74557 41.0907 6.29492C40.1913 5.79854 39.1929 5.55036 38.0955 5.55036C36.6384 5.55036 35.4197 5.93392 34.4393 6.70105C33.4589 7.46819 32.9687 8.5196 32.9687 9.85532C32.9687 10.7398 33.207 11.4753 33.6837 12.0619C34.1604 12.6486 34.7406 13.0773 35.4242 13.348C36.1078 13.6188 36.7913 13.8444 37.4749 14.0249C38.1585 14.2054 38.7387 14.4085 39.2154 14.6341C39.6921 14.8597 39.9304 15.153 39.9304 15.514C39.9304 16.2902 39.3098 16.6783 38.0686 16.6783C36.887 16.6783 36.0683 16.2401 35.6123 15.3639C35.5731 15.2886 35.4834 15.2542 35.4059 15.2886L32.4773 16.5906C32.436 16.609 32.418 16.6578 32.4376 16.6984C32.4495 16.723 32.462 16.7487 32.4711 16.767C33.4946 18.8197 35.3604 19.8461 38.0686 19.8461C39.6156 19.8461 40.9063 19.4715 41.9407 18.7224C42.9751 17.9734 43.4923 16.9039 43.4923 15.514C43.4923 14.5935 43.2539 13.8264 42.7772 13.2126C42.3005 12.5989 41.7203 12.1612 41.0368 11.8995C40.3532 11.6378 39.6696 11.4212 38.986 11.2497C38.3024 11.0782 37.7223 10.8797 37.2456 10.654Z" fill="#212067"/>
<path d="M0 8.66667C0 4.58116 0 2.53841 1.2692 1.2692C2.53841 0 4.58116 0 8.66667 0H16.3333C20.4188 0 22.4616 0 23.7308 1.2692C25 2.53841 25 4.58116 25 8.66667V16.3333C25 20.4188 25 22.4616 23.7308 23.7308C22.4616 25 20.4188 25 16.3333 25H8.66667C4.58116 25 2.53841 25 1.2692 23.7308C0 22.4616 0 20.4188 0 16.3333V8.66667Z" fill="#4945FF"/>
<path fill-rule="evenodd" clip-rule="evenodd" d="M17.2497 7.58301H8.83301V11.8745H13.1245V16.1662H8.83301V16.1663H17.4163V7.74967C17.4163 7.65763 17.3417 7.58301 17.2497 7.58301Z" fill="white"/>
<rect x="12.958" y="11.8748" width="0.166667" height="0.166667" fill="white"/>
<path d="M8.83301 11.8748H12.958C13.0501 11.8748 13.1247 11.9494 13.1247 12.0414V16.1664H8.99967C8.90763 16.1664 8.83301 16.0918 8.83301 15.9998V11.8748Z" fill="#9593FF"/>
<path d="M13.125 16.1665H17.4167L13.2673 20.3159C13.2148 20.3684 13.125 20.3312 13.125 20.257V16.1665Z" fill="#9593FF"/>
<path d="M8.83316 11.8749H4.74268C4.66844 11.8749 4.63126 11.7852 4.68375 11.7327L8.83316 7.58325V11.8749Z" fill="#9593FF"/>
<path d="M115.448 4.12736C115.448 1.84788 117.296 0 119.576 0H162.972V24.8821H119.576C117.296 24.8821 115.448 23.0342 115.448 20.7547V4.12736Z" fill="#4945FF"/>
<path d="M127.97 7.5071C129.363 7.5071 130.523 7.99542 131.451 8.97208C132.389 9.94873 132.858 11.1526 132.858 12.5837C132.858 14.0149 132.389 15.2188 131.451 16.1954C130.523 17.1721 129.363 17.6604 127.97 17.6604H123.938V7.5071H127.97ZM127.97 15.7458C128.85 15.7458 129.566 15.4557 130.117 14.8755C130.668 14.2856 130.944 13.5217 130.944 12.5837C130.944 11.6458 130.668 10.8867 130.117 10.3065C129.566 9.71665 128.85 9.42172 127.97 9.42172H125.94V15.7458H127.97ZM142.821 16.3405C141.796 17.3558 140.549 17.8635 139.079 17.8635C137.609 17.8635 136.362 17.3558 135.337 16.3405C134.322 15.3155 133.814 14.0632 133.814 12.5837C133.814 11.1043 134.322 9.85686 135.337 8.84153C136.362 7.81653 137.609 7.30403 139.079 7.30403C140.549 7.30403 141.796 7.81653 142.821 8.84153C143.846 9.85686 144.359 11.1043 144.359 12.5837C144.359 14.0632 143.846 15.3155 142.821 16.3405ZM136.744 14.977C137.373 15.5959 138.151 15.9053 139.079 15.9053C140.008 15.9053 140.786 15.5959 141.415 14.977C142.043 14.3485 142.357 13.5507 142.357 12.5837C142.357 11.6168 142.043 10.819 141.415 10.1905C140.786 9.56193 140.008 9.24766 139.079 9.24766C138.151 9.24766 137.373 9.56193 136.744 10.1905C136.115 10.819 135.801 11.6168 135.801 12.5837C135.801 13.5507 136.115 14.3485 136.744 14.977ZM150.581 17.8635C149.054 17.8635 147.792 17.3558 146.796 16.3405C145.8 15.3251 145.302 14.0729 145.302 12.5837C145.302 11.0849 145.8 9.83269 146.796 8.82703C147.792 7.8117 149.054 7.30403 150.581 7.30403C151.5 7.30403 152.346 7.5216 153.12 7.95675C153.903 8.38222 154.512 8.96241 154.947 9.69731L153.221 10.6981C152.97 10.2437 152.612 9.89071 152.148 9.63929C151.684 9.37821 151.162 9.24766 150.581 9.24766C149.595 9.24766 148.797 9.5571 148.188 10.176C147.589 10.7948 147.289 11.5974 147.289 12.5837C147.289 13.5604 147.589 14.3582 148.188 14.977C148.797 15.5959 149.595 15.9053 150.581 15.9053C151.162 15.9053 151.684 15.7796 152.148 15.5282C152.622 15.2671 152.979 14.9142 153.221 14.4694L154.947 15.4702C154.512 16.2051 153.908 16.7901 153.134 17.2253C152.361 17.6507 151.51 17.8635 150.581 17.8635Z" fill="#F0F0FF"/>
<path d="M162.972 0H213.208C215.487 0 217.335 1.84788 217.335 4.12736V20.7547C217.335 23.0342 215.487 24.8821 213.208 24.8821H162.972V0Z" fill="#F0F0FF"/>
<path d="M177.429 10.7067H175.573L174.207 15.7127H174.098L172.719 10.7067H170.827L173.142 17.3633H175.126L177.429 10.7067ZM182.574 17.3633H184.315V15.7611H185.458V14.298H184.315V8.639H181.758C180.591 10.4286 179.406 12.3633 178.306 14.3282V15.7611H182.574V17.3633ZM179.944 14.2496C180.736 12.8409 181.667 11.3234 182.52 10.0235H182.616V14.3464H179.944V14.2496ZM188.076 17.5144C188.729 17.5144 189.146 17.0791 189.146 16.4866C189.146 15.8941 188.729 15.4649 188.076 15.4649C187.429 15.4649 187.006 15.8941 187.006 16.4866C187.006 17.0791 187.429 17.5144 188.076 17.5144ZM193.886 17.587C196.044 17.587 197.35 15.882 197.35 12.9921C197.35 10.0961 196.026 8.4153 193.886 8.4153C191.74 8.4153 190.422 10.0961 190.422 12.986C190.422 15.882 191.728 17.587 193.886 17.587ZM193.886 16.142C192.889 16.142 192.272 15.0779 192.272 12.986C192.272 10.9123 192.895 9.86028 193.886 9.86028C194.884 9.86028 195.5 10.9062 195.5 12.986C195.5 15.0779 194.89 16.142 193.886 16.142ZM199.636 17.5144C200.289 17.5144 200.706 17.0791 200.706 16.4866C200.706 15.8941 200.289 15.4649 199.636 15.4649C198.989 15.4649 198.566 15.8941 198.566 16.4866C198.566 17.0791 198.989 17.5144 199.636 17.5144ZM205.446 17.587C207.604 17.587 208.91 15.882 208.91 12.9921C208.91 10.0961 207.586 8.4153 205.446 8.4153C203.3 8.4153 201.982 10.0961 201.982 12.986C201.982 15.882 203.288 17.587 205.446 17.587ZM205.446 16.142C204.448 16.142 203.832 15.0779 203.832 12.986C203.832 10.9123 204.454 9.86028 205.446 9.86028C206.443 9.86028 207.06 10.9062 207.06 12.986C207.06 15.0779 206.45 16.142 205.446 16.142Z" fill="#4945FF"/>
</svg>
