<svg xmlns="http://www.w3.org/2000/svg" viewBox="0 0 155.41 239.73"><defs><style>.cls-1{isolation:isolate;}.cls-2{fill:#fed5ad;}.cls-3,.cls-6{fill:#f3b480;}.cls-4{fill:#212c33;}.cls-5{fill:#2c3a44;}.cls-6{mix-blend-mode:multiply;opacity:0.2;}.cls-7{fill:#2b2d2d;}.cls-8{fill:#46140f;}.cls-9{fill:#d1d3d4;}.cls-10{fill:#939598;}.cls-11{fill:#a7a9ac;}</style></defs><g class="cls-1"><g id="Layer_1" data-name="Layer 1"><path class="cls-2" d="M76.05,138v46.81c-11.66,0-22.26-27.45-30.23-34.74,4.22-.81,8.42-1.43,12.64-1.88V134.43h0v0A45.78,45.78,0,0,0,76.05,138Z" transform="translate(0 -6.31)"/><path class="cls-3" d="M76.05,184.83c11.66,0,22.28-27.46,30.25-34.75q-6.33-1.22-12.66-1.88V134.43A44.88,44.88,0,0,1,76.05,138Z" transform="translate(0 -6.31)"/><path class="cls-4" d="M152.1,191.18V246h-76V180.82c3.12,0,10.17-19.32,13.12-19.93,8-1.66,11.3-5.48,17.13-10.82,2.5.47,5,1,7.49,1.58,3.77.85,7.54,1.86,11.3,3a37.41,37.41,0,0,1,8.67,3.85A38.26,38.26,0,0,1,152.1,191.18Z" transform="translate(0 -6.31)"/><path class="cls-5" d="M76.05,180.81V246H0V191.17a38,38,0,0,1,27-36.54q5.73-1.73,11.45-3c2.46-.58,4.89-1.09,7.34-1.54l0,0c6.24,5.68,8.08,6.65,16.79,8.11C65,158.6,73.52,180.81,76.05,180.81Z" transform="translate(0 -6.31)"/><path class="cls-6" d="M58.46,134.42s13.88,17.22,35.18,12.42V134.42l-25-7.3Z" transform="translate(0 -6.31)"/><path class="cls-2" d="M76.05,20.18V138a44.8,44.8,0,0,1-17.59-3.58c-16-6.84-27.19-7.71-27.19-26.19V40a11.55,11.55,0,0,1,8.87-11.24Z" transform="translate(0 -6.31)"/><path class="cls-3" d="M120.82,40v68.26c0,18.48-11.19,19.35-27.18,26.19A44.88,44.88,0,0,1,76.05,138V20.18L112,28.73A11.55,11.55,0,0,1,120.82,40Z" transform="translate(0 -6.31)"/><path class="cls-7" d="M66,77c-8.14-.39-12.16.3-19.35,2.93a2.5,2.5,0,0,1-3.16-1.23h0a2.29,2.29,0,0,1,1.44-3.06c7.84-2.91,12.21-3.66,21-3.29a2.65,2.65,0,0,1,2.69,2.52h0A2.41,2.41,0,0,1,66,77Z" transform="translate(0 -6.31)"/><path class="cls-7" d="M86.09,77c8.14-.39,12.15.3,19.34,2.93a2.5,2.5,0,0,0,3.16-1.23h0a2.28,2.28,0,0,0-1.44-3.06c-7.84-2.91-12.21-3.66-21.05-3.29a2.67,2.67,0,0,0-2.69,2.52h0A2.42,2.42,0,0,0,86.09,77Z" transform="translate(0 -6.31)"/><path class="cls-7" d="M76.05,120.56a27,27,0,0,1-14.76-4.38l-1.4-.91a1.6,1.6,0,1,1,1.75-2.68l1.39.91a23.88,23.88,0,0,0,26,0l1.4-.91a1.6,1.6,0,1,1,1.74,2.68l-1.4.91A27,27,0,0,1,76.05,120.56Z" transform="translate(0 -6.31)"/><path class="cls-7" d="M63.46,92.47c.1,4.55-2.91,8.31-6.73,8.39s-7-3.54-7.09-8.1,2.92-8.31,6.73-8.39S63.36,87.91,63.46,92.47Z" transform="translate(0 -6.31)"/><path class="cls-7" d="M102.59,91.78c.1,4.56-2.91,8.32-6.73,8.4s-7-3.55-7.09-8.1,2.92-8.31,6.73-8.4S102.49,87.23,102.59,91.78Z" transform="translate(0 -6.31)"/><path class="cls-8" d="M140.74,50.84c10.64-6.49,14.67-19.48,14.67-19.48-9.92,3.9-17.56,2.34-17.56,2.34,7.52-3.51,8.07-9.26,8.07-9.26-13.94,2.07-24-8.62-38-14.79s-36.93-3-48.79,3c-14.83,7.43-21.57,17-21.57,17C34.23,27.39,36.48,15,36.48,15c-8.67,7.82-6.42,18.66-6.42,18.66C19.4,34,16.14,45.67,16.14,45.67a31,31,0,0,1,13.05-4.34C19,54.14,22.72,62.54,22.72,62.54l8.42-11.19c-4.09,7.28.38,36.48.38,36.48s3.7-16.56,5-21.11C39.21,57.7,48,55.25,48,55.25c1.71,14.63,35.52,28.86,44.51,32C74.23,80.27,69,59.39,69,59.39c11.3,11.66,40.31,9.19,40.31,9.19,3,9.46,14.23,15.57,11.53,24C126.61,78,122.29,67,122.29,67a17.92,17.92,0,0,0,8.44-4.21l-4.91-.7c11.32-1.46,24.63-12.17,24.63-12.17Z" transform="translate(0 -6.31)"/><polygon class="cls-9" points="58.55 141.52 44.76 143.72 53.02 154.79 60.02 156.05 58.55 165.01 76 174.58 58.55 141.52"/><polygon class="cls-10" points="93.5 141.52 107.29 143.72 99.03 154.79 92.03 156.05 93.5 165.01 76.05 174.58 93.5 141.52"/><circle class="cls-11" cx="76.05" cy="180.93" r="2.41"/><circle class="cls-11" cx="76.05" cy="206.56" r="2.41"/><circle class="cls-11" cx="76.05" cy="232.18" r="2.41"/></g></g></svg>