<svg xmlns="http://www.w3.org/2000/svg" viewBox="0 0 167.59 284.76"><defs><style>.cls-1{isolation:isolate;}.cls-2{fill:#8c2918;}.cls-3{fill:#9f3c26;}.cls-4{fill:#a67c52;}.cls-5,.cls-8{fill:#8c6239;}.cls-6{fill:#d45032;}.cls-7{fill:#fff;}.cls-8{mix-blend-mode:multiply;opacity:0.2;}.cls-9{fill:#2b2d2d;}.cls-10{fill:#593628;}.cls-11{fill:#414042;}.cls-12{fill:#231f20;}</style></defs><g class="cls-1"><g id="Layer_1" data-name="Layer 1"><path class="cls-2" d="M129,189.21c-2.75-8.1-29.84-9.77-45.27-9.89v24.82l29.9,1.19S132,198.13,129,189.21Z" transform="translate(0 -5.67)"/><path class="cls-3" d="M79.44,179.33c-14,.16-31.8-.7-41.07,5.68s10.79,17.76,10.79,17.76l34.55,1.37V179.32C82.15,179.31,80.72,179.31,79.44,179.33Z" transform="translate(0 -5.67)"/><path class="cls-4" d="M83.73,171.39v34.82a44.73,44.73,0,0,1-30.26-11.75q6.35-1.22,12.67-1.88V167.81A44.84,44.84,0,0,0,83.73,171.39Z" transform="translate(0 -5.67)"/><path class="cls-5" d="M83.72,206.2A44.71,44.71,0,0,0,114,194.45q-6.33-1.22-12.67-1.87V167.8a44.8,44.8,0,0,1-17.59,3.58Z" transform="translate(0 -5.67)"/><path class="cls-3" d="M159.78,235.56v54.86H83.72V206.2A44.71,44.71,0,0,0,114,194.45c2.49.47,5,1,7.48,1.58,3.78.85,7.55,1.86,11.3,3A38.13,38.13,0,0,1,159.78,235.56Z" transform="translate(0 -5.67)"/><path class="cls-6" d="M83.73,206.21v84.22H7.68V235.57a38.13,38.13,0,0,1,27-36.55q5.73-1.72,11.45-3c2.45-.58,4.88-1.09,7.33-1.54A44.73,44.73,0,0,0,83.73,206.21Z" transform="translate(0 -5.67)"/><path class="cls-7" d="M121.47,196c-2,9.68-14.61,17.46-30.87,19.17a65.13,65.13,0,0,1-6.78.36h-.09c-2.3,0-4.56-.13-6.76-.34C60.75,213.48,48.1,205.7,46.14,196c2.45-.58,4.88-1.09,7.33-1.54a44.84,44.84,0,0,0,60.52,0C116.48,194.93,119,195.44,121.47,196Z" transform="translate(0 -5.67)"/><polygon class="cls-3" points="76.64 209.89 83.72 216.97 83.72 202.8 76.64 209.89"/><polygon class="cls-3" points="90.96 209.89 83.8 202.73 83.72 202.8 83.72 216.97 83.8 217.05 90.96 209.89"/><polygon class="cls-6" points="76.64 209.89 83.72 216.97 83.72 202.8 76.64 209.89"/><polygon class="cls-3" points="90.96 209.89 83.8 202.73 83.72 202.8 83.72 216.97 83.8 217.05 90.96 209.89"/><path class="cls-8" d="M66.13,167.8S80,185,101.31,180.22V167.8l-25-7.3Z" transform="translate(0 -5.67)"/><path class="cls-9" d="M162.75,75.44c-.41,2.48,3.11,5.93,2.3,8.3s-5.67,3-6.82,5.26,1.21,6.53-.24,8.6-6.29,1.32-8,3.2-.45,6.63-2.35,8.29-6.46-.15-8.53,1.34-1.79,6.36-4,7.64c-1.6.93-4.37-.32-6.63-.52a3.8,3.8,0,0,0-2,.22c-2.21,1.06-2.88,6-5.24,6.84s-6-2.39-8.47-1.68-3.75,5.43-6.22,5.95-5.63-3.25-8.13-2.9-4.5,4.84-7,5-5.12-4-7.64-4h-.06c-2.52.06-5.14,4.16-7.57,4s-4.58-4.67-7-5-5.69,3.41-8.12,2.92-3.86-5.27-6.25-6-6.14,2.56-8.44,1.68-3-5.78-5.27-6.84a4,4,0,0,0-2.09-.22c-2.23.24-4.94,1.43-6.52.52-2.2-1.28-2-6.21-4-7.66s-6.67.3-8.5-1.32-.71-6.46-2.37-8.29-6.59-1.18-8-3.2.9-6.4-.23-8.62-6-2.88-6.82-5.24,2.73-5.82,2.32-8.3S0,70.86,0,68.32s4.43-4.67,4.84-7.12-3.11-5.91-2.32-8.27,5.69-3,6.84-5.27-1.24-6.54.21-8.61,6.31-1.32,8-3.2.45-6.61,2.35-8.27,6.46.12,8.5-1.35,1.79-6.35,4-7.63S38.76,20,41,18.88s2.88-5.95,5.27-6.83,6,2.39,8.44,1.67,3.78-5.42,6.25-6,5.61,3.26,8.12,2.92,4.5-4.84,7-5,5.12,4,7.65,4,5.16-4.18,7.64-4,4.58,4.67,7,5,5.7-3.43,8.11-2.92,3.88,5.27,6.24,6,6.16-2.54,8.47-1.67,3,5.78,5.24,6.83,6.25-1.37,8.4-.39a.76.76,0,0,1,.22.11,3.21,3.21,0,0,1,1.11,1.22c1.08,2,1.3,5.28,2.87,6.41,1,.73,2.58.69,4.16.62s3.41-.13,4.37.73c1.13,1,1.18,3.07,1.35,5a5.75,5.75,0,0,0,1,3.3c.79.87,2.26,1.19,3.77,1.47,1.73.34,3.48.64,4.25,1.73a4.25,4.25,0,0,1,.42,2.94c-.23,2-.94,4.24-.21,5.65,1.15,2.24,6.05,2.9,6.84,5.27s-2.73,5.82-2.32,8.29,4.84,4.59,4.84,7.1S163.15,73,162.75,75.44Z" transform="translate(0 -5.67)"/><path class="cls-4" d="M83.73,61.22V171.39A44.72,44.72,0,0,1,39,126.62V81a11.55,11.55,0,0,1,8.87-11.22Z" transform="translate(0 -5.67)"/><path class="cls-5" d="M101.31,167.8a44.8,44.8,0,0,0,27.19-41.19V81a11.55,11.55,0,0,0-8.87-11.23L83.72,61.21V171.38A44.8,44.8,0,0,0,101.31,167.8Z" transform="translate(0 -5.67)"/><path class="cls-9" d="M73.68,91.32c-8.14-.39-12.15.3-19.34,2.94A2.5,2.5,0,0,1,51.18,93h0A2.28,2.28,0,0,1,52.62,90c7.84-2.91,12.21-3.66,21.05-3.28a2.66,2.66,0,0,1,2.69,2.51h0A2.41,2.41,0,0,1,73.68,91.32Z" transform="translate(0 -5.67)"/><path class="cls-9" d="M93.76,91.32c8.14-.39,12.16.3,19.35,2.94A2.5,2.5,0,0,0,116.27,93h0A2.29,2.29,0,0,0,114.83,90c-7.84-2.91-12.21-3.66-21-3.28a2.65,2.65,0,0,0-2.69,2.51h0A2.41,2.41,0,0,0,93.76,91.32Z" transform="translate(0 -5.67)"/><path class="cls-9" d="M83.72,149.93A27,27,0,0,1,69,145.55l-1.4-.91A1.6,1.6,0,1,1,69.31,142l1.4.91a23.84,23.84,0,0,0,26,0l1.4-.91a1.6,1.6,0,1,1,1.75,2.68l-1.4.91A27,27,0,0,1,83.72,149.93Z" transform="translate(0 -5.67)"/><path class="cls-10" d="M71.55,106.2c.1,4.56-2.91,8.32-6.73,8.4s-7-3.54-7.09-8.1,2.92-8.31,6.73-8.4S71.45,101.65,71.55,106.2Z" transform="translate(0 -5.67)"/><path class="cls-10" d="M110.68,105.52c.1,4.55-2.91,8.32-6.73,8.4s-7-3.55-7.09-8.1,2.92-8.31,6.73-8.4S110.58,101,110.68,105.52Z" transform="translate(0 -5.67)"/><rect class="cls-11" x="63.61" y="209.34" width="2.59" height="27.47"/><path class="cls-11" d="M67.59,243c0,2.1-1.2,3.8-2.68,3.8s-2.68-1.7-2.68-3.8,1.2-3.8,2.68-3.8S67.59,240.91,67.59,243Z" transform="translate(0 -5.67)"/><rect class="cls-12" x="100.27" y="209.34" width="2.59" height="27.47"/><path class="cls-12" d="M104.24,243c0,2.1-1.19,3.8-2.67,3.8s-2.68-1.7-2.68-3.8,1.2-3.8,2.68-3.8S104.24,240.91,104.24,243Z" transform="translate(0 -5.67)"/><path class="cls-2" d="M114,194.45c-2.24-.38-15.55,10.28-30.27,10.06v12.77c4.24.82,8.49,2.09,12.82,1.75A23.51,23.51,0,0,0,106.68,216a75.88,75.88,0,0,0,7-5.73c4.28-4.07,8.64-8.81,12.8-13A123.62,123.62,0,0,0,114,194.45Z" transform="translate(0 -5.67)"/><path class="cls-3" d="M41.34,197.16c5.84,4.16,11.25,9.75,16.49,14.6s9.29,7.3,16.56,5.73a19.64,19.64,0,0,1,7.28-.56c.68.1,1.36.22,2,.35V204.51c-11.52.15-23.59-6.62-30.24-10C52.06,193.73,44.74,196.59,41.34,197.16Z" transform="translate(0 -5.67)"/></g></g></svg>