<svg xmlns="http://www.w3.org/2000/svg" viewBox="0 0 143.68 281.09"><defs><style>.cls-1{isolation:isolate;}.cls-2{fill:#fed5ad;}.cls-3,.cls-6{fill:#f3b480;}.cls-4{fill:#9f3c26;}.cls-5{fill:#d45032;}.cls-6{mix-blend-mode:multiply;opacity:0.2;}.cls-7{fill:#ff6d00;}.cls-8{fill:#2b2d2d;}</style></defs><g class="cls-1"><g id="Layer_1" data-name="Layer 1"><path class="cls-2" d="M71.83,178v32.88c-1.36,0-2.73-.07-4.07-.2a38.7,38.7,0,0,1-4-.57,39.65,39.65,0,0,1-5.71-1.51c-.62-.22-1.24-.45-1.83-.69a41.67,41.67,0,0,1-12.95-8.12c4-.77,8-1.37,11.94-1.79V174.61h0v0A42.64,42.64,0,0,0,71.83,178Z" transform="translate(0 -9.34)"/><path class="cls-3" d="M71.84,210.88a42.23,42.23,0,0,0,28.58-11.1q-6-1.14-12-1.77V174.6A42.18,42.18,0,0,1,71.84,178Z" transform="translate(0 -9.34)"/><path class="cls-4" d="M143.68,238.61v51.82H71.84V210.87a42.23,42.23,0,0,0,28.58-11.1c2.35.45,4.71.93,7.07,1.49,3.56.81,7.13,1.76,10.67,2.82a35.91,35.91,0,0,1,25.52,34.53Z" transform="translate(0 -9.34)"/><path class="cls-5" d="M71.83,210.88v79.55H0V238.62a36.27,36.27,0,0,1,17.31-30.9,37,37,0,0,1,8.21-3.64c3.61-1.09,7.21-2,10.81-2.86,2.3-.54,4.61-1,6.93-1.45l0,0a43,43,0,0,0,12.95,8.12c.59.24,1.21.47,1.83.69a47.44,47.44,0,0,0,5.71,1.51,38.7,38.7,0,0,0,4,.57C69.1,210.81,70.47,210.88,71.83,210.88Z" transform="translate(0 -9.34)"/><path class="cls-6" d="M88.46,174.59v11.75a31.48,31.48,0,0,1-16.63-.73,38.7,38.7,0,0,1-16.59-11v0h0v0l9.66-6.89,7,2Z" transform="translate(0 -9.34)"/><path class="cls-7" d="M143.67,92a91.61,91.61,0,0,1-9.83,41.72,79.87,79.87,0,0,1-4.65,8c-.41.64-.83,1.27-1.28,1.9-.9,1.31-1.84,2.57-2.84,3.81-.42.54-.85,1.08-1.3,1.61s-1,1.15-1.47,1.71-1,1.12-1.49,1.66-1,1.1-1.56,1.62l-.68.68a75.58,75.58,0,0,1-5.86,5.23c-.6.47-1.18.92-1.77,1.36a64.75,64.75,0,0,1-39,13.31h-.09A65.28,65.28,0,0,1,30.94,159.8C12.3,144.88.13,120.07.13,92,.13,46.39,32.2,9.39,71.81,9.34h.09c15.71,0,30.25,5.83,42.06,15.7a76.62,76.62,0,0,1,14,15.32A90.23,90.23,0,0,1,143.67,92Z" transform="translate(0 -9.34)"/><path class="cls-2" d="M71.83,48.73V178a42.64,42.64,0,0,1-16.59-3.37l0,0a42.32,42.32,0,0,1-25.69-38.91V67.42a10.92,10.92,0,0,1,8.38-10.61Z" transform="translate(0 -9.34)"/><path class="cls-3" d="M114.13,67.42v68.26A42.24,42.24,0,0,1,71.84,178V48.73l33.92,8.08A10.9,10.9,0,0,1,114.13,67.42Z" transform="translate(0 -9.34)"/><path class="cls-8" d="M62.35,102.36c-7.69-.37-11.48.28-18.27,2.77a2.38,2.38,0,0,1-3-1.16h0a2.17,2.17,0,0,1,1.36-2.9C49.86,98.33,54,97.62,62.34,98a2.51,2.51,0,0,1,2.54,2.37h0A2.28,2.28,0,0,1,62.35,102.36Z" transform="translate(0 -9.34)"/><path class="cls-8" d="M81.32,102.36c7.69-.37,11.49.28,18.28,2.77a2.36,2.36,0,0,0,3-1.16h0a2.16,2.16,0,0,0-1.36-2.9c-7.41-2.74-11.54-3.45-19.89-3.1a2.49,2.49,0,0,0-2.53,2.37h0A2.27,2.27,0,0,0,81.32,102.36Z" transform="translate(0 -9.34)"/><path class="cls-8" d="M71.84,157.72a25.55,25.55,0,0,1-13.94-4.13l-1.32-.86a1.51,1.51,0,1,1,1.65-2.53l1.32.85a22.5,22.5,0,0,0,24.58,0l1.32-.85a1.51,1.51,0,1,1,1.65,2.53l-1.32.86A25.6,25.6,0,0,1,71.84,157.72Z" transform="translate(0 -9.34)"/><path class="cls-8" d="M59.24,119.14c.1,4.55-2.91,8.31-6.73,8.39s-7-3.54-7.09-8.1,2.92-8.31,6.73-8.4S59.14,114.58,59.24,119.14Z" transform="translate(0 -9.34)"/><path class="cls-8" d="M98.37,118.45c.1,4.56-2.91,8.32-6.73,8.4s-7-3.55-7.09-8.1,2.92-8.31,6.73-8.4S98.27,113.9,98.37,118.45Z" transform="translate(0 -9.34)"/><path class="cls-7" d="M63.91,26.76s-76.12-14.92-44,84.38l5.8-8.34s6.49.92,14.68-3.12S66.48,79.38,68.8,69.47c0,0,2,11.56-11.69,25.28A47.13,47.13,0,0,0,82.71,62s7,25.18,34.14,28.46C116.85,90.48,129.06,25.82,63.91,26.76Z" transform="translate(0 -9.34)"/></g></g></svg>